<?xml version="1.0" encoding="utf-8"?>
<svg viewBox="300 225 900 950" xmlns="http://www.w3.org/2000/svg">
  <g id="g10" transform="matrix(0.13333299756050113, 0, 0, -0.13333299756050113, 0, 1496.0000445842743)">
    <path d="m 6440.38,2577.19 c -397.09,0.01 -794.73,87.75 -1098.67,263.24 L 3311.49,4012.57 c -608.01,351.04 -611.16,920.16 -7.16,1271.17 302,175.5 698.61,263.25 1095.73,263.25 397.13,0 794.76,-87.76 1098.76,-263.27 L 7529.05,4111.57 c 607.95,-351.01 611.16,-920.1 7.15,-1271.11 -302.03,-175.52 -698.65,-263.28 -1095.82,-263.27" style="fill:#9dcae6;fill-opacity:1;fill-rule:nonzero;stroke:none" id="path14"/>
    <path d="m 5020.04,7652.66 c -3.32,1.75 -6.64,3.46 -9.94,5.15 -2.55,1.3 -5.14,2.71 -7.69,3.97 -4.09,2.03 -8.15,3.85 -12.22,5.76 -2.93,1.39 -5.87,2.82 -8.79,4.14 -1.2,0.55 -2.41,1.18 -3.61,1.71 -8.15,3.64 -16.24,7.07 -24.29,10.3 l -0.08,0.03 c -8.22,3.3 -16.39,6.37 -24.5,9.22 -1.06,0.37 -2.1,0.67 -3.15,1.03 -2.94,1.01 -5.85,1.91 -8.77,2.87 -4.14,1.36 -8.32,2.82 -12.43,4.06 -2.05,0.63 -4.07,1.1 -6.12,1.69 -3.59,1.04 -7.15,2 -10.72,2.96 -2.76,0.73 -5.55,1.6 -8.29,2.29 -2.88,0.71 -5.7,1.24 -8.56,1.9 -3.57,0.82 -7.14,1.64 -10.68,2.37 -1.88,0.39 -3.8,0.9 -5.68,1.26 -3.35,0.66 -6.63,1.08 -9.96,1.64 -4.11,0.72 -8.23,1.45 -12.3,2.03 -1.44,0.21 -2.92,0.53 -4.35,0.72 -3.4,0.46 -6.7,0.66 -10.07,1.03 -4.39,0.48 -8.78,1 -13.12,1.34 -1.28,0.1 -2.58,0.3 -3.86,0.39 -2.96,0.21 -5.83,0.15 -8.77,0.29 -5.18,0.25 -10.35,0.47 -15.45,0.51 -1.43,0.01 -2.91,0.15 -4.34,0.15 -5.65,-0.03 -11.25,-0.2 -16.81,-0.48 l -2.13,-0.15 c -4.22,-0.23 -8.43,-0.48 -12.58,-0.87 -2.65,-0.24 -5.23,-0.62 -7.85,-0.92 -1.99,-0.24 -3.97,-0.44 -5.94,-0.71 -7.17,-0.95 -14.28,-2.06 -21.25,-3.45 l -0.64,-0.15 c -1.92,-0.39 -3.76,-0.93 -5.66,-1.35 -5.79,-1.29 -11.55,-2.63 -17.19,-4.23 -2.77,-0.78 -5.45,-1.71 -8.18,-2.56 -3.61,-1.14 -7.27,-2.15 -10.82,-3.4 l -2.63,-1.08 c -5.46,-1.99 -10.78,-4.25 -16.09,-6.55 -2.58,-1.12 -5.22,-2.12 -7.76,-3.31 -7.76,-3.62 -15.35,-7.53 -22.74,-11.83 l -70.47,-40.95 c 7.37,4.28 14.98,8.19 22.73,11.82 2.54,1.19 5.19,2.19 7.77,3.31 5.3,2.31 10.62,4.55 16.08,6.56 4.42,1.61 8.93,3.05 13.45,4.47 2.72,0.85 5.41,1.79 8.18,2.57 5.64,1.59 11.4,2.94 17.2,4.23 1.89,0.42 3.74,0.95 5.65,1.33 7.18,1.47 14.5,2.63 21.89,3.62 1.97,0.26 3.96,0.47 5.94,0.7 6.74,0.77 13.53,1.42 20.43,1.8 l 2.14,0.14 c 6.95,0.35 14.03,0.38 21.14,0.33 5.1,-0.03 10.27,-0.27 15.45,-0.5 4.2,-0.21 8.38,-0.35 12.63,-0.69 4.34,-0.34 8.73,-0.86 13.12,-1.34 4.79,-0.53 9.57,-1.05 14.42,-1.74 4.07,-0.59 8.19,-1.32 12.31,-2.03 5.18,-0.89 10.38,-1.82 15.63,-2.9 3.54,-0.74 7.11,-1.56 10.68,-2.38 5.58,-1.29 11.2,-2.68 16.85,-4.19 3.56,-0.95 7.13,-1.92 10.72,-2.96 6.15,-1.77 12.34,-3.72 18.55,-5.76 2.92,-0.94 5.83,-1.84 8.76,-2.86 18.27,-6.31 36.83,-13.73 55.64,-22.28 2.92,-1.32 5.86,-2.76 8.79,-4.14 6.6,-3.12 13.24,-6.35 19.91,-9.74 3.31,-1.69 6.62,-3.4 9.94,-5.15 8.83,-4.67 17.69,-9.44 26.62,-14.6 l 70.48,40.96 c -6.46,3.74 -12.91,7.34 -19.33,10.82 -2.45,1.32 -4.86,2.49 -7.29,3.78" style="fill:#5f72a1;fill-opacity:1;fill-rule:nonzero;stroke:none" id="path16"/>
    <path d="m 8349.83,4953.93 c -0.05,1.39 -0.15,2.79 -0.2,4.18 -0.11,2.98 -0.27,5.97 -0.42,8.96 -0.18,3.5 -0.27,6.99 -0.49,10.5 -0.17,2.68 -0.45,5.38 -0.64,8.07 -0.24,3.15 -0.48,6.31 -0.75,9.47 -0.19,2.08 -0.31,4.14 -0.5,6.22 -0.43,4.48 -1,9 -1.51,13.5 -0.29,2.62 -0.54,5.22 -0.87,7.84 l -0.29,2.6 c -1.03,8.16 -2.2,16.34 -3.49,24.55 l -0.09,0.53 c -0.19,1.17 -0.42,2.35 -0.61,3.52 -1.12,6.88 -2.27,13.75 -3.57,20.65 -0.23,1.22 -0.51,2.45 -0.74,3.68 -0.64,3.27 -1.33,6.54 -2.01,9.82 -0.81,4 -1.55,7.99 -2.43,11.98 -0.48,2.22 -1.04,4.45 -1.55,6.66 -0.8,3.57 -1.64,7.12 -2.49,10.68 -0.66,2.76 -1.24,5.51 -1.92,8.26 -0.82,3.29 -1.74,6.59 -2.59,9.88 -0.94,3.59 -1.86,7.17 -2.83,10.75 -0.48,1.77 -0.9,3.53 -1.39,5.3 -1.3,4.68 -2.74,9.37 -4.11,14.07 -0.89,3.05 -1.75,6.09 -2.67,9.14 l -0.76,2.59 c -2.58,8.43 -5.28,16.85 -8.1,25.26 l -0.1,0.3 -0.76,2.17 c -2.52,7.48 -5.11,14.96 -7.82,22.43 -0.42,1.18 -0.89,2.35 -1.32,3.52 -1.02,2.8 -2.1,5.59 -3.15,8.38 -1.5,4.01 -2.96,8.03 -4.51,12.02 -0.99,2.55 -2.05,5.08 -3.07,7.62 -1.23,3.11 -2.48,6.21 -3.74,9.31 -0.93,2.27 -1.8,4.54 -2.73,6.8 -1.89,4.53 -3.87,9.03 -5.81,13.56 -1.03,2.38 -2.03,4.76 -3.07,7.14 l -1.1,2.58 c -3.49,7.89 -7.07,15.75 -10.75,23.6 l -0.48,1 c -1.05,2.22 -2.15,4.42 -3.22,6.63 -2.89,6.06 -5.77,12.13 -8.78,18.15 -0.47,0.94 -0.97,1.87 -1.45,2.82 -2.46,4.9 -5.03,9.77 -7.57,14.65 -2.05,3.94 -4.02,7.93 -6.12,11.85 l -1.19,2.13 c -6.8,12.66 -13.85,25.2 -21.11,37.62 -0.61,1.05 -1.17,2.14 -1.78,3.18 -1.86,3.17 -3.82,6.25 -5.71,9.4 -3.05,5.08 -6.1,10.14 -9.24,15.18 -2.79,4.49 -5.64,8.95 -8.49,13.41 -3.18,4.96 -6.36,9.91 -9.61,14.82 -1.08,1.64 -2.1,3.31 -3.19,4.93 -1.03,1.54 -2.15,3.01 -3.2,4.56 -9.02,13.36 -18.21,26.59 -27.72,39.5 l -0.01,0.01 -0.2,0.25 c -6.75,9.15 -13.62,18.17 -20.6,27.06 l -0.92,1.19 c -5.14,6.54 -10.38,12.96 -15.65,19.35 -1.01,1.23 -1.98,2.49 -2.99,3.71 l -0.19,0.23 c -6.22,7.47 -12.51,14.84 -18.89,22.1 l -0.96,1.07 c -1.93,2.19 -3.9,4.3 -5.83,6.46 -4.06,4.53 -8.09,9.09 -12.21,13.52 l -2.34,2.47 c -2.78,2.96 -5.59,5.85 -8.38,8.77 -3.09,3.23 -6.14,6.52 -9.26,9.7 -1.15,1.18 -2.35,2.3 -3.52,3.47 -3.02,3.07 -6.09,6.06 -9.16,9.07 -2.63,2.59 -5.24,5.26 -7.9,7.81 -1.52,1.45 -3.07,2.83 -4.6,4.28 -3.31,3.13 -6.64,6.21 -9.98,9.27 -2.3,2.13 -4.58,4.34 -6.91,6.44 -1.83,1.65 -3.7,3.2 -5.54,4.83 -3.34,2.96 -6.7,5.88 -10.07,8.78 -2.05,1.77 -4.06,3.61 -6.12,5.34 -2.24,1.89 -4.5,3.67 -6.75,5.52 -3.28,2.71 -6.56,5.4 -9.86,8.05 -1.72,1.38 -3.41,2.83 -5.14,4.19 -2.8,2.22 -5.65,4.31 -8.47,6.47 -3.08,2.36 -6.14,4.73 -9.22,7.03 -1.26,0.94 -2.49,1.94 -3.76,2.87 -3.8,2.8 -7.66,5.45 -11.49,8.17 -2.58,1.83 -5.13,3.7 -7.73,5.49 l -2.02,1.44 c -6.89,4.72 -13.81,9.29 -20.76,13.72 l -0.2,0.12 -1.48,0.91 c -6.31,3.98 -12.64,7.89 -19.01,11.64 -1.6,0.94 -3.2,1.88 -4.8,2.79 l -211.08,121.87 c -0.29,1.04 -0.57,2.08 -0.87,3.12 -0.99,3.61 -2.12,7.2 -3.15,10.8 -2.43,8.52 -4.86,17.05 -7.46,25.56 -0.3,1.02 -0.58,2.03 -0.89,3.05 -1.26,4.11 -2.66,8.21 -3.96,12.32 -2.31,7.35 -4.62,14.69 -7.06,22.03 -0.47,1.45 -0.9,2.89 -1.38,4.34 -1.37,4.05 -2.85,8.1 -4.25,12.16 -2.34,6.83 -4.7,13.67 -7.14,20.5 -0.64,1.78 -1.23,3.58 -1.87,5.36 -1.46,4.02 -3.03,8.01 -4.53,12.03 -2.32,6.26 -4.64,12.51 -7.05,18.76 -0.74,1.93 -1.42,3.87 -2.17,5.81 -1.55,3.95 -3.2,7.89 -4.77,11.83 -2.4,6.05 -4.81,12.09 -7.29,18.13 -0.83,1.99 -1.59,3.99 -2.42,6 -1.65,3.96 -3.41,7.92 -5.08,11.88 -2.49,5.84 -4.97,11.69 -7.51,17.52 -0.86,1.97 -1.67,3.96 -2.55,5.94 -1.66,3.76 -3.43,7.49 -5.12,11.25 -2.84,6.31 -5.68,12.61 -8.6,18.9 -0.98,2.11 -1.91,4.23 -2.89,6.34 -1.54,3.27 -3.17,6.51 -4.73,9.77 -3.39,7.13 -6.82,14.24 -10.31,21.32 -1.23,2.5 -2.4,5.02 -3.64,7.51 -1.22,2.46 -2.54,4.88 -3.77,7.33 -4.52,8.96 -9.13,17.88 -13.8,26.78 -1.52,2.91 -2.96,5.84 -4.5,8.74 -0.92,1.71 -1.87,3.39 -2.79,5.1 -2.9,5.41 -5.86,10.79 -8.82,16.18 -3.23,5.88 -6.46,11.76 -9.76,17.62 -3.04,5.37 -6.13,10.71 -9.2,16.05 -2.24,3.86 -4.41,7.78 -6.67,11.63 -0.81,1.39 -1.68,2.72 -2.5,4.1 -8.68,14.69 -17.52,29.27 -26.6,43.69 -1.58,2.5 -3.2,4.96 -4.78,7.46 -7.95,12.5 -16.06,24.89 -24.31,37.18 -1.37,2.05 -2.67,4.16 -4.05,6.21 -1.3,1.92 -2.65,3.79 -3.95,5.7 -3.3,4.83 -6.64,9.61 -9.97,14.4 -3.91,5.62 -7.84,11.22 -11.81,16.79 -3.39,4.73 -6.81,9.45 -10.24,14.15 -2.26,3.1 -4.48,6.26 -6.76,9.35 -1.28,1.72 -2.62,3.38 -3.9,5.1 -8.15,10.95 -16.41,21.78 -24.78,32.48 -1.1,1.4 -2.14,2.85 -3.25,4.26 l -0.84,1.03 c -8.77,11.13 -17.66,22.1 -26.67,32.95 l -1.23,1.53 c -2.2,2.63 -4.47,5.18 -6.68,7.81 -6.24,7.4 -12.49,14.77 -18.84,22.03 -0.97,1.13 -1.93,2.29 -2.92,3.42 -2.4,2.73 -4.87,5.37 -7.29,8.08 -5.73,6.45 -11.49,12.86 -17.31,19.19 -1.55,1.68 -3.06,3.44 -4.61,5.12 -2.12,2.28 -4.3,4.45 -6.42,6.72 -5.81,6.19 -11.66,12.32 -17.55,18.39 -2.1,2.16 -4.14,4.4 -6.25,6.55 -1.61,1.64 -3.26,3.19 -4.88,4.82 -6.48,6.55 -13.01,12.97 -19.57,19.36 -2.43,2.36 -4.81,4.82 -7.25,7.17 -0.94,0.9 -1.9,1.75 -2.85,2.64 -8.79,8.39 -17.66,16.63 -26.6,24.74 -1.1,1 -2.16,2.04 -3.25,3.04 l -0.42,0.36 c -10.15,9.13 -20.38,18.03 -30.69,26.77 l -2.08,1.81 c -2.49,2.1 -5.03,4.07 -7.53,6.15 -7.11,5.91 -14.24,11.77 -21.43,17.5 -1.46,1.16 -2.89,2.4 -4.36,3.55 -2.52,1.99 -5.09,3.85 -7.62,5.81 -6.28,4.88 -12.58,9.7 -18.91,14.42 -2.09,1.56 -4.14,3.21 -6.23,4.75 -2.15,1.58 -4.35,3.05 -6.5,4.62 -5.95,4.32 -11.93,8.55 -17.92,12.74 -2.6,1.81 -5.17,3.73 -7.78,5.52 -1.76,1.21 -3.55,2.33 -5.32,3.52 -5.83,3.95 -11.7,7.79 -17.57,11.61 -3.01,1.95 -5.99,4.02 -8.99,5.95 -1.43,0.9 -2.87,1.72 -4.31,2.62 -5.65,3.57 -11.34,6.99 -17.02,10.43 -3.37,2.03 -6.7,4.18 -10.08,6.16 -2.42,1.44 -4.85,2.86 -7.28,4.25 -7.93,4.58 -15.84,9.01 -23.72,13.26 l -0.7,0.38 c -9.38,5.06 -18.72,9.88 -28.02,14.5 l -1.63,0.85 c -2.06,1.02 -4.1,1.9 -6.16,2.9 -6.71,3.25 -13.4,6.43 -20.05,9.45 -1.26,0.57 -2.54,1.22 -3.8,1.79 -2.02,0.91 -4.01,1.68 -6.02,2.56 -6.11,2.67 -12.19,5.26 -18.24,7.73 -1.86,0.76 -3.74,1.63 -5.59,2.37 -1.44,0.58 -2.84,1.05 -4.28,1.61 -6.57,2.59 -13.1,5.03 -19.62,7.39 -1.99,0.72 -4.02,1.56 -6.01,2.26 l -1.93,0.64 c -9.2,3.2 -18.34,6.21 -27.41,8.96 l -0.81,0.27 c -7.28,2.2 -14.52,4.26 -21.73,6.17 l -0.73,2.64 c -1.07,3.87 -2.28,7.74 -3.39,11.61 -3.04,10.67 -6.1,21.35 -9.35,32.03 -0.32,1.04 -0.6,2.1 -0.92,3.14 -1.5,4.89 -3.16,9.77 -4.7,14.66 -2.8,8.87 -5.58,17.74 -8.53,26.6 -0.52,1.55 -0.98,3.12 -1.5,4.67 -1.63,4.88 -3.42,9.74 -5.1,14.61 -2.82,8.22 -5.64,16.44 -8.59,24.65 -0.7,1.95 -1.34,3.91 -2.04,5.87 -1.78,4.89 -3.69,9.76 -5.51,14.66 -2.76,7.43 -5.52,14.86 -8.37,22.27 -0.83,2.15 -1.59,4.3 -2.42,6.44 -1.88,4.83 -3.9,9.64 -5.82,14.47 -2.87,7.21 -5.73,14.4 -8.68,21.59 -0.92,2.21 -1.76,4.43 -2.68,6.65 -2.01,4.83 -4.15,9.63 -6.2,14.45 -2.97,7 -5.93,13.99 -8.97,20.95 -0.97,2.22 -1.88,4.44 -2.85,6.65 -2.02,4.56 -4.16,9.08 -6.21,13.63 -3.38,7.51 -6.76,15.01 -10.24,22.5 -1.1,2.37 -2.13,4.75 -3.24,7.11 -1.86,3.97 -3.84,7.88 -5.72,11.84 -4.03,8.44 -8.09,16.87 -12.23,25.27 -1.4,2.84 -2.72,5.7 -4.12,8.53 -1.52,3.03 -3.13,6.01 -4.66,9.04 -5.25,10.42 -10.61,20.79 -16.04,31.14 -1.78,3.41 -3.47,6.87 -5.29,10.28 -1.2,2.25 -2.46,4.47 -3.66,6.73 -3.38,6.29 -6.83,12.56 -10.27,18.83 -3.87,7.04 -7.74,14.07 -11.68,21.07 -3.53,6.24 -7.1,12.45 -10.69,18.66 -2.46,4.27 -4.85,8.58 -7.34,12.83 -1.08,1.84 -2.24,3.62 -3.31,5.45 -10.37,17.58 -20.94,35.03 -31.79,52.3 -1.51,2.4 -3.08,4.76 -4.6,7.15 -9.73,15.36 -19.68,30.55 -29.78,45.63 -1.61,2.39 -3.12,4.85 -4.73,7.24 -1.69,2.49 -3.43,4.93 -5.13,7.41 -3.97,5.83 -8,11.61 -12.02,17.38 -4.58,6.57 -9.18,13.13 -13.83,19.63 -4.11,5.75 -8.25,11.46 -12.4,17.16 -2.55,3.49 -5.04,7.05 -7.61,10.52 -1.55,2.11 -3.19,4.13 -4.75,6.23 -9.56,12.84 -19.25,25.55 -29.07,38.12 -1.43,1.82 -2.79,3.69 -4.21,5.51 l -1.18,1.45 c -10.44,13.25 -21.04,26.33 -31.77,39.25 l -1.38,1.71 c -2.6,3.12 -5.27,6.12 -7.88,9.22 -7.41,8.79 -14.84,17.55 -22.38,26.17 -1.14,1.3 -2.23,2.65 -3.36,3.94 -2.87,3.27 -5.82,6.4 -8.71,9.65 -6.82,7.66 -13.67,15.28 -20.58,22.8 -1.79,1.95 -3.54,3.97 -5.33,5.92 -2.53,2.72 -5.14,5.33 -7.68,8.04 -6.92,7.37 -13.87,14.67 -20.89,21.89 -2.45,2.53 -4.84,5.14 -7.29,7.65 -1.94,1.99 -3.95,3.86 -5.9,5.83 -7.67,7.74 -15.41,15.37 -23.17,22.92 -2.87,2.79 -5.69,5.7 -8.57,8.46 -1.15,1.1 -2.32,2.14 -3.47,3.24 -10.3,9.82 -20.67,19.46 -31.13,28.94 -1.41,1.29 -2.8,2.66 -4.23,3.93 l -0.57,0.5 c -12.04,10.85 -24.21,21.43 -36.46,31.81 l -2.35,2.06 c -2.91,2.45 -5.88,4.75 -8.8,7.18 -8.52,7.09 -17.07,14.11 -25.68,20.96 -1.7,1.36 -3.38,2.81 -5.08,4.15 -3,2.37 -6.06,4.58 -9.06,6.91 -7.47,5.8 -14.97,11.53 -22.5,17.15 -2.46,1.83 -4.88,3.79 -7.34,5.59 -2.56,1.89 -5.16,3.64 -7.73,5.5 -7.08,5.15 -14.19,10.19 -21.33,15.16 -3.06,2.14 -6.08,4.4 -9.15,6.5 -2.09,1.44 -4.22,2.76 -6.32,4.18 -6.95,4.71 -13.95,9.3 -20.96,13.85 -3.53,2.29 -7.04,4.74 -10.58,6.99 -1.69,1.08 -3.41,2.06 -5.1,3.13 -6.74,4.23 -13.52,8.33 -20.29,12.42 -3.98,2.39 -7.91,4.93 -11.89,7.27 -2.89,1.7 -5.77,3.38 -8.66,5.05 -8.67,5.01 -17.31,9.82 -25.93,14.5 l -2.22,1.25 c -1.28,0.69 -2.53,1.29 -3.81,1.98 -9.68,5.18 -19.32,10.18 -28.91,14.97 -1.18,0.59 -2.37,1.26 -3.55,1.84 l -1.55,0.73 c -10.48,5.16 -20.9,10.04 -31.27,14.73 -0.99,0.45 -2.01,0.97 -3,1.42 -1.29,0.57 -2.56,1.06 -3.86,1.63 -10.41,4.61 -20.78,9.06 -31.08,13.19 l -0.45,0.19 -0.1,0.04 c -10.72,4.29 -21.36,8.24 -31.96,12.02 -1.23,0.44 -2.47,0.97 -3.7,1.39 -0.92,0.33 -1.83,0.58 -2.76,0.9 -10.33,3.6 -20.61,6.98 -30.8,10.08 l -1.89,0.62 c -1.11,0.34 -2.2,0.58 -3.32,0.91 -10.79,3.21 -21.51,6.21 -32.14,8.87 l -1.08,0.3 -0.32,0.07 c -11.19,2.79 -22.27,5.2 -33.27,7.4 -1.07,0.2 -2.16,0.5 -3.23,0.71 -1.06,0.2 -2.1,0.37 -3.17,0.56 -2.87,0.55 -5.73,1.05 -8.6,1.55 -3.79,0.67 -7.57,1.33 -11.34,1.92 -2.89,0.46 -5.78,0.88 -8.66,1.3 -2.09,0.3 -4.19,0.65 -6.27,0.94 -1.51,0.2 -3,0.34 -4.5,0.54 -3.34,0.42 -6.66,0.81 -9.97,1.18 -3.4,0.37 -6.8,0.73 -10.18,1.05 -3.29,0.31 -6.58,0.59 -9.85,0.84 -1.84,0.15 -3.69,0.34 -5.51,0.47 -1.42,0.1 -2.82,0.13 -4.24,0.21 -3.72,0.24 -7.41,0.42 -11.1,0.57 -3.08,0.14 -6.17,0.26 -9.23,0.33 -3.68,0.1 -7.34,0.14 -10.99,0.17 -1.97,0.01 -3.97,0.09 -5.94,0.08 -0.95,0 -1.88,-0.06 -2.83,-0.07 -4.95,-0.05 -9.87,-0.2 -14.76,-0.37 -2.13,-0.08 -4.27,-0.12 -6.38,-0.22 -6.97,-0.34 -13.88,-0.8 -20.74,-1.41 l -0.23,-0.01 -1.09,-0.13 c -7.35,-0.68 -14.63,-1.55 -21.85,-2.54 -2.16,-0.3 -4.31,-0.62 -6.46,-0.95 -6.17,-0.92 -12.29,-1.97 -18.36,-3.12 -1.12,-0.22 -2.28,-0.36 -3.41,-0.59 l -1.02,-0.23 c -9.23,-1.86 -18.32,-4.02 -27.3,-6.41 -1.6,-0.42 -3.2,-0.84 -4.79,-1.28 -8.8,-2.43 -17.48,-5.11 -26.02,-8.05 l -1.89,-0.59 c -1.46,-0.51 -2.88,-1.1 -4.33,-1.63 -3.77,-1.36 -7.52,-2.75 -11.23,-4.22 -2.35,-0.92 -4.68,-1.85 -7.01,-2.81 -3.69,-1.53 -7.36,-3.13 -11,-4.75 -2.23,-0.98 -4.45,-1.97 -6.65,-3 -3.91,-1.81 -7.76,-3.73 -11.61,-5.66 -1.84,-0.94 -3.7,-1.83 -5.53,-2.78 -5.63,-2.94 -11.19,-5.98 -16.68,-9.16 l -70.48,-40.96 c 5.49,3.18 11.06,6.23 16.68,9.17 1.83,0.95 3.69,1.84 5.53,2.76 3.84,1.95 7.7,3.85 11.61,5.68 2.2,1.02 4.43,2.01 6.66,3 3.63,1.63 7.3,3.21 10.99,4.73 2.32,0.97 4.67,1.91 7.01,2.82 3.72,1.46 7.47,2.87 11.23,4.22 2.07,0.75 4.14,1.5 6.22,2.22 8.55,2.94 17.22,5.62 26.02,8.06 1.59,0.44 3.19,0.86 4.78,1.28 8.99,2.38 18.07,4.55 27.31,6.39 1.47,0.3 2.97,0.55 4.44,0.83 6.06,1.15 12.19,2.2 18.35,3.13 2.15,0.32 4.3,0.64 6.45,0.93 7.23,1 14.5,1.87 21.86,2.54 l 1.32,0.15 c 6.85,0.62 13.77,1.07 20.74,1.42 2.12,0.09 4.25,0.13 6.38,0.21 4.9,0.18 9.81,0.32 14.76,0.37 2.91,0.03 5.84,0 8.77,-0.01 3.66,-0.03 7.31,-0.07 10.99,-0.16 3.07,-0.08 6.15,-0.21 9.22,-0.34 3.69,-0.15 7.4,-0.33 11.11,-0.56 3.24,-0.2 6.49,-0.43 9.75,-0.69 3.27,-0.25 6.56,-0.52 9.86,-0.84 3.37,-0.32 6.76,-0.68 10.16,-1.05 3.32,-0.37 6.64,-0.76 9.98,-1.19 3.58,-0.45 7.17,-0.95 10.76,-1.47 2.89,-0.42 5.78,-0.84 8.68,-1.3 3.76,-0.59 7.54,-1.25 11.32,-1.91 2.87,-0.51 5.74,-1.01 8.62,-1.55 2.12,-0.4 4.26,-0.86 6.38,-1.28 11.01,-2.2 22.09,-4.61 33.28,-7.39 l 1.4,-0.38 c 10.63,-2.66 21.36,-5.66 32.16,-8.86 1.72,-0.52 3.44,-1.01 5.18,-1.54 10.2,-3.1 20.47,-6.48 30.8,-10.07 2.16,-0.75 4.32,-1.53 6.48,-2.3 10.59,-3.78 21.23,-7.73 31.95,-12.02 l 0.53,-0.21 c 10.3,-4.15 20.69,-8.6 31.11,-13.21 2.28,-1 4.56,-2.01 6.85,-3.04 10.38,-4.69 20.8,-9.58 31.27,-14.74 1.69,-0.83 3.4,-1.72 5.1,-2.57 9.59,-4.78 19.22,-9.77 28.89,-14.96 2.02,-1.08 4.03,-2.14 6.06,-3.23 8.62,-4.69 17.25,-9.5 25.92,-14.5 6.89,-3.98 13.71,-8.2 20.56,-12.34 6.77,-4.08 13.54,-8.17 20.27,-12.41 5.26,-3.31 10.48,-6.73 15.71,-10.14 7,-4.54 13.99,-9.12 20.94,-13.83 5.18,-3.5 10.32,-7.09 15.47,-10.68 7.13,-4.97 14.25,-10.02 21.33,-15.16 5.04,-3.65 10.06,-7.35 15.08,-11.09 7.52,-5.61 15.01,-11.34 22.47,-17.14 4.73,-3.67 9.47,-7.33 14.17,-11.07 8.61,-6.85 17.15,-13.87 25.66,-20.95 3.72,-3.1 7.46,-6.11 11.16,-9.25 12.25,-10.38 24.41,-20.95 36.45,-31.79 1.64,-1.48 3.25,-3.02 4.89,-4.52 10.42,-9.46 20.77,-19.07 31.05,-28.86 4.03,-3.86 8.02,-7.81 12.04,-11.71 7.76,-7.56 15.5,-15.17 23.15,-22.9 4.44,-4.48 8.84,-8.99 13.23,-13.52 7,-7.21 13.94,-14.49 20.84,-21.84 4.37,-4.65 8.73,-9.3 13.06,-14.01 6.91,-7.51 13.74,-15.12 20.55,-22.77 4.03,-4.52 8.08,-9.02 12.08,-13.6 7.54,-8.62 14.97,-17.38 22.38,-26.18 3.08,-3.65 6.2,-7.23 9.26,-10.91 10.73,-12.92 21.32,-26.01 31.78,-39.25 1.8,-2.31 3.57,-4.66 5.37,-6.97 9.82,-12.56 19.52,-25.28 29.08,-38.12 4.15,-5.57 8.27,-11.14 12.37,-16.76 4.14,-5.68 8.28,-11.39 12.38,-17.12 4.65,-6.53 9.27,-13.09 13.86,-19.69 4.03,-5.76 8.03,-11.53 11.99,-17.34 3.32,-4.86 6.59,-9.77 9.87,-14.67 10.1,-15.05 20.03,-30.23 29.75,-45.56 1.54,-2.42 3.12,-4.81 4.64,-7.23 10.84,-17.25 21.4,-34.7 31.76,-52.26 3.6,-6.1 7.17,-12.22 10.7,-18.36 3.57,-6.18 7.13,-12.36 10.64,-18.57 3.95,-7.02 7.84,-14.08 11.72,-21.14 3.43,-6.25 6.87,-12.5 10.24,-18.79 3.03,-5.65 5.99,-11.34 8.97,-17.01 5.43,-10.34 10.78,-20.73 16.03,-31.14 2.95,-5.85 5.89,-11.69 8.78,-17.56 4.14,-8.41 8.21,-16.85 12.24,-25.31 2.99,-6.29 6,-12.58 8.94,-18.9 3.48,-7.49 6.87,-15.01 10.26,-22.52 3.03,-6.76 6.08,-13.5 9.05,-20.28 3.05,-6.96 6,-13.95 8.97,-20.94 2.98,-7.03 5.97,-14.07 8.87,-21.11 2.96,-7.18 5.82,-14.39 8.69,-21.59 2.78,-6.96 5.55,-13.93 8.24,-20.91 2.85,-7.4 5.6,-14.81 8.35,-22.22 2.55,-6.87 5.12,-13.73 7.58,-20.61 2.93,-8.16 5.74,-16.35 8.56,-24.53 2.22,-6.45 4.48,-12.92 6.63,-19.39 2.94,-8.84 5.72,-17.69 8.51,-26.55 1.88,-5.94 3.82,-11.88 5.63,-17.83 3.25,-10.67 6.32,-21.36 9.35,-32.03 1.36,-4.76 2.82,-9.5 4.12,-14.25 7.47,-1.98 14.98,-4.14 22.54,-6.43 9.08,-2.76 18.23,-5.77 27.42,-8.98 2.63,-0.92 5.29,-1.93 7.93,-2.89 6.51,-2.35 13.05,-4.79 19.62,-7.38 3.29,-1.29 6.58,-2.64 9.87,-3.99 6.05,-2.48 12.14,-5.06 18.23,-7.73 3.28,-1.44 6.54,-2.86 9.82,-4.35 6.66,-3.01 13.35,-6.2 20.06,-9.45 2.6,-1.26 5.19,-2.45 7.8,-3.75 9.29,-4.62 18.62,-9.43 28,-14.5 8.11,-4.38 16.25,-8.92 24.43,-13.63 5.81,-3.36 11.57,-6.93 17.36,-10.41 5.68,-3.44 11.37,-6.87 17.02,-10.43 4.46,-2.81 8.87,-5.7 13.3,-8.58 5.87,-3.82 11.74,-7.65 17.57,-11.61 4.39,-2.97 8.74,-6.01 13.1,-9.04 5.99,-4.18 11.96,-8.41 17.91,-12.73 4.26,-3.09 8.51,-6.23 12.76,-9.39 6.32,-4.72 12.6,-9.52 18.87,-14.39 4.01,-3.11 8.03,-6.22 12.01,-9.39 7.18,-5.72 14.31,-11.57 21.42,-17.48 3.2,-2.67 6.42,-5.27 9.6,-7.97 10.32,-8.74 20.55,-17.64 30.69,-26.77 1.24,-1.11 2.45,-2.27 3.68,-3.4 8.94,-8.1 17.81,-16.34 26.6,-24.73 3.39,-3.24 6.73,-6.55 10.1,-9.82 6.56,-6.38 13.1,-12.81 19.57,-19.35 3.73,-3.76 7.43,-7.57 11.13,-11.38 5.88,-6.06 11.72,-12.19 17.53,-18.37 3.7,-3.94 7.39,-7.89 11.07,-11.87 5.81,-6.32 11.55,-12.73 17.28,-19.16 3.41,-3.83 6.85,-7.64 10.23,-11.52 6.33,-7.25 12.59,-14.63 18.83,-22.03 2.63,-3.12 5.31,-6.19 7.91,-9.34 9.01,-10.84 17.9,-21.82 26.67,-32.94 1.38,-1.75 2.72,-3.55 4.09,-5.3 8.37,-10.7 16.64,-21.54 24.78,-32.48 3.57,-4.78 7.11,-9.59 10.64,-14.42 3.44,-4.72 6.87,-9.44 10.28,-14.21 3.96,-5.56 7.89,-11.15 11.8,-16.76 3.33,-4.77 6.66,-9.55 9.94,-14.36 2.71,-3.98 5.37,-7.98 8.04,-11.98 8.24,-12.27 16.34,-24.65 24.29,-37.14 1.58,-2.49 3.2,-4.97 4.78,-7.47 9.08,-14.42 17.93,-29 26.6,-43.69 3.09,-5.23 6.14,-10.5 9.18,-15.76 3.07,-5.32 6.15,-10.64 9.17,-15.99 3.3,-5.86 6.54,-11.76 9.78,-17.65 2.96,-5.39 5.93,-10.78 8.83,-16.2 2.46,-4.58 4.85,-9.2 7.28,-13.8 4.66,-8.9 9.27,-17.82 13.79,-26.78 2.5,-4.94 4.98,-9.89 7.42,-14.86 3.49,-7.1 6.93,-14.22 10.33,-21.36 2.55,-5.34 5.09,-10.67 7.58,-16.03 2.93,-6.32 5.79,-12.66 8.65,-19 2.56,-5.7 5.13,-11.4 7.63,-17.11 2.56,-5.85 5.05,-11.72 7.54,-17.59 2.52,-5.92 5.03,-11.86 7.48,-17.82 2.48,-6.03 4.88,-12.08 7.29,-18.12 2.34,-5.89 4.68,-11.77 6.95,-17.67 2.41,-6.25 4.73,-12.51 7.06,-18.77 2.14,-5.78 4.29,-11.56 6.37,-17.35 2.45,-6.84 4.81,-13.69 7.16,-20.54 1.89,-5.49 3.8,-10.99 5.63,-16.48 2.43,-7.35 4.74,-14.69 7.07,-22.04 1.61,-5.12 3.27,-10.23 4.82,-15.34 2.61,-8.56 5.07,-17.13 7.51,-25.7 1.31,-4.6 2.71,-9.2 3.98,-13.8 l 211.08,-121.86 c 7.99,-4.61 15.92,-9.45 23.81,-14.44 l 1.48,-0.92 c 7.72,-4.9 15.37,-10.02 22.98,-15.27 2.59,-1.79 5.16,-3.67 7.73,-5.5 5.1,-3.61 10.19,-7.26 15.25,-11.02 3.08,-2.31 6.14,-4.68 9.22,-7.03 4.55,-3.51 9.1,-7.04 13.61,-10.67 3.3,-2.64 6.58,-5.34 9.86,-8.05 4.32,-3.57 8.61,-7.18 12.88,-10.86 3.36,-2.89 6.71,-5.81 10.05,-8.76 4.18,-3.71 8.34,-7.48 12.48,-11.29 3.33,-3.07 6.65,-6.15 9.96,-9.27 4.19,-3.97 8.35,-8.02 12.5,-12.09 3.06,-3.01 6.14,-6.01 9.16,-9.06 4.3,-4.33 8.54,-8.74 12.78,-13.18 2.79,-2.92 5.6,-5.81 8.37,-8.78 4.9,-5.24 9.73,-10.6 14.56,-15.98 1.93,-2.16 3.9,-4.27 5.82,-6.46 6.77,-7.68 13.46,-15.48 20.05,-23.41 0.99,-1.2 1.96,-2.45 2.96,-3.66 5.59,-6.78 11.15,-13.64 16.61,-20.59 6.9,-8.8 13.71,-17.72 20.38,-26.77 l 0.42,-0.55 c 9.52,-12.91 18.71,-26.14 27.73,-39.5 2.13,-3.15 4.28,-6.29 6.38,-9.46 3.24,-4.91 6.44,-9.88 9.61,-14.85 2.85,-4.45 5.7,-8.9 8.5,-13.4 3.12,-5.02 6.17,-10.1 9.22,-15.17 2.51,-4.19 5.04,-8.37 7.5,-12.59 7.26,-12.42 14.31,-24.96 21.11,-37.63 2.49,-4.62 4.88,-9.29 7.3,-13.95 2.54,-4.88 5.11,-9.76 7.58,-14.68 3.48,-6.92 6.86,-13.88 10.2,-20.87 1.07,-2.24 2.19,-4.48 3.26,-6.74 4.23,-9 8.33,-18.05 12.31,-27.13 1.06,-2.41 2.06,-4.82 3.1,-7.23 2.91,-6.75 5.75,-13.52 8.52,-20.29 1.26,-3.1 2.5,-6.2 3.73,-9.3 2.6,-6.53 5.12,-13.09 7.59,-19.64 1.06,-2.8 2.13,-5.6 3.16,-8.42 3.16,-8.62 6.21,-17.26 9.13,-25.92 l 0.76,-2.17 c 3.14,-9.39 6.11,-18.78 8.96,-28.18 0.92,-3.01 1.76,-6.03 2.65,-9.04 1.9,-6.49 3.76,-12.98 5.53,-19.46 0.96,-3.58 1.88,-7.15 2.81,-10.73 1.57,-6.04 3.08,-12.08 4.52,-18.12 0.85,-3.57 1.69,-7.15 2.5,-10.72 1.4,-6.21 2.72,-12.41 3.98,-18.62 0.67,-3.28 1.36,-6.56 2,-9.83 1.56,-8.16 3,-16.31 4.33,-24.44 0.18,-1.13 0.4,-2.27 0.59,-3.39 1.46,-9.27 2.73,-18.5 3.88,-27.7 0.32,-2.61 0.57,-5.22 0.86,-7.84 0.75,-6.59 1.43,-13.16 2.01,-19.73 0.27,-3.14 0.51,-6.29 0.74,-9.44 0.47,-6.22 0.84,-12.43 1.14,-18.61 0.15,-2.98 0.31,-5.97 0.42,-8.94 0.31,-8.79 0.52,-17.54 0.49,-26.23 l -0.11,-38.29 c -0.02,-9.12 -0.27,-18.06 -0.67,-26.85 -0.11,-2.49 -0.31,-4.89 -0.45,-7.34 -0.35,-6.05 -0.75,-12.06 -1.28,-17.96 -0.3,-3.41 -0.68,-6.75 -1.04,-10.1 -0.54,-4.98 -1.12,-9.93 -1.78,-14.79 -0.5,-3.59 -1.04,-7.13 -1.59,-10.65 -0.72,-4.49 -1.48,-8.91 -2.3,-13.29 -0.74,-3.93 -1.52,-7.83 -2.34,-11.68 -0.85,-3.94 -1.74,-7.83 -2.68,-11.69 -1.09,-4.52 -2.26,-8.98 -3.48,-13.37 -0.96,-3.45 -1.93,-6.87 -2.96,-10.23 -1.62,-5.28 -3.35,-10.44 -5.15,-15.53 -0.98,-2.74 -1.9,-5.52 -2.92,-8.21 -3.24,-8.54 -6.71,-16.84 -10.46,-24.8 -2.9,-6.16 -5.93,-12.15 -9.11,-17.94 l -0.06,-0.11 c -3.27,-5.93 -6.71,-11.64 -10.28,-17.19 -0.72,-1.11 -1.48,-2.17 -2.21,-3.26 -2.71,-4.1 -5.51,-8.11 -8.39,-11.99 -1.16,-1.56 -2.34,-3.11 -3.53,-4.63 -2.74,-3.53 -5.54,-6.94 -8.4,-10.28 -1.11,-1.27 -2.18,-2.58 -3.29,-3.83 -3.95,-4.42 -7.99,-8.68 -12.17,-12.75 l -1.83,-1.67 c -3.65,-3.47 -7.38,-6.8 -11.21,-10.02 -1.38,-1.17 -2.81,-2.29 -4.23,-3.42 -3.27,-2.63 -6.6,-5.16 -10,-7.59 -1.4,-1.01 -2.79,-2.04 -4.21,-3.02 -4.74,-3.23 -9.55,-6.36 -14.5,-9.23 l 70.48,40.96 c 4.95,2.87 9.76,6 14.49,9.23 1.43,0.97 2.82,2.01 4.22,3.02 3.4,2.43 6.73,4.96 10.01,7.58 1.42,1.14 2.83,2.26 4.23,3.43 3.82,3.21 7.56,6.54 11.2,10.02 l 1.83,1.67 c 4.18,4.06 8.22,8.33 12.17,12.74 1.12,1.25 2.18,2.56 3.29,3.84 2.86,3.33 5.66,6.75 8.4,10.28 1.19,1.53 2.37,3.06 3.53,4.63 2.88,3.88 5.67,7.89 8.39,11.99 0.73,1.1 1.49,2.15 2.21,3.26 l 0.66,0.97 c 3.34,5.24 6.54,10.64 9.62,16.22 l 0.06,0.1 c 3.04,5.54 5.96,11.23 8.75,17.09 l 0.36,0.85 c 3.75,7.96 7.22,16.26 10.46,24.81 l 0.9,2.13 c 0.73,1.96 1.32,4.09 2.02,6.08 1.8,5.1 3.53,10.25 5.14,15.53 0.43,1.4 0.96,2.7 1.37,4.12 0.59,1.97 1.04,4.09 1.59,6.09 1.22,4.42 2.4,8.87 3.5,13.41 0.44,1.85 0.99,3.59 1.42,5.45 0.45,2.02 0.81,4.16 1.25,6.2 0.82,3.87 1.6,7.77 2.34,11.71 0.38,2.02 0.85,3.96 1.2,6 0.42,2.37 0.71,4.87 1.09,7.27 0.56,3.53 1.1,7.07 1.6,10.66 0.24,1.82 0.57,3.57 0.81,5.42 0.38,3.06 0.63,6.26 0.96,9.37 0.37,3.35 0.75,6.69 1.05,10.1 0.13,1.37 0.3,2.67 0.42,4.05 0.37,4.56 0.59,9.26 0.86,13.91 0.14,2.45 0.34,4.85 0.46,7.33 l 0.1,1.83 c 0.34,7.74 0.52,15.62 0.56,23.62 v 1.41 l 0.11,38.29 c 0.03,7.31 -0.08,14.67 -0.29,22.05" style="fill:#41507e;fill-opacity:1;fill-rule:nonzero;stroke:none" id="path18"/>
    <path d="m 8279.34,4913.03 c -0.04,1.39 -0.14,2.79 -0.2,4.18 -0.1,2.98 -0.26,5.98 -0.41,8.97 -0.17,3.49 -0.27,6.97 -0.5,10.48 -0.16,2.68 -0.44,5.39 -0.63,8.08 -0.24,3.15 -0.48,6.31 -0.76,9.47 -0.18,2.07 -0.3,4.13 -0.49,6.21 -0.43,4.48 -1,8.99 -1.51,13.48 -0.29,2.63 -0.54,5.24 -0.86,7.87 l -0.3,2.58 c -1.03,8.15 -2.19,16.34 -3.48,24.54 l -0.1,0.53 c -0.19,1.21 -0.43,2.42 -0.63,3.63 -1.11,6.84 -2.26,13.67 -3.54,20.53 -0.24,1.23 -0.52,2.46 -0.75,3.69 -0.64,3.28 -1.33,6.56 -2,9.84 -0.82,3.99 -1.56,7.96 -2.43,11.95 -0.49,2.21 -1.05,4.44 -1.55,6.66 -0.81,3.57 -1.65,7.14 -2.5,10.72 -0.65,2.73 -1.24,5.47 -1.91,8.21 -0.81,3.28 -1.74,6.57 -2.59,9.87 -0.94,3.6 -1.87,7.19 -2.84,10.8 -0.48,1.75 -0.9,3.5 -1.38,5.25 -1.3,4.68 -2.73,9.37 -4.1,14.04 -0.9,3.07 -1.76,6.15 -2.7,9.21 l -0.74,2.56 c -2.59,8.43 -5.28,16.85 -8.1,25.26 l -0.1,0.3 -0.83,2.36 c -2.5,7.42 -5.07,14.83 -7.75,22.24 -0.43,1.18 -0.89,2.34 -1.32,3.52 -1.03,2.8 -2.1,5.6 -3.16,8.41 -1.5,3.99 -2.96,8 -4.5,11.99 -1,2.55 -2.06,5.09 -3.08,7.64 -1.23,3.1 -2.48,6.19 -3.74,9.29 -0.92,2.26 -1.79,4.54 -2.73,6.8 -1.88,4.51 -3.84,8.98 -5.77,13.47 -1.05,2.43 -2.06,4.86 -3.13,7.29 l -1.08,2.52 c -3.49,7.89 -7.07,15.76 -10.74,23.59 l -0.48,0.98 c -1.07,2.28 -2.2,4.53 -3.28,6.79 -2.88,6.02 -5.74,12.03 -8.72,18.01 -0.47,0.95 -0.98,1.88 -1.46,2.83 -2.46,4.91 -5.03,9.79 -7.58,14.67 -2.04,3.94 -4.01,7.91 -6.1,11.83 l -1.19,2.11 c -6.8,12.67 -13.85,25.21 -21.12,37.63 -0.6,1.06 -1.16,2.14 -1.78,3.19 -1.86,3.16 -3.82,6.25 -5.71,9.38 -3.04,5.09 -6.1,10.17 -9.23,15.2 -2.79,4.49 -5.64,8.94 -8.49,13.39 -3.18,4.97 -6.36,9.93 -9.61,14.84 -1.07,1.63 -2.1,3.3 -3.18,4.92 -1.04,1.54 -2.16,3.01 -3.2,4.55 -9.02,13.36 -18.21,26.59 -27.73,39.5 l -0.01,0.02 -0.27,0.34 c -6.71,9.12 -13.57,18.09 -20.52,26.96 l -0.92,1.21 c -5.13,6.51 -10.35,12.91 -15.61,19.28 -1.02,1.25 -2.01,2.52 -3.04,3.76 l -0.19,0.24 c -6.21,7.47 -12.51,14.83 -18.88,22.09 l -0.95,1.05 c -1.97,2.23 -3.97,4.39 -5.95,6.6 -4.02,4.49 -8.03,9.01 -12.11,13.41 l -2.32,2.44 c -2.79,2.98 -5.62,5.89 -8.42,8.83 -3.09,3.23 -6.13,6.51 -9.25,9.68 -1.15,1.17 -2.33,2.3 -3.5,3.46 -3.03,3.06 -6.11,6.07 -9.18,9.09 -2.65,2.6 -5.25,5.26 -7.92,7.82 -1.51,1.45 -3.05,2.81 -4.57,4.25 -3.3,3.12 -6.63,6.2 -9.96,9.27 -2.32,2.13 -4.6,4.34 -6.93,6.44 -1.83,1.65 -3.7,3.21 -5.53,4.83 -3.34,2.96 -6.69,5.88 -10.06,8.77 -2.05,1.76 -4.07,3.61 -6.13,5.35 -2.22,1.87 -4.48,3.63 -6.71,5.48 -3.29,2.72 -6.59,5.43 -9.91,8.09 -1.71,1.38 -3.4,2.82 -5.12,4.18 -2.79,2.2 -5.63,4.28 -8.43,6.44 -3.09,2.36 -6.17,4.74 -9.26,7.06 -1.26,0.94 -2.49,1.93 -3.75,2.86 -3.78,2.78 -7.61,5.41 -11.42,8.1 -2.61,1.86 -5.19,3.75 -7.81,5.57 l -2.01,1.43 c -6.88,4.71 -13.8,9.28 -20.75,13.71 l -0.18,0.11 -1.55,0.95 c -6.29,3.98 -12.6,7.86 -18.95,11.6 -1.6,0.94 -3.2,1.88 -4.8,2.8 l -211.14,121.9 c -0.29,1.07 -0.58,2.13 -0.88,3.18 -0.99,3.59 -2.11,7.16 -3.14,10.75 -2.43,8.53 -4.88,17.07 -7.48,25.6 -0.3,1.03 -0.58,2.04 -0.89,3.06 -1.25,4.08 -2.64,8.15 -3.92,12.24 -2.33,7.38 -4.65,14.76 -7.1,22.13 -0.48,1.44 -0.9,2.89 -1.38,4.32 -1.35,4.01 -2.82,8.02 -4.2,12.03 -2.36,6.89 -4.74,13.77 -7.2,20.66 -0.63,1.77 -1.22,3.55 -1.86,5.33 -1.45,3.98 -3.01,7.96 -4.48,11.94 -2.34,6.28 -4.67,12.57 -7.08,18.84 -0.76,1.93 -1.44,3.88 -2.19,5.82 -1.54,3.94 -3.18,7.85 -4.74,11.78 -2.42,6.07 -4.83,12.14 -7.32,18.2 -0.82,1.98 -1.58,3.97 -2.41,5.97 -1.64,3.94 -3.38,7.86 -5.05,11.79 -2.49,5.88 -4.98,11.76 -7.55,17.62 -0.86,1.97 -1.67,3.96 -2.54,5.93 -1.65,3.74 -3.41,7.45 -5.09,11.18 -2.85,6.34 -5.71,12.68 -8.65,18.99 -0.97,2.1 -1.89,4.22 -2.87,6.31 -1.53,3.26 -3.16,6.48 -4.7,9.72 -3.4,7.14 -6.84,14.27 -10.33,21.37 -1.23,2.5 -2.4,5.02 -3.65,7.52 -1.22,2.45 -2.53,4.87 -3.76,7.32 -4.54,8.98 -9.15,17.92 -13.83,26.84 -1.52,2.88 -2.94,5.8 -4.48,8.67 -0.89,1.7 -1.84,3.37 -2.75,5.06 -2.93,5.46 -5.92,10.88 -8.91,16.31 -3.21,5.85 -6.42,11.7 -9.7,17.52 -3.03,5.38 -6.13,10.73 -9.22,16.08 -2.23,3.86 -4.4,7.76 -6.65,11.61 -0.81,1.38 -1.68,2.72 -2.49,4.09 -8.68,14.7 -17.54,29.29 -26.62,43.73 -1.56,2.46 -3.16,4.9 -4.72,7.36 -7.97,12.53 -16.1,24.95 -24.36,37.25 -1.37,2.05 -2.67,4.16 -4.05,6.2 -1.3,1.92 -2.64,3.79 -3.94,5.7 -3.31,4.84 -6.65,9.65 -10,14.45 -3.9,5.6 -7.82,11.17 -11.77,16.71 -3.4,4.75 -6.83,9.48 -10.27,14.2 -2.26,3.09 -4.47,6.25 -6.75,9.32 -1.27,1.73 -2.61,3.39 -3.89,5.11 -8.15,10.94 -16.42,21.77 -24.78,32.48 -1.1,1.4 -2.15,2.84 -3.25,4.24 l -0.84,1.05 c -8.78,11.12 -17.67,22.1 -26.69,32.96 l -1.21,1.5 c -2.16,2.61 -4.4,5.12 -6.59,7.7 -6.27,7.44 -12.55,14.86 -18.92,22.15 -0.98,1.12 -1.93,2.29 -2.91,3.4 -2.4,2.73 -4.87,5.36 -7.28,8.08 -5.75,6.45 -11.51,12.87 -17.34,19.21 -1.55,1.68 -3.05,3.42 -4.6,5.09 -2.12,2.29 -4.3,4.48 -6.43,6.74 -5.81,6.19 -11.66,12.33 -17.55,18.39 -2.09,2.15 -4.13,4.38 -6.23,6.52 -1.6,1.64 -3.26,3.2 -4.87,4.83 -6.5,6.55 -13.04,13 -19.61,19.39 -2.42,2.35 -4.79,4.8 -7.22,7.13 -0.93,0.91 -1.91,1.76 -2.86,2.67 -8.76,8.36 -17.6,16.56 -26.49,24.64 -1.13,1.01 -2.23,2.1 -3.35,3.11 l -0.44,0.38 c -10.14,9.13 -20.38,18.04 -30.69,26.78 l -2.05,1.79 c -2.49,2.09 -5.02,4.05 -7.51,6.13 -7.13,5.92 -14.26,11.79 -21.46,17.52 -1.47,1.16 -2.89,2.39 -4.36,3.55 -2.54,2 -5.11,3.87 -7.66,5.84 -6.26,4.87 -12.54,9.67 -18.86,14.38 -2.09,1.56 -4.15,3.22 -6.25,4.76 -2.16,1.6 -4.36,3.07 -6.52,4.64 -5.95,4.32 -11.93,8.56 -17.91,12.74 -2.6,1.8 -5.16,3.73 -7.77,5.5 -1.75,1.22 -3.55,2.33 -5.32,3.52 -5.85,3.97 -11.73,7.82 -17.62,11.65 -2.99,1.94 -5.95,4 -8.96,5.92 -1.42,0.9 -2.86,1.73 -4.29,2.63 -5.67,3.56 -11.38,7.01 -17.08,10.45 -3.35,2.03 -6.67,4.16 -10.04,6.15 -2.42,1.42 -4.85,2.84 -7.28,4.25 -7.94,4.58 -15.85,9 -23.73,13.27 l -0.71,0.37 c -9.38,5.06 -18.71,9.88 -28,14.5 l -1.68,0.87 c -2.08,1.02 -4.13,1.91 -6.21,2.93 -6.7,3.24 -13.39,6.41 -20.03,9.43 -1.28,0.58 -2.57,1.24 -3.84,1.81 -2.01,0.9 -3.99,1.66 -5.98,2.54 -6.15,2.69 -12.26,5.29 -18.37,7.79 -1.86,0.76 -3.76,1.64 -5.62,2.38 -1.4,0.56 -2.77,1.02 -4.16,1.58 -6.71,2.63 -13.38,5.12 -20.03,7.54 -1.95,0.7 -3.92,1.51 -5.86,2.19 l -1.76,0.58 c -9.23,3.23 -18.41,6.24 -27.52,9.01 l -1.03,0.34 c -7.1,2.14 -14.16,4.15 -21.19,6.03 -0.26,0.93 -0.51,1.86 -0.78,2.79 -1.07,3.89 -2.29,7.78 -3.4,11.66 -3.02,10.64 -6.07,21.26 -9.31,31.9 -0.32,1.06 -0.61,2.13 -0.93,3.19 -1.5,4.88 -3.15,9.76 -4.7,14.64 -2.79,8.86 -5.57,17.7 -8.51,26.55 -0.52,1.56 -0.99,3.14 -1.51,4.71 -1.63,4.85 -3.4,9.7 -5.07,14.55 -2.84,8.22 -5.66,16.44 -8.6,24.66 -0.7,1.95 -1.35,3.92 -2.05,5.88 -1.78,4.88 -3.68,9.74 -5.5,14.62 -2.75,7.43 -5.5,14.85 -8.36,22.26 -0.83,2.15 -1.59,4.31 -2.43,6.46 -1.88,4.84 -3.89,9.65 -5.82,14.47 -2.86,7.2 -5.72,14.38 -8.67,21.55 -0.91,2.22 -1.76,4.46 -2.69,6.67 -2,4.83 -4.14,9.62 -6.18,14.44 -2.97,6.99 -5.93,13.99 -8.98,20.96 -0.97,2.21 -1.87,4.44 -2.84,6.63 -2.02,4.55 -4.15,9.07 -6.2,13.6 -3.38,7.53 -6.77,15.05 -10.26,22.55 -1.09,2.35 -2.12,4.73 -3.22,7.09 -1.86,3.94 -3.83,7.85 -5.71,11.79 -4.04,8.46 -8.1,16.91 -12.25,25.32 -1.4,2.84 -2.71,5.69 -4.11,8.51 -1.51,3.02 -3.13,6 -4.65,9.01 -5.26,10.44 -10.62,20.83 -16.05,31.19 -1.79,3.4 -3.47,6.84 -5.28,10.24 -1.19,2.25 -2.45,4.46 -3.66,6.71 -3.38,6.32 -6.84,12.59 -10.28,18.87 -3.86,7.03 -7.74,14.06 -11.68,21.05 -3.52,6.25 -7.1,12.46 -10.69,18.68 -2.46,4.26 -4.84,8.56 -7.32,12.8 -1.08,1.82 -2.23,3.6 -3.3,5.43 -10.38,17.58 -20.95,35.04 -31.8,52.31 -1.51,2.4 -3.08,4.77 -4.61,7.17 -9.74,15.36 -19.7,30.56 -29.8,45.65 -1.6,2.38 -3.11,4.84 -4.71,7.21 -1.69,2.49 -3.43,4.92 -5.13,7.4 -3.97,5.84 -8,11.62 -12.04,17.41 -4.57,6.57 -9.16,13.11 -13.81,19.6 -4.11,5.75 -8.25,11.48 -12.41,17.18 -2.55,3.49 -5.03,7.03 -7.59,10.5 -1.55,2.1 -3.18,4.12 -4.74,6.21 -9.57,12.85 -19.26,25.57 -29.09,38.13 -1.42,1.81 -2.78,3.7 -4.19,5.5 l -1.2,1.46 c -10.44,13.25 -21.04,26.34 -31.76,39.25 l -1.38,1.69 c -2.58,3.11 -5.24,6.1 -7.83,9.17 -7.43,8.82 -14.89,17.61 -22.45,26.26 -1.13,1.28 -2.21,2.62 -3.33,3.9 -2.86,3.26 -5.81,6.39 -8.68,9.62 -6.83,7.68 -13.69,15.3 -20.61,22.83 -1.79,1.96 -3.54,3.97 -5.33,5.91 -2.54,2.73 -5.15,5.35 -7.7,8.07 -6.91,7.36 -13.85,14.65 -20.86,21.86 -2.45,2.52 -4.84,5.15 -7.3,7.66 -1.95,1.98 -3.97,3.88 -5.92,5.85 -7.66,7.73 -15.38,15.33 -23.13,22.88 -2.89,2.79 -5.7,5.7 -8.58,8.48 -1.15,1.1 -2.34,2.14 -3.49,3.25 -10.2,9.72 -20.48,19.27 -30.83,28.67 -1.52,1.38 -2.99,2.82 -4.51,4.19 l -0.62,0.54 c -12.02,10.83 -24.17,21.39 -36.41,31.76 l -2.36,2.06 c -2.91,2.46 -5.9,4.77 -8.82,7.2 -8.52,7.08 -17.05,14.1 -25.66,20.95 -1.7,1.36 -3.37,2.8 -5.08,4.15 -3,2.36 -6.06,4.57 -9.06,6.9 -7.47,5.81 -14.97,11.55 -22.5,17.16 -2.47,1.84 -4.88,3.78 -7.34,5.59 -2.56,1.88 -5.16,3.64 -7.73,5.51 -7.08,5.13 -14.19,10.17 -21.32,15.14 -3.07,2.14 -6.08,4.41 -9.16,6.51 -2.1,1.44 -4.24,2.76 -6.34,4.18 -6.93,4.7 -13.91,9.27 -20.89,13.81 -3.55,2.31 -7.07,4.76 -10.63,7.02 -1.7,1.09 -3.42,2.08 -5.12,3.14 -6.72,4.24 -13.48,8.31 -20.23,12.39 -3.99,2.4 -7.93,4.95 -11.93,7.3 -2.88,1.7 -5.77,3.38 -8.66,5.05 -8.66,5 -17.29,9.8 -25.91,14.49 l -2.25,1.26 c -1.29,0.7 -2.57,1.31 -3.87,2.01 -9.65,5.17 -19.25,10.15 -28.82,14.92 -1.19,0.6 -2.4,1.28 -3.6,1.87 l -1.57,0.74 c -10.45,5.15 -20.86,10.03 -31.23,14.72 -1,0.45 -2.03,0.97 -3.03,1.42 -1.3,0.59 -2.59,1.08 -3.89,1.65 -10.42,4.61 -20.79,9.06 -31.1,13.2 l -0.41,0.17 -0.1,0.03 c -10.71,4.3 -21.34,8.24 -31.92,12.02 -1.25,0.44 -2.5,0.97 -3.75,1.41 -0.93,0.32 -1.84,0.58 -2.78,0.91 -10.32,3.59 -20.59,6.96 -30.79,10.06 l -1.89,0.63 c -1.12,0.33 -2.21,0.58 -3.32,0.91 -10.8,3.21 -21.53,6.21 -32.16,8.87 l -1.07,0.3 -0.32,0.08 c -11.2,2.78 -22.28,5.19 -33.3,7.39 -1.06,0.2 -2.15,0.51 -3.21,0.71 -1.05,0.21 -2.08,0.36 -3.13,0.56 -2.88,0.54 -5.75,1.04 -8.62,1.55 -3.79,0.66 -7.57,1.32 -11.34,1.91 -2.89,0.46 -5.77,0.88 -8.64,1.3 -2.1,0.31 -4.22,0.67 -6.31,0.95 -1.51,0.21 -2.99,0.34 -4.5,0.53 -3.33,0.43 -6.65,0.82 -9.96,1.18 -3.4,0.38 -6.78,0.74 -10.16,1.05 -3.3,0.32 -6.59,0.6 -9.87,0.85 -1.83,0.15 -3.69,0.35 -5.52,0.47 -1.43,0.1 -2.82,0.13 -4.24,0.22 -3.7,0.23 -7.4,0.41 -11.07,0.56 -3.1,0.13 -6.19,0.26 -9.26,0.34 -3.67,0.09 -7.31,0.13 -10.95,0.15 -1.98,0.02 -4.01,0.1 -5.99,0.09 -0.96,0 -1.89,-0.06 -2.84,-0.07 -4.94,-0.05 -9.84,-0.19 -14.73,-0.37 -2.13,-0.08 -4.27,-0.12 -6.39,-0.21 -6.96,-0.35 -13.88,-0.8 -20.73,-1.42 l -0.25,-0.01 -1.15,-0.14 c -7.33,-0.67 -14.57,-1.54 -21.77,-2.53 -2.17,-0.3 -4.33,-0.62 -6.48,-0.94 -6.16,-0.93 -12.26,-1.97 -18.31,-3.13 -1.14,-0.21 -2.31,-0.36 -3.45,-0.58 l -1.03,-0.25 c -9.23,-1.84 -18.31,-4.01 -27.29,-6.39 -1.6,-0.42 -3.21,-0.84 -4.8,-1.28 -8.8,-2.44 -17.46,-5.12 -26.01,-8.06 l -1.91,-0.6 c -1.46,-0.5 -2.88,-1.1 -4.34,-1.62 -3.75,-1.35 -7.48,-2.75 -11.18,-4.21 -2.36,-0.92 -4.71,-1.86 -7.04,-2.83 -3.7,-1.52 -7.36,-3.11 -11,-4.73 -2.21,-0.99 -4.44,-1.97 -6.63,-2.99 -3.92,-1.83 -7.79,-3.74 -11.64,-5.69 -1.83,-0.92 -3.68,-1.8 -5.5,-2.76 -5.63,-2.94 -11.2,-5.98 -16.68,-9.16 L 3471.22,7065.79 c 5.48,3.19 11.05,6.23 16.68,9.16 1.82,0.96 3.68,1.84 5.51,2.77 3.85,1.94 7.71,3.86 11.62,5.68 2.2,1.03 4.43,2 6.65,2.99 3.64,1.62 7.3,3.21 10.99,4.74 2.33,0.96 4.67,1.9 7.03,2.83 3.71,1.45 7.44,2.85 11.2,4.21 2.08,0.74 4.15,1.49 6.24,2.21 8.54,2.94 17.22,5.62 26.01,8.06 1.59,0.44 3.2,0.86 4.8,1.28 8.97,2.38 18.06,4.55 27.28,6.4 1.49,0.3 3,0.54 4.49,0.83 6.06,1.16 12.16,2.19 18.31,3.12 2.16,0.32 4.31,0.65 6.48,0.95 6.97,0.95 14.01,1.79 21.12,2.45 l -874.08,-507.95 c 7.39,4.29 14.99,8.19 22.74,11.83 2.54,1.19 5.18,2.18 7.75,3.3 5.31,2.29 10.64,4.56 16.1,6.55 4.43,1.62 8.94,3.06 13.46,4.47 2.73,0.86 5.41,1.8 8.17,2.57 5.66,1.6 11.43,2.96 17.24,4.24 1.88,0.42 3.71,0.95 5.61,1.34 7.18,1.45 14.5,2.62 21.9,3.6 1.97,0.27 3.96,0.48 5.94,0.7 6.75,0.79 13.56,1.43 20.47,1.81 l 2.08,0.15 c 6.96,0.34 14.04,0.38 21.15,0.32 5.11,-0.04 10.3,-0.26 15.49,-0.51 4.19,-0.19 8.36,-0.35 12.59,-0.68 4.35,-0.34 8.75,-0.85 13.14,-1.34 4.79,-0.53 9.57,-1.04 14.41,-1.75 4.08,-0.58 8.2,-1.32 12.31,-2.02 5.19,-0.9 10.38,-1.82 15.63,-2.91 3.54,-0.73 7.11,-1.55 10.69,-2.37 5.58,-1.29 11.19,-2.68 16.83,-4.19 3.58,-0.95 7.15,-1.93 10.75,-2.96 6.13,-1.78 12.31,-3.71 18.52,-5.74 2.93,-0.97 5.84,-1.87 8.79,-2.88 18.26,-6.31 36.82,-13.73 55.63,-22.28 2.91,-1.33 5.85,-2.75 8.77,-4.13 6.62,-3.12 13.27,-6.37 19.95,-9.77 3.28,-1.67 6.57,-3.37 9.87,-5.11 8.85,-4.67 17.72,-9.46 26.66,-14.61 v 0 l 811.3,471.47 c 3.58,-1.72 7.13,-3.29 10.73,-5.06 1.7,-0.84 3.42,-1.72 5.13,-2.58 9.57,-4.78 19.19,-9.77 28.84,-14.95 2.04,-1.09 4.08,-2.14 6.12,-3.26 8.61,-4.68 17.24,-9.49 25.91,-14.49 6.9,-3.98 13.73,-8.21 20.58,-12.34 6.76,-4.08 13.52,-8.17 20.24,-12.4 5.27,-3.32 10.51,-6.75 15.76,-10.16 6.97,-4.53 13.94,-9.09 20.87,-13.79 5.19,-3.52 10.36,-7.11 15.53,-10.72 7.11,-4.96 14.21,-9.99 21.27,-15.12 5.05,-3.66 10.09,-7.37 15.11,-11.11 7.52,-5.62 15,-11.34 22.46,-17.13 4.73,-3.67 9.48,-7.34 14.18,-11.09 8.6,-6.84 17.13,-13.85 25.64,-20.92 3.72,-3.11 7.48,-6.14 11.19,-9.28 12.24,-10.36 24.39,-20.94 36.42,-31.77 1.69,-1.52 3.35,-3.11 5.03,-4.65 10.39,-9.42 20.7,-18.99 30.92,-28.75 4.04,-3.85 8.03,-7.79 12.04,-11.7 7.77,-7.56 15.51,-15.17 23.17,-22.91 4.43,-4.46 8.83,-8.97 13.21,-13.49 6.99,-7.21 13.94,-14.5 20.84,-21.85 4.37,-4.65 8.74,-9.31 13.07,-14.01 6.9,-7.51 13.73,-15.12 20.54,-22.77 4.03,-4.52 8.08,-9.01 12.07,-13.58 7.55,-8.63 14.99,-17.4 22.41,-26.21 3.07,-3.64 6.19,-7.23 9.24,-10.9 10.72,-12.91 21.32,-26 31.77,-39.25 1.81,-2.29 3.57,-4.65 5.38,-6.95 9.83,-12.57 19.52,-25.29 29.09,-38.14 4.13,-5.54 8.25,-11.12 12.34,-16.72 4.15,-5.69 8.29,-11.39 12.39,-17.13 4.66,-6.53 9.27,-13.1 13.86,-19.68 4.01,-5.76 8.02,-11.52 11.99,-17.32 3.32,-4.88 6.58,-9.79 9.87,-14.69 10.1,-15.06 20.04,-30.26 29.77,-45.6 1.53,-2.41 3.1,-4.77 4.62,-7.19 10.85,-17.26 21.42,-34.71 31.79,-52.29 3.58,-6.06 7.12,-12.16 10.64,-18.26 3.58,-6.21 7.16,-12.41 10.68,-18.66 3.95,-7.01 7.83,-14.06 11.7,-21.11 3.44,-6.25 6.87,-12.5 10.24,-18.78 3.04,-5.66 6,-11.35 8.98,-17.04 5.42,-10.33 10.77,-20.68 16.01,-31.09 2.96,-5.85 5.9,-11.72 8.8,-17.6 4.13,-8.39 8.19,-16.8 12.2,-25.23 3.01,-6.32 6.03,-12.63 8.98,-18.98 3.47,-7.47 6.85,-14.96 10.22,-22.46 3.05,-6.76 6.1,-13.51 9.07,-20.29 3.05,-6.97 6.01,-13.97 8.98,-20.96 2.98,-7.02 5.96,-14.03 8.85,-21.07 2.96,-7.19 5.82,-14.4 8.69,-21.6 2.77,-6.97 5.55,-13.93 8.24,-20.9 2.85,-7.41 5.6,-14.83 8.36,-22.24 2.54,-6.86 5.1,-13.7 7.56,-20.56 2.93,-8.17 5.74,-16.35 8.55,-24.54 2.23,-6.45 4.48,-12.91 6.63,-19.37 2.92,-8.82 5.7,-17.66 8.49,-26.49 1.88,-5.95 3.82,-11.91 5.64,-17.87 3.22,-10.58 6.26,-21.16 9.27,-31.75 1.39,-4.86 2.88,-9.73 4.22,-14.6 7.37,-1.96 14.77,-4.11 22.22,-6.36 9.12,-2.78 18.29,-5.79 27.53,-9.02 2.51,-0.88 5.05,-1.85 7.58,-2.76 6.66,-2.41 13.34,-4.91 20.05,-7.55 3.26,-1.29 6.54,-2.63 9.81,-3.96 6.08,-2.49 12.19,-5.09 18.32,-7.78 3.28,-1.43 6.56,-2.86 9.86,-4.36 6.64,-3.01 13.31,-6.18 20,-9.43 2.64,-1.28 5.26,-2.49 7.91,-3.8 9.29,-4.62 18.63,-9.44 28.01,-14.51 8.11,-4.38 16.25,-8.91 24.42,-13.63 5.82,-3.36 11.58,-6.92 17.36,-10.41 5.69,-3.44 11.39,-6.87 17.04,-10.44 4.45,-2.79 8.88,-5.69 13.31,-8.57 5.86,-3.82 11.72,-7.66 17.55,-11.61 4.39,-2.96 8.75,-6 13.1,-9.05 6,-4.18 11.98,-8.42 17.93,-12.73 4.26,-3.1 8.51,-6.22 12.74,-9.38 6.33,-4.72 12.62,-9.53 18.89,-14.4 4.01,-3.12 8.02,-6.21 12.01,-9.39 7.18,-5.72 14.32,-11.59 21.43,-17.5 3.2,-2.65 6.42,-5.25 9.6,-7.96 10.31,-8.73 20.54,-17.63 30.68,-26.75 1.28,-1.16 2.53,-2.36 3.8,-3.52 8.89,-8.06 17.72,-16.26 26.47,-24.61 3.4,-3.24 6.76,-6.57 10.14,-9.85 6.54,-6.37 13.07,-12.79 19.53,-19.32 3.74,-3.77 7.45,-7.59 11.16,-11.4 5.87,-6.06 11.71,-12.17 17.5,-18.35 3.7,-3.94 7.4,-7.87 11.06,-11.87 5.81,-6.32 11.56,-12.71 17.29,-19.16 3.42,-3.84 6.85,-7.65 10.24,-11.52 6.34,-7.27 12.6,-14.64 18.84,-22.04 2.62,-3.11 5.28,-6.18 7.89,-9.31 9,-10.84 17.89,-21.82 26.66,-32.94 1.39,-1.77 2.75,-3.58 4.14,-5.36 8.36,-10.68 16.6,-21.5 24.74,-32.42 3.56,-4.79 7.11,-9.59 10.63,-14.42 3.45,-4.71 6.88,-9.45 10.28,-14.21 3.96,-5.53 7.87,-11.12 11.76,-16.71 3.35,-4.8 6.7,-9.6 10,-14.44 2.7,-3.95 5.35,-7.95 8.01,-11.91 8.24,-12.3 16.35,-24.69 24.31,-37.2 1.58,-2.48 3.2,-4.93 4.76,-7.42 9.09,-14.44 17.93,-29.03 26.62,-43.71 3.08,-5.23 6.12,-10.48 9.16,-15.73 3.08,-5.34 6.16,-10.67 9.19,-16.04 3.3,-5.85 6.53,-11.73 9.76,-17.61 2.96,-5.4 5.94,-10.79 8.84,-16.21 2.46,-4.59 4.85,-9.21 7.27,-13.82 4.68,-8.89 9.28,-17.81 13.8,-26.77 2.49,-4.94 4.96,-9.88 7.41,-14.84 3.5,-7.11 6.94,-14.24 10.34,-21.38 2.55,-5.34 5.09,-10.67 7.58,-16.02 2.93,-6.32 5.79,-12.66 8.64,-18.99 2.57,-5.71 5.13,-11.41 7.63,-17.12 2.55,-5.84 5.04,-11.7 7.52,-17.56 2.53,-5.95 5.05,-11.89 7.49,-17.85 2.49,-6.04 4.9,-12.09 7.31,-18.15 2.33,-5.87 4.67,-11.74 6.93,-17.63 2.41,-6.25 4.74,-12.51 7.06,-18.77 2.15,-5.79 4.31,-11.58 6.38,-17.37 2.45,-6.83 4.81,-13.69 7.17,-20.54 1.87,-5.47 3.79,-10.96 5.6,-16.44 2.45,-7.36 4.77,-14.73 7.09,-22.09 1.61,-5.11 3.27,-10.22 4.83,-15.32 2.58,-8.5 5.01,-16.99 7.44,-25.49 1.34,-4.68 2.76,-9.37 4.05,-14.04 l 211.14,-121.91 c 7.96,-4.6 15.88,-9.42 23.75,-14.4 l 1.55,-0.95 c 7.69,-4.89 15.34,-10 22.94,-15.25 2.61,-1.8 5.2,-3.7 7.8,-5.55 5.08,-3.59 10.16,-7.24 15.19,-10.99 3.08,-2.3 6.15,-4.67 9.22,-7.03 4.55,-3.49 9.09,-7.03 13.6,-10.64 3.31,-2.66 6.6,-5.36 9.89,-8.09 4.3,-3.55 8.57,-7.16 12.83,-10.82 3.37,-2.9 6.74,-5.83 10.08,-8.79 4.17,-3.7 8.32,-7.46 12.44,-11.26 3.34,-3.06 6.67,-6.14 9.98,-9.27 4.19,-3.97 8.34,-8 12.48,-12.08 3.07,-3 6.15,-6.01 9.19,-9.08 4.29,-4.32 8.52,-8.73 12.76,-13.15 2.79,-2.93 5.61,-5.83 8.38,-8.8 4.9,-5.23 9.72,-10.59 14.53,-15.95 1.94,-2.18 3.92,-4.3 5.87,-6.5 6.75,-7.68 13.43,-15.47 20.01,-23.39 1.05,-1.25 2.06,-2.55 3.09,-3.81 5.55,-6.74 11.07,-13.54 16.49,-20.45 6.95,-8.87 13.8,-17.84 20.52,-26.95 l 0.28,-0.36 c 9.52,-12.91 18.72,-26.15 27.74,-39.51 2.12,-3.15 4.27,-6.28 6.36,-9.45 3.26,-4.93 6.45,-9.9 9.64,-14.88 2.84,-4.44 5.69,-8.88 8.47,-13.36 3.13,-5.04 6.18,-10.13 9.24,-15.21 2.51,-4.18 5.03,-8.35 7.49,-12.56 7.26,-12.43 14.31,-24.96 21.1,-37.63 2.49,-4.62 4.88,-9.28 7.3,-13.94 2.55,-4.89 5.12,-9.77 7.6,-14.69 3.46,-6.93 6.84,-13.88 10.17,-20.85 1.08,-2.26 2.2,-4.49 3.26,-6.75 4.24,-9 8.33,-18.06 12.32,-27.14 1.05,-2.4 2.06,-4.81 3.09,-7.22 2.92,-6.74 5.77,-13.51 8.53,-20.3 1.27,-3.09 2.51,-6.2 3.74,-9.3 2.6,-6.53 5.12,-13.08 7.58,-19.63 1.05,-2.81 2.13,-5.6 3.16,-8.4 3.16,-8.63 6.2,-17.27 9.12,-25.92 l 0.78,-2.19 c 3.13,-9.37 6.1,-18.77 8.95,-28.15 0.93,-3.05 1.78,-6.1 2.67,-9.14 1.89,-6.46 3.75,-12.9 5.49,-19.36 0.98,-3.59 1.91,-7.19 2.84,-10.78 1.57,-6.04 3.07,-12.07 4.51,-18.1 0.85,-3.57 1.69,-7.13 2.5,-10.7 1.4,-6.22 2.71,-12.42 3.98,-18.63 0.67,-3.27 1.37,-6.55 1.99,-9.83 1.57,-8.13 3.01,-16.25 4.32,-24.35 0.2,-1.15 0.42,-2.32 0.61,-3.48 1.46,-9.26 2.74,-18.48 3.87,-27.68 0.33,-2.61 0.58,-5.21 0.87,-7.82 0.75,-6.59 1.43,-13.17 2,-19.73 0.28,-3.16 0.52,-6.3 0.76,-9.45 0.46,-6.22 0.83,-12.42 1.13,-18.6 0.15,-2.99 0.31,-5.98 0.42,-8.94 0.31,-8.78 0.52,-17.53 0.5,-26.22 l -0.12,-38.36 c -0.02,-9.13 -0.26,-18.05 -0.66,-26.85 -0.12,-2.49 -0.32,-4.9 -0.46,-7.37 -0.35,-6.05 -0.75,-12.03 -1.28,-17.92 -0.3,-3.41 -0.69,-6.75 -1.05,-10.11 -0.53,-4.97 -1.11,-9.91 -1.77,-14.78 -0.49,-3.59 -1.04,-7.13 -1.6,-10.66 -0.71,-4.47 -1.47,-8.9 -2.29,-13.26 -0.73,-3.95 -1.52,-7.84 -2.34,-11.7 -0.85,-3.94 -1.74,-7.82 -2.68,-11.67 -1.09,-4.53 -2.27,-8.99 -3.49,-13.39 -0.95,-3.45 -1.92,-6.86 -2.96,-10.22 -1.61,-5.28 -3.35,-10.42 -5.14,-15.51 -0.97,-2.75 -1.91,-5.54 -2.92,-8.23 -3.25,-8.55 -6.71,-16.85 -10.46,-24.81 -2.92,-6.18 -5.96,-12.23 -9.18,-18.05 v -0.02 c -3.27,-5.91 -6.71,-11.63 -10.27,-17.16 -0.73,-1.13 -1.5,-2.19 -2.23,-3.29 -2.72,-4.1 -5.51,-8.09 -8.38,-11.97 -1.16,-1.57 -2.34,-3.1 -3.54,-4.64 -2.73,-3.52 -5.53,-6.94 -8.39,-10.27 -1.11,-1.28 -2.18,-2.59 -3.29,-3.84 -3.95,-4.41 -7.99,-8.68 -12.18,-12.74 l -1.84,-1.69 c -3.64,-3.47 -7.38,-6.81 -11.2,-10.01 -1.39,-1.16 -2.8,-2.29 -4.22,-3.42 -3.27,-2.63 -6.61,-5.15 -10.01,-7.6 -1.4,-1 -2.79,-2.03 -4.21,-3 -4.74,-3.25 -9.55,-6.36 -14.5,-9.24 l 1761.98,1023.95 c 4.96,2.88 9.77,6 14.51,9.24 1.42,0.98 2.81,2 4.2,3.01 3.4,2.44 6.74,4.97 10.02,7.6 1.42,1.13 2.84,2.25 4.22,3.41 3.82,3.22 7.56,6.55 11.2,10.01 l 1.84,1.69 c 4.19,4.07 8.23,8.33 12.18,12.75 1.11,1.25 2.19,2.56 3.28,3.83 2.87,3.34 5.67,6.76 8.41,10.29 1.19,1.52 2.36,3.06 3.52,4.62 2.88,3.87 5.68,7.88 8.39,11.97 0.73,1.11 1.51,2.17 2.23,3.29 l 0.65,0.98 c 3.31,5.18 6.49,10.55 9.53,16.06 l 0.14,0.23 c 3.06,5.54 5.99,11.26 8.77,17.13 l 0.35,0.84 c 3.76,7.95 7.22,16.26 10.46,24.8 l 0.91,2.15 c 0.73,1.96 1.32,4.08 2.02,6.08 1.8,5.09 3.53,10.23 5.15,15.51 0.43,1.41 0.95,2.72 1.36,4.13 0.59,1.98 1.04,4.1 1.6,6.11 1.22,4.39 2.39,8.84 3.48,13.36 0.45,1.86 1,3.61 1.43,5.48 0.46,2.02 0.81,4.16 1.25,6.21 0.82,3.85 1.6,7.75 2.34,11.68 0.38,2.03 0.85,3.97 1.2,6.02 0.42,2.37 0.72,4.86 1.1,7.26 0.55,3.53 1.09,7.07 1.59,10.66 0.24,1.83 0.57,3.58 0.81,5.42 0.38,3.07 0.62,6.25 0.97,9.35 0.36,3.36 0.74,6.7 1.04,10.12 0.12,1.37 0.3,2.68 0.42,4.05 0.37,4.55 0.59,9.22 0.86,13.86 0.14,2.47 0.34,4.88 0.45,7.37 l 0.12,1.82 c 0.32,7.76 0.5,15.63 0.55,23.62 v 1.41 l 0.11,38.37 c 0.02,7.3 -0.08,14.66 -0.3,22.03" style="fill:#000d2a;fill-opacity:1;fill-rule:nonzero;stroke:none" id="path20"/>
    <path d="m 4102.23,7004.28 c 377.97,-218.22 699.81,-676.67 825.65,-1133.06 62.44,-16.65 128.03,-44.09 195.71,-83.16 318.73,-184.01 590.06,-570.75 695.96,-955.66 l 211.14,-121.91 c 269.82,-155.77 487.85,-533.41 486.97,-843.45 l -0.12,-38.36 c -0.88,-310.04 -220.32,-435.18 -490.15,-279.4 L 3090.78,5244.74 c -269.82,155.78 -487.85,533.49 -486.97,843.53 l 0.11,38.36 c 0.04,15.85 0.79,31.15 1.98,46.04 -1.1,17.75 -1.75,35.4 -1.7,52.86 1.09,385.9 274.22,541.48 609.99,347.62 37.31,506.15 421,700.77 888.04,431.13" style="fill:#f6f0e9;fill-opacity:1;fill-rule:nonzero;stroke:none" id="path22"/>
    <path d="m 7376.19,7160.87 c 0.32,109.25 -76.56,242.33 -171.63,297.21 L 5441.95,8475.73 c -95.07,54.89 -172.38,10.83 -172.69,-98.41 l -7.61,-2683.87 1.75,-1.37 c 7.19,-5.72 14.32,-11.59 21.44,-17.5 3.19,-2.65 6.42,-5.25 9.59,-7.96 10.31,-8.73 20.55,-17.63 30.68,-26.75 1.28,-1.16 2.53,-2.36 3.8,-3.52 8.89,-8.06 17.72,-16.26 26.47,-24.61 3.4,-3.24 6.76,-6.57 10.14,-9.85 6.55,-6.37 13.07,-12.79 19.53,-19.32 3.74,-3.77 7.46,-7.59 11.17,-11.4 5.87,-6.06 11.7,-12.17 17.5,-18.35 3.69,-3.94 7.39,-7.87 11.05,-11.87 5.81,-6.32 11.56,-12.71 17.29,-19.16 3.42,-3.84 6.86,-7.65 10.25,-11.52 6.33,-7.27 12.59,-14.64 18.83,-22.04 2.63,-3.11 5.29,-6.18 7.89,-9.31 9,-10.84 17.9,-21.82 26.66,-32.94 1.4,-1.77 2.75,-3.58 4.15,-5.36 8.35,-10.68 16.6,-21.5 24.73,-32.42 3.57,-4.79 7.11,-9.59 10.63,-14.42 3.45,-4.71 6.88,-9.45 10.28,-14.21 3.96,-5.53 7.87,-11.12 11.77,-16.71 3.35,-4.8 6.69,-9.6 10,-14.44 2.69,-3.95 5.34,-7.95 8.01,-11.91 8.24,-12.3 16.35,-24.69 24.31,-37.2 1.57,-2.48 3.19,-4.93 4.76,-7.42 9.08,-14.44 17.93,-29.03 26.61,-43.71 3.08,-5.23 6.12,-10.48 9.16,-15.73 3.08,-5.34 6.16,-10.67 9.19,-16.04 3.3,-5.85 6.53,-11.73 9.76,-17.61 2.96,-5.4 5.94,-10.79 8.84,-16.21 2.46,-4.59 4.86,-9.21 7.28,-13.82 4.67,-8.89 9.27,-17.81 13.8,-26.77 2.49,-4.94 4.96,-9.88 7.4,-14.84 3.5,-7.11 6.94,-14.24 10.34,-21.38 2.55,-5.34 5.09,-10.67 7.58,-16.02 2.93,-6.32 5.79,-12.66 8.64,-18.99 2.57,-5.71 5.14,-11.41 7.64,-17.12 2.55,-5.84 5.04,-11.7 7.52,-17.56 2.53,-5.95 5.05,-11.89 7.49,-17.85 2.49,-6.04 4.89,-12.09 7.3,-18.15 2.34,-5.87 4.67,-11.74 6.94,-17.63 2.41,-6.25 4.73,-12.51 7.06,-18.77 2.14,-5.79 4.3,-11.58 6.37,-17.37 2.45,-6.83 4.81,-13.69 7.17,-20.54 1.88,-5.47 3.79,-10.96 5.61,-16.44 2.44,-7.36 4.76,-14.73 7.09,-22.09 1.61,-5.11 3.26,-10.22 4.82,-15.32 2.58,-8.5 5.01,-16.99 7.44,-25.49 1.34,-4.68 2.77,-9.37 4.05,-14.04 l 211.15,-121.91 c 7.96,-4.6 15.88,-9.42 23.75,-14.4 l 1.54,-0.95 c 7.7,-4.89 15.34,-10 22.94,-15.25 2.62,-1.8 5.2,-3.7 7.8,-5.55 5.08,-3.59 10.16,-7.24 15.19,-10.99 3.08,-2.3 6.15,-4.67 9.23,-7.03 4.55,-3.49 9.08,-7.03 13.59,-10.64 3.31,-2.66 6.6,-5.36 9.89,-8.09 4.3,-3.55 8.58,-7.16 12.83,-10.82 3.37,-2.9 6.74,-5.83 10.08,-8.79 4.17,-3.7 8.32,-7.46 12.44,-11.26 3.34,-3.06 6.67,-6.14 9.98,-9.27 4.19,-3.97 8.34,-8 12.49,-12.08 3.06,-3 6.14,-6.01 9.18,-9.08 4.29,-4.32 8.52,-8.73 12.76,-13.15 2.79,-2.93 5.61,-5.83 8.39,-8.8 4.89,-5.23 9.71,-10.59 14.52,-15.95 1.94,-2.18 3.92,-4.3 5.87,-6.5 6.76,-7.68 13.44,-15.47 20.02,-23.39 1.04,-1.25 2.05,-2.55 3.08,-3.81 5.55,-6.74 11.07,-13.54 16.49,-20.45 6.95,-8.87 13.81,-17.84 20.53,-26.95 l 0.27,-0.36 c 9.52,-12.91 18.72,-26.15 27.74,-39.51 2.12,-3.15 4.27,-6.28 6.36,-9.45 3.26,-4.93 6.46,-9.9 9.64,-14.88 2.84,-4.44 5.69,-8.88 8.48,-13.36 3.12,-5.04 6.18,-10.13 9.23,-15.21 2.51,-4.18 5.03,-8.35 7.49,-12.56 7.26,-12.43 14.31,-24.96 21.11,-37.63 2.48,-4.62 4.87,-9.28 7.29,-13.94 2.55,-4.89 5.12,-9.77 7.6,-14.69 3.47,-6.93 6.85,-13.88 10.18,-20.85 1.07,-2.26 2.19,-4.49 3.26,-6.75 4.24,-9 8.33,-18.06 12.31,-27.14 1.06,-2.4 2.06,-4.81 3.1,-7.22 2.91,-6.74 5.76,-13.51 8.52,-20.3 1.27,-3.09 2.51,-6.2 3.74,-9.3 2.6,-6.53 5.12,-13.08 7.58,-19.63 1.06,-2.81 2.13,-5.6 3.17,-8.4 3.15,-8.63 6.2,-17.27 9.12,-25.92 l 0.77,-2.19 c 3.13,-9.37 6.1,-18.77 8.95,-28.15 0.93,-3.05 1.78,-6.1 2.67,-9.14 1.89,-6.46 3.75,-12.9 5.5,-19.36 0.97,-3.59 1.9,-7.19 2.83,-10.78 1.57,-6.04 3.08,-12.07 4.51,-18.1 0.85,-3.57 1.69,-7.13 2.5,-10.7 1.41,-6.22 2.72,-12.42 3.99,-18.63 0.66,-3.27 1.36,-6.55 1.99,-9.83 1.28,-6.66 2.42,-13.31 3.53,-19.95 l 346.63,-200.11 516.03,299.88 6.93,3067.74" style="fill:#ffffff;fill-opacity:1;fill-rule:nonzero;stroke:none" id="path24"/>
    <path d="M 7034.6,7021.32 5603.47,7833.2 c -19.6,11.31 -35.55,2.22 -35.61,-20.31 -0.07,-22.52 15.78,-49.96 35.38,-61.28 l 1431.14,-811.87 c 19.6,-11.32 35.54,-2.23 35.61,20.29 0.06,22.52 -15.79,49.97 -35.39,61.29" style="fill:#c8e3f2;fill-opacity:1;fill-rule:nonzero;stroke:none" id="path26"/>
    <path d="m 7034.6,6521.02 -1431.13,811.87 c -19.6,11.32 -35.55,2.23 -35.61,-20.29 -0.07,-22.53 15.78,-49.97 35.38,-61.29 l 1431.14,-811.87 c 19.6,-11.32 35.54,-2.23 35.61,20.29 0.06,22.53 -15.79,49.97 -35.39,61.29" style="fill:#c8e3f2;fill-opacity:1;fill-rule:nonzero;stroke:none" id="path28"/>
    <path d="m 7034.6,6020.72 -1431.13,811.87 c -19.6,11.32 -35.55,2.23 -35.61,-20.29 -0.07,-22.52 15.78,-49.97 35.38,-61.29 l 1431.14,-811.88 c 19.6,-11.3 35.54,-2.22 35.61,20.31 0.06,22.52 -15.79,49.97 -35.39,61.28" style="fill:#c8e3f2;fill-opacity:1;fill-rule:nonzero;stroke:none" id="path30"/>
    <path d="M 7034.6,5520.42 5603.47,6332.3 c -19.6,11.31 -35.55,2.23 -35.61,-20.3 -0.07,-22.52 15.78,-49.97 35.38,-61.28 l 1431.14,-811.88 c 19.6,-11.32 35.54,-2.23 35.61,20.29 0.06,22.52 -15.79,49.98 -35.39,61.29" style="fill:#c8e3f2;fill-opacity:1;fill-rule:nonzero;stroke:none" id="path32"/>
    <path d="M 7034.6,5020.12 5603.47,5832 c -19.6,11.31 -35.55,2.22 -35.61,-20.31 -0.07,-22.52 15.78,-49.96 35.38,-61.28 l 1431.14,-811.87 c 19.6,-11.32 35.54,-2.23 35.61,20.29 0.06,22.53 -15.79,49.97 -35.39,61.29" style="fill:#c8e3f2;fill-opacity:1;fill-rule:nonzero;stroke:none" id="path34"/>
    <path d="m 6915.51,7000.45 c 0.31,109.24 -76.56,242.33 -171.63,297.21 L 4981.26,8315.31 c -95.07,54.88 -172.38,10.83 -172.69,-98.41 l -4.58,-2023.76 c 2.6,-5.34 5.21,-10.69 7.76,-16.04 3.01,-6.32 6.03,-12.63 8.97,-18.97 3.48,-7.47 6.85,-14.97 10.23,-22.47 3.05,-6.76 6.1,-13.51 9.07,-20.3 3.04,-6.97 6.01,-13.96 8.98,-20.95 2.97,-7.02 5.96,-14.04 8.85,-21.07 2.96,-7.18 5.82,-14.39 8.69,-21.6 2.77,-6.96 5.55,-13.92 8.24,-20.91 2.85,-7.4 5.6,-14.81 8.35,-22.23 2.55,-6.85 5.1,-13.69 7.57,-20.56 2.93,-8.17 5.74,-16.35 8.55,-24.53 2.22,-6.47 4.48,-12.92 6.63,-19.39 2.92,-8.81 5.7,-17.65 8.49,-26.48 1.88,-5.96 3.82,-11.91 5.64,-17.87 3.22,-10.58 6.26,-21.16 9.27,-31.74 1.39,-4.87 2.88,-9.75 4.22,-14.61 7.36,-1.96 14.77,-4.1 22.22,-6.37 9.11,-2.77 18.29,-5.78 27.53,-9.01 2.51,-0.88 5.05,-1.85 7.58,-2.76 6.65,-2.42 13.33,-4.91 20.05,-7.55 3.26,-1.29 6.54,-2.63 9.81,-3.97 6.08,-2.49 12.19,-5.08 18.32,-7.76 3.28,-1.45 6.56,-2.87 9.85,-4.37 6.64,-3.01 13.32,-6.18 20.01,-9.43 2.64,-1.28 5.26,-2.49 7.9,-3.8 9.3,-4.62 18.63,-9.44 28.02,-14.51 8.11,-4.37 16.25,-8.91 24.42,-13.63 5.82,-3.35 11.58,-6.93 17.36,-10.41 5.69,-3.44 11.38,-6.87 17.04,-10.43 4.45,-2.81 8.87,-5.71 13.3,-8.59 5.87,-3.81 11.73,-7.65 17.56,-11.6 4.38,-2.97 8.74,-6 13.1,-9.04 6,-4.19 11.98,-8.43 17.93,-12.74 4.26,-3.1 8.51,-6.23 12.74,-9.38 6.32,-4.72 12.62,-9.53 18.89,-14.39 4,-3.12 8.02,-6.23 12.01,-9.4 7.18,-5.72 14.32,-11.58 21.43,-17.5 3.2,-2.66 6.42,-5.25 9.6,-7.95 10.31,-8.74 20.54,-17.64 30.68,-26.77 1.28,-1.15 2.53,-2.35 3.8,-3.5 8.89,-8.07 17.72,-16.27 26.47,-24.62 3.4,-3.24 6.76,-6.56 10.13,-9.85 6.55,-6.37 13.07,-12.8 19.54,-19.32 3.73,-3.77 7.45,-7.58 11.16,-11.41 5.87,-6.05 11.7,-12.16 17.5,-18.34 3.7,-3.94 7.39,-7.88 11.06,-11.86 5.81,-6.32 11.56,-12.73 17.29,-19.16 3.42,-3.84 6.85,-7.65 10.24,-11.54 6.34,-7.25 12.6,-14.62 18.84,-22.03 2.62,-3.11 5.28,-6.18 7.89,-9.31 9,-10.84 17.89,-21.82 26.66,-32.93 1.39,-1.78 2.75,-3.6 4.14,-5.37 8.36,-10.69 16.6,-21.5 24.73,-32.42 3.57,-4.78 7.12,-9.59 10.64,-14.42 3.44,-4.72 6.88,-9.44 10.28,-14.21 3.95,-5.54 7.86,-11.11 11.76,-16.71 3.35,-4.8 6.7,-9.61 10,-14.44 2.7,-3.96 5.34,-7.94 8.01,-11.92 8.24,-12.28 16.35,-24.68 24.31,-37.18 1.58,-2.49 3.2,-4.94 4.76,-7.43 9.08,-14.44 17.94,-29.02 26.61,-43.72 3.09,-5.22 6.13,-10.46 9.16,-15.72 3.09,-5.34 6.17,-10.67 9.19,-16.04 3.3,-5.84 6.53,-11.73 9.77,-17.61 2.96,-5.4 5.93,-10.78 8.83,-16.21 2.47,-4.59 4.87,-9.21 7.28,-13.82 4.68,-8.89 9.29,-17.81 13.8,-26.78 2.49,-4.93 4.97,-9.87 7.41,-14.82 3.5,-7.11 6.93,-14.25 10.34,-21.39 2.54,-5.33 5.08,-10.67 7.57,-16.02 2.93,-6.32 5.79,-12.66 8.64,-19 2.57,-5.7 5.14,-11.39 7.64,-17.12 2.56,-5.84 5.04,-11.7 7.53,-17.56 2.52,-5.93 5.04,-11.88 7.49,-17.84 2.48,-6.04 4.89,-12.09 7.29,-18.14 2.34,-5.88 4.68,-11.75 6.95,-17.63 2.4,-6.26 4.72,-12.52 7.05,-18.79 2.15,-5.78 4.31,-11.56 6.38,-17.35 2.46,-6.85 4.81,-13.69 7.16,-20.55 1.89,-5.48 3.79,-10.95 5.62,-16.44 2.43,-7.37 4.75,-14.73 7.08,-22.09 1.61,-5.11 3.27,-10.21 4.82,-15.33 2.59,-8.48 5.02,-16.98 7.44,-25.48 1.34,-4.68 2.77,-9.36 4.06,-14.05 l 211.14,-121.9 c 7.97,-4.6 15.88,-9.42 23.75,-14.41 l 1.54,-0.93 c 7.71,-4.9 15.34,-10.01 22.94,-15.26 2.62,-1.8 5.21,-3.7 7.8,-5.54 5.09,-3.61 10.16,-7.24 15.19,-11 3.1,-2.3 6.16,-4.68 9.23,-7.03 4.55,-3.5 9.08,-7.03 13.59,-10.65 3.31,-2.65 6.61,-5.36 9.91,-8.08 4.29,-3.56 8.57,-7.16 12.82,-10.81 3.38,-2.9 6.74,-5.83 10.08,-8.8 4.18,-3.7 8.32,-7.46 12.45,-11.25 3.33,-3.08 6.66,-6.15 9.97,-9.28 4.19,-3.97 8.34,-8.01 12.48,-12.07 3.06,-3.02 6.14,-6.02 9.19,-9.09 4.28,-4.32 8.52,-8.73 12.75,-13.15 2.8,-2.93 5.62,-5.83 8.39,-8.8 4.89,-5.24 9.72,-10.58 14.52,-15.95 1.95,-2.18 3.94,-4.31 5.87,-6.5 6.76,-7.68 13.45,-15.47 20.03,-23.39 1.03,-1.25 2.04,-2.55 3.08,-3.8 5.55,-6.75 11.06,-13.55 16.48,-20.46 6.96,-8.86 13.81,-17.84 20.54,-26.95 l 0.26,-0.36 c 9.52,-12.92 18.72,-26.15 27.75,-39.52 2.11,-3.14 4.26,-6.28 6.36,-9.44 3.25,-4.93 6.45,-9.9 9.63,-14.88 2.84,-4.45 5.69,-8.88 8.48,-13.36 3.12,-5.04 6.18,-10.13 9.24,-15.21 2.51,-4.18 5.03,-8.36 7.49,-12.57 7.25,-12.42 14.3,-24.96 21.1,-37.61 2.49,-4.63 4.87,-9.29 7.29,-13.94 2.55,-4.9 5.12,-9.78 7.6,-14.71 3.48,-6.92 6.85,-13.87 10.18,-20.85 1.07,-2.25 2.21,-4.48 3.26,-6.74 4.24,-9.01 8.33,-18.06 12.32,-27.14 1.06,-2.39 2.06,-4.81 3.09,-7.22 2.91,-6.75 5.76,-13.51 8.53,-20.3 1.27,-3.1 2.51,-6.19 3.74,-9.3 2.59,-6.53 5.12,-13.07 7.58,-19.64 1.05,-2.8 2.13,-5.59 3.16,-8.4 3.15,-8.62 6.21,-17.26 9.13,-25.9 l 0.76,-2.2 c 3.15,-9.38 6.11,-18.77 8.97,-28.16 0.91,-3.04 1.76,-6.09 2.66,-9.14 1.9,-6.44 3.74,-12.9 5.5,-19.35 0.98,-3.6 1.89,-7.19 2.83,-10.78 1.56,-6.04 3.07,-12.06 4.51,-18.1 0.85,-3.56 1.69,-7.14 2.49,-10.7 1.41,-6.21 2.72,-12.42 3.99,-18.62 0.66,-3.29 1.37,-6.56 1.99,-9.83 1.56,-8.13 3.01,-16.26 4.33,-24.35 0.18,-1.17 0.42,-2.33 0.59,-3.49 1.48,-9.26 2.75,-18.49 3.88,-27.69 0.32,-2.6 0.58,-5.2 0.87,-7.8 0.75,-6.6 1.42,-13.18 2,-19.74 0.27,-3.16 0.52,-6.3 0.75,-9.44 0.46,-6.23 0.83,-12.43 1.13,-18.61 0.15,-2.98 0.32,-5.97 0.42,-8.95 0.32,-8.78 0.52,-17.53 0.5,-26.21 l -0.1,-38.37 c -0.03,-9.12 -0.28,-18.04 -0.68,-26.84 -0.12,-2.49 -0.31,-4.91 -0.46,-7.38 -0.35,-6.03 -0.75,-12.03 -1.28,-17.92 -0.3,-3.4 -0.68,-6.74 -1.04,-10.09 -0.54,-4.98 -1.12,-9.93 -1.78,-14.79 -0.49,-3.59 -1.03,-7.14 -1.59,-10.66 -0.71,-4.48 -1.48,-8.9 -2.3,-13.26 -0.73,-3.95 -1.51,-7.85 -2.34,-11.7 -0.84,-3.94 -1.74,-7.83 -2.67,-11.67 -1.1,-4.53 -2.27,-8.99 -3.49,-13.39 -0.95,-3.44 -1.93,-6.86 -2.95,-10.22 -1.62,-5.28 -3.36,-10.43 -5.15,-15.5 -0.97,-2.76 -1.9,-5.55 -2.93,-8.25 -3.24,-8.54 -6.71,-16.84 -10.46,-24.8 -2.92,-6.18 -5.95,-12.22 -9.17,-18.05 l -0.01,-0.01 c -1.56,-2.84 -3.28,-5.48 -4.91,-8.22 l 33.44,-19.31 404.87,235.3 7.24,3196.34" style="fill:#41507e;fill-opacity:1;fill-rule:nonzero;stroke:none" id="path36"/>
    <path d="m 6347.3,4393.09 c 2.84,-4.44 5.69,-8.88 8.47,-13.36 3.13,-5.04 6.18,-10.13 9.24,-15.21 2.51,-4.18 5.03,-8.35 7.49,-12.56 7.26,-12.43 14.31,-24.96 21.1,-37.63 2.49,-4.62 4.88,-9.28 7.3,-13.94 2.55,-4.89 5.12,-9.77 7.6,-14.69 3.46,-6.93 6.84,-13.88 10.17,-20.85 1.08,-2.26 2.2,-4.49 3.26,-6.75 4.24,-9 8.33,-18.06 12.32,-27.14 1.05,-2.4 2.06,-4.81 3.09,-7.22 2.92,-6.74 5.77,-13.51 8.53,-20.3 1.27,-3.09 2.51,-6.2 3.74,-9.3 2.6,-6.53 5.12,-13.08 7.58,-19.63 1.05,-2.81 2.13,-5.6 3.16,-8.4 3.16,-8.63 6.2,-17.27 9.12,-25.92 l 0.78,-2.19 c 3.13,-9.37 6.1,-18.77 8.95,-28.15 0.93,-3.05 1.78,-6.1 2.67,-9.14 1.89,-6.46 3.75,-12.9 5.49,-19.36 0.98,-3.59 1.91,-7.19 2.84,-10.78 1.57,-6.04 3.07,-12.07 4.51,-18.1 0.85,-3.57 1.69,-7.13 2.5,-10.7 1.4,-6.22 2.71,-12.42 3.98,-18.63 0.67,-3.27 1.37,-6.55 1.99,-9.83 1.57,-8.13 3.01,-16.25 4.32,-24.35 0.2,-1.15 0.42,-2.32 0.61,-3.48 1.24,-7.84 2.28,-15.65 3.28,-23.45 l 6.27,2768.59 c 0.3,109.24 -76.57,242.32 -171.64,297.21 L 4583.41,8045.47 c -95.07,54.89 -172.38,10.83 -172.69,-98.41 l -2.68,-1182.09 c 1.53,-1.52 3.07,-2.99 4.59,-4.53 4.43,-4.46 8.83,-8.97 13.21,-13.49 6.99,-7.21 13.94,-14.5 20.84,-21.85 4.37,-4.65 8.74,-9.31 13.07,-14.01 6.9,-7.51 13.73,-15.12 20.54,-22.77 4.03,-4.52 8.08,-9.01 12.07,-13.58 7.55,-8.63 14.99,-17.4 22.41,-26.21 3.07,-3.64 6.19,-7.23 9.24,-10.9 10.72,-12.91 21.32,-26 31.77,-39.25 1.81,-2.29 3.57,-4.65 5.38,-6.95 9.83,-12.57 19.52,-25.29 29.09,-38.14 4.13,-5.54 8.25,-11.12 12.34,-16.72 4.15,-5.69 8.29,-11.39 12.39,-17.13 4.66,-6.53 9.27,-13.1 13.86,-19.68 4.01,-5.76 8.02,-11.52 11.99,-17.32 3.32,-4.88 6.58,-9.79 9.87,-14.69 10.1,-15.06 20.04,-30.26 29.77,-45.6 1.53,-2.41 3.1,-4.77 4.62,-7.19 10.85,-17.26 21.42,-34.71 31.79,-52.29 3.58,-6.06 7.12,-12.16 10.64,-18.26 3.58,-6.21 7.16,-12.41 10.68,-18.66 3.95,-7.01 7.83,-14.06 11.7,-21.11 3.44,-6.25 6.87,-12.5 10.24,-18.78 3.04,-5.66 6,-11.35 8.98,-17.04 5.42,-10.33 10.77,-20.68 16.01,-31.09 2.96,-5.85 5.9,-11.72 8.8,-17.6 4.13,-8.39 8.19,-16.8 12.2,-25.23 3.01,-6.32 6.03,-12.63 8.98,-18.98 3.47,-7.47 6.85,-14.96 10.22,-22.46 3.05,-6.76 6.1,-13.51 9.07,-20.29 3.05,-6.97 6.01,-13.97 8.98,-20.96 2.98,-7.02 5.96,-14.03 8.85,-21.07 2.96,-7.19 5.82,-14.4 8.69,-21.6 2.77,-6.97 5.55,-13.93 8.24,-20.9 2.85,-7.41 5.6,-14.83 8.36,-22.24 2.54,-6.86 5.1,-13.7 7.56,-20.56 2.93,-8.17 5.74,-16.35 8.55,-24.54 2.23,-6.45 4.48,-12.91 6.63,-19.37 2.92,-8.82 5.7,-17.66 8.49,-26.49 1.88,-5.95 3.82,-11.91 5.64,-17.87 3.22,-10.58 6.26,-21.16 9.27,-31.75 1.39,-4.86 2.88,-9.73 4.22,-14.6 7.37,-1.96 14.77,-4.11 22.22,-6.36 9.12,-2.78 18.29,-5.79 27.53,-9.02 2.51,-0.88 5.05,-1.85 7.58,-2.76 6.66,-2.41 13.34,-4.91 20.05,-7.55 3.26,-1.29 6.54,-2.63 9.81,-3.96 6.08,-2.49 12.19,-5.09 18.32,-7.78 3.28,-1.43 6.56,-2.86 9.86,-4.36 6.64,-3.01 13.31,-6.18 20,-9.43 2.64,-1.28 5.26,-2.49 7.91,-3.8 9.29,-4.62 18.63,-9.44 28.01,-14.51 8.11,-4.38 16.25,-8.91 24.42,-13.63 5.82,-3.36 11.58,-6.92 17.36,-10.41 5.69,-3.44 11.39,-6.87 17.04,-10.44 4.45,-2.79 8.88,-5.69 13.31,-8.57 5.86,-3.82 11.72,-7.66 17.55,-11.61 4.39,-2.96 8.75,-6 13.1,-9.05 6,-4.18 11.98,-8.42 17.93,-12.73 4.26,-3.1 8.51,-6.22 12.74,-9.38 6.33,-4.72 12.62,-9.53 18.89,-14.4 4.01,-3.12 8.02,-6.21 12.01,-9.39 7.18,-5.72 14.32,-11.59 21.43,-17.5 3.2,-2.65 6.42,-5.25 9.6,-7.96 10.31,-8.73 20.54,-17.63 30.68,-26.75 1.28,-1.16 2.53,-2.36 3.8,-3.52 8.89,-8.06 17.72,-16.26 26.47,-24.61 3.4,-3.24 6.76,-6.57 10.14,-9.85 6.54,-6.37 13.07,-12.79 19.53,-19.32 3.74,-3.77 7.45,-7.59 11.16,-11.4 5.87,-6.06 11.71,-12.17 17.5,-18.35 3.7,-3.94 7.4,-7.87 11.06,-11.87 5.81,-6.32 11.56,-12.71 17.29,-19.16 3.42,-3.84 6.85,-7.65 10.24,-11.52 6.34,-7.27 12.6,-14.64 18.84,-22.04 2.62,-3.11 5.28,-6.18 7.89,-9.31 9,-10.84 17.89,-21.82 26.66,-32.94 1.39,-1.77 2.75,-3.58 4.14,-5.36 8.36,-10.68 16.6,-21.5 24.74,-32.42 3.56,-4.79 7.11,-9.59 10.63,-14.42 3.45,-4.71 6.88,-9.45 10.28,-14.21 3.96,-5.53 7.87,-11.12 11.76,-16.71 3.35,-4.8 6.7,-9.6 10,-14.44 2.7,-3.95 5.35,-7.95 8.01,-11.91 8.24,-12.3 16.35,-24.69 24.31,-37.2 1.58,-2.48 3.2,-4.93 4.76,-7.42 9.09,-14.44 17.93,-29.03 26.62,-43.71 3.08,-5.23 6.12,-10.48 9.16,-15.73 3.08,-5.34 6.16,-10.67 9.19,-16.04 3.3,-5.85 6.53,-11.73 9.76,-17.61 2.96,-5.4 5.94,-10.79 8.84,-16.21 2.46,-4.59 4.85,-9.21 7.27,-13.82 4.68,-8.89 9.28,-17.81 13.8,-26.77 2.49,-4.94 4.96,-9.88 7.41,-14.84 3.5,-7.11 6.94,-14.24 10.34,-21.38 2.55,-5.34 5.09,-10.67 7.58,-16.02 2.93,-6.32 5.79,-12.66 8.64,-18.99 2.57,-5.71 5.13,-11.41 7.63,-17.12 2.55,-5.84 5.04,-11.7 7.52,-17.56 2.53,-5.95 5.05,-11.89 7.49,-17.85 2.49,-6.04 4.9,-12.09 7.31,-18.15 2.33,-5.87 4.67,-11.74 6.93,-17.63 2.41,-6.25 4.74,-12.51 7.06,-18.77 2.15,-5.79 4.31,-11.58 6.38,-17.37 2.45,-6.83 4.81,-13.69 7.17,-20.54 1.87,-5.47 3.79,-10.96 5.6,-16.44 2.45,-7.36 4.77,-14.73 7.09,-22.09 1.61,-5.11 3.27,-10.22 4.83,-15.32 2.58,-8.5 5.01,-16.99 7.44,-25.49 1.34,-4.68 2.76,-9.37 4.05,-14.04 l 211.14,-121.91 c 7.96,-4.6 15.88,-9.42 23.75,-14.4 l 1.55,-0.95 c 7.69,-4.89 15.34,-10 22.94,-15.25 2.61,-1.8 5.2,-3.7 7.8,-5.55 5.08,-3.59 10.16,-7.24 15.19,-10.99 3.08,-2.3 6.15,-4.67 9.22,-7.03 4.55,-3.49 9.09,-7.03 13.6,-10.64 3.31,-2.66 6.6,-5.36 9.89,-8.09 4.3,-3.55 8.57,-7.16 12.83,-10.82 3.37,-2.9 6.74,-5.83 10.08,-8.79 4.17,-3.7 8.32,-7.46 12.44,-11.26 3.34,-3.06 6.67,-6.14 9.98,-9.27 4.19,-3.97 8.34,-8 12.48,-12.08 3.07,-3 6.15,-6.01 9.19,-9.08 4.29,-4.32 8.52,-8.73 12.76,-13.15 2.79,-2.93 5.61,-5.83 8.38,-8.8 4.9,-5.23 9.72,-10.59 14.53,-15.95 1.94,-2.18 3.92,-4.3 5.87,-6.5 6.75,-7.68 13.43,-15.47 20.01,-23.39 1.05,-1.25 2.06,-2.55 3.09,-3.81 5.55,-6.74 11.07,-13.54 16.49,-20.45 6.95,-8.87 13.8,-17.84 20.52,-26.95 l 0.28,-0.36 c 9.52,-12.91 18.72,-26.15 27.74,-39.51 2.12,-3.15 4.27,-6.28 6.36,-9.45 3.26,-4.93 6.45,-9.9 9.64,-14.88" style="fill:#5f72a1;fill-opacity:1;fill-rule:nonzero;stroke:none" id="path38"/>
    <path d="m 6510.9,3742.15 -0.18,-1.16 c -0.71,-4.47 -1.47,-8.9 -2.29,-13.26 -0.73,-3.95 -1.52,-7.84 -2.34,-11.7 -0.85,-3.94 -1.74,-7.82 -2.68,-11.67 -1.09,-4.53 -2.27,-8.99 -3.49,-13.39 -0.95,-3.45 -1.92,-6.86 -2.96,-10.22 -1.61,-5.28 -3.35,-10.42 -5.14,-15.51 -0.97,-2.75 -1.91,-5.54 -2.92,-8.23 -3.25,-8.55 -6.71,-16.85 -10.46,-24.81 -2.92,-6.18 -5.96,-12.23 -9.18,-18.05 v -0.02 c -3.27,-5.91 -6.71,-11.63 -10.27,-17.16 -0.73,-1.13 -1.5,-2.19 -2.23,-3.29 -2.72,-4.1 -5.51,-8.09 -8.38,-11.97 -1.16,-1.57 -2.34,-3.1 -3.54,-4.64 -2.73,-3.52 -5.53,-6.94 -8.39,-10.27 -1.11,-1.28 -2.18,-2.59 -3.29,-3.84 -3.95,-4.41 -7.99,-8.68 -12.18,-12.74 l -1.84,-1.69 c -3.64,-3.47 -7.38,-6.81 -11.2,-10.01 -1.39,-1.16 -2.8,-2.29 -4.22,-3.42 -3.27,-2.63 -6.61,-5.15 -10.01,-7.6 -1.4,-1 -2.79,-2.03 -4.21,-3 -4.74,-3.25 -9.55,-6.36 -14.5,-9.24 l 135.56,78.78 0.34,148.11" style="fill:#5f72a1;fill-opacity:1;fill-rule:nonzero;stroke:none" id="path40"/>
    <path d="m 6175.95,6591.06 -1431.13,811.87 c -19.6,11.32 -35.56,2.23 -35.62,-20.29 -0.06,-22.52 15.78,-49.97 35.39,-61.29 l 1431.12,-811.87 c 19.6,-11.31 35.55,-2.23 35.62,20.3 0.06,22.52 -15.78,49.97 -35.38,61.28" style="fill:#ffffff;fill-opacity:1;fill-rule:nonzero;stroke:none" id="path42"/>
    <path d="m 6175.95,6090.77 -1431.13,811.87 c -19.6,11.31 -35.56,2.23 -35.62,-20.3 -0.06,-22.52 15.78,-49.97 35.39,-61.28 l 1431.12,-811.88 c 19.6,-11.32 35.55,-2.22 35.62,20.3 0.06,22.52 -15.78,49.97 -35.38,61.29" style="fill:#ffffff;fill-opacity:1;fill-rule:nonzero;stroke:none" id="path44"/>
    <path d="m 6175.95,5590.46 -1431.13,811.88 c -19.6,11.32 -35.56,2.22 -35.62,-20.3 -0.06,-22.52 15.78,-49.97 35.39,-61.28 l 1431.12,-811.88 c 19.6,-11.32 35.55,-2.23 35.62,20.29 0.06,22.53 -15.78,49.97 -35.38,61.29" style="fill:#ffffff;fill-opacity:1;fill-rule:nonzero;stroke:none" id="path46"/>
    <path d="m 6175.95,5090.16 -1431.13,811.87 c -19.6,11.32 -35.56,2.23 -35.62,-20.29 -0.06,-22.53 15.78,-49.97 35.39,-61.29 l 1431.12,-811.87 c 19.6,-11.32 35.55,-2.23 35.62,20.3 0.06,22.52 -15.78,49.96 -35.38,61.28" style="fill:#ffffff;fill-opacity:1;fill-rule:nonzero;stroke:none" id="path48"/>
    <path d="m 6175.95,4589.86 -1431.13,811.87 c -19.6,11.32 -35.56,2.23 -35.62,-20.29 -0.06,-22.52 15.78,-49.97 35.39,-61.29 l 1431.12,-811.87 c 19.6,-11.31 35.55,-2.23 35.62,20.3 0.06,22.52 -15.78,49.97 -35.38,61.28" style="fill:#ffffff;fill-opacity:1;fill-rule:nonzero;stroke:none" id="path50"/>
    <path d="m 3258.04,6628.11 c -3.32,1.76 -6.63,3.47 -9.93,5.16 -2.56,1.29 -5.14,2.71 -7.69,3.97 -4.1,2.03 -8.15,3.85 -12.23,5.76 -2.93,1.39 -5.87,2.81 -8.78,4.14 -1.2,0.55 -2.42,1.17 -3.61,1.7 -8.15,3.65 -16.24,7.08 -24.29,10.3 l -0.08,0.04 c -8.23,3.29 -16.4,6.36 -24.51,9.22 -1.06,0.37 -2.09,0.67 -3.15,1.03 -2.94,1.01 -5.84,1.91 -8.76,2.87 -4.15,1.36 -8.32,2.82 -12.43,4.06 -2.06,0.62 -4.07,1.09 -6.12,1.69 -3.59,1.04 -7.16,2 -10.73,2.96 -2.75,0.73 -5.54,1.6 -8.28,2.28 -2.88,0.72 -5.7,1.24 -8.56,1.91 -3.57,0.82 -7.14,1.64 -10.68,2.37 -1.89,0.39 -3.81,0.9 -5.68,1.26 -3.36,0.66 -6.63,1.07 -9.96,1.64 -4.11,0.72 -8.23,1.45 -12.31,2.03 -1.44,0.21 -2.91,0.53 -4.34,0.72 -3.4,0.46 -6.71,0.65 -10.07,1.02 -4.39,0.49 -8.78,1.01 -13.13,1.35 -1.27,0.1 -2.58,0.3 -3.85,0.39 -2.97,0.21 -5.83,0.15 -8.77,0.28 -5.18,0.25 -10.35,0.48 -15.46,0.52 -1.43,0.01 -2.91,0.15 -4.33,0.14 -5.66,-0.02 -11.26,-0.19 -16.81,-0.47 l -2.13,-0.15 c -4.22,-0.23 -8.43,-0.49 -12.59,-0.87 -2.64,-0.24 -5.23,-0.62 -7.85,-0.92 -1.97,-0.24 -3.96,-0.44 -5.93,-0.71 -7.17,-0.95 -14.28,-2.06 -21.25,-3.45 l -0.64,-0.16 c -1.92,-0.38 -3.76,-0.92 -5.66,-1.34 -5.79,-1.29 -11.55,-2.64 -17.2,-4.23 -2.76,-0.78 -5.45,-1.72 -8.17,-2.57 -3.61,-1.13 -7.28,-2.14 -10.82,-3.39 l -2.63,-1.08 c -5.47,-2 -10.79,-4.26 -16.09,-6.55 -2.58,-1.12 -5.22,-2.12 -7.76,-3.31 -7.76,-3.63 -15.36,-7.54 -22.74,-11.83 l -70.48,-40.95 c 7.38,4.28 14.98,8.19 22.73,11.82 2.55,1.19 5.2,2.19 7.78,3.31 5.3,2.3 10.62,4.55 16.08,6.55 4.42,1.62 8.93,3.06 13.45,4.48 2.72,0.85 5.41,1.78 8.18,2.57 5.64,1.59 11.4,2.94 17.19,4.22 1.9,0.42 3.74,0.95 5.66,1.34 7.18,1.46 14.49,2.63 21.89,3.62 1.96,0.25 3.96,0.46 5.93,0.69 6.74,0.78 13.54,1.41 20.44,1.81 l 2.13,0.14 c 6.96,0.35 14.04,0.38 21.15,0.33 5.1,-0.04 10.27,-0.27 15.45,-0.51 4.2,-0.2 8.38,-0.35 12.63,-0.69 4.33,-0.34 8.73,-0.85 13.12,-1.34 4.79,-0.52 9.57,-1.04 14.42,-1.73 4.07,-0.59 8.19,-1.32 12.3,-2.03 5.19,-0.9 10.39,-1.82 15.63,-2.91 3.55,-0.74 7.12,-1.55 10.69,-2.38 5.58,-1.28 11.19,-2.67 16.84,-4.18 3.57,-0.95 7.14,-1.92 10.73,-2.96 6.15,-1.78 12.34,-3.72 18.56,-5.76 2.91,-0.96 5.82,-1.84 8.75,-2.86 18.27,-6.31 36.83,-13.73 55.64,-22.28 2.92,-1.33 5.86,-2.77 8.78,-4.15 6.61,-3.11 13.25,-6.34 19.92,-9.74 3.3,-1.68 6.61,-3.39 9.93,-5.15 8.84,-4.66 17.7,-9.43 26.63,-14.59 l 70.48,40.96 c -6.47,3.73 -12.92,7.34 -19.34,10.82 -2.44,1.32 -4.85,2.49 -7.29,3.77" style="fill:#41507e;fill-opacity:1;fill-rule:nonzero;stroke:none" id="path52"/>
    <path d="m 6587.83,3929.39 c -0.05,1.39 -0.14,2.78 -0.19,4.18 -0.11,2.98 -0.28,5.96 -0.42,8.95 -0.18,3.51 -0.28,6.99 -0.49,10.5 -0.18,2.69 -0.45,5.39 -0.64,8.08 -0.24,3.15 -0.48,6.31 -0.76,9.47 -0.18,2.08 -0.3,4.14 -0.49,6.22 -0.43,4.48 -1,8.99 -1.51,13.5 -0.29,2.61 -0.55,5.22 -0.87,7.84 l -0.29,2.6 c -1.04,8.16 -2.2,16.34 -3.5,24.55 l -0.08,0.52 c -0.19,1.18 -0.42,2.36 -0.61,3.53 -1.12,6.87 -2.28,13.75 -3.57,20.64 -0.23,1.23 -0.51,2.46 -0.75,3.69 -0.63,3.27 -1.32,6.54 -2,9.82 -0.81,3.99 -1.55,7.98 -2.43,11.98 -0.48,2.22 -1.05,4.45 -1.55,6.66 -0.8,3.57 -1.64,7.12 -2.48,10.68 -0.67,2.75 -1.25,5.5 -1.94,8.26 -0.81,3.29 -1.74,6.58 -2.58,9.88 -0.94,3.59 -1.86,7.17 -2.84,10.75 -0.48,1.77 -0.9,3.53 -1.38,5.3 -1.3,4.68 -2.74,9.37 -4.12,14.07 -0.88,3.05 -1.73,6.09 -2.66,9.14 l -0.76,2.59 c -2.58,8.42 -5.29,16.84 -8.1,25.26 l -0.11,0.3 -0.75,2.17 c -2.53,7.48 -5.12,14.96 -7.82,22.43 -0.42,1.17 -0.89,2.35 -1.32,3.52 -1.02,2.79 -2.1,5.58 -3.14,8.38 -1.52,4 -2.97,8.02 -4.52,12.02 -0.99,2.55 -2.06,5.08 -3.07,7.62 -1.23,3.1 -2.48,6.21 -3.74,9.31 -0.93,2.27 -1.8,4.54 -2.74,6.8 -1.88,4.53 -3.86,9.03 -5.81,13.55 -1.02,2.39 -2.02,4.77 -3.06,7.15 l -1.11,2.58 c -3.48,7.89 -7.07,15.75 -10.74,23.58 l -0.49,1.02 c -1.04,2.22 -2.14,4.41 -3.2,6.62 -2.9,6.07 -5.78,12.13 -8.79,18.16 -0.47,0.94 -0.98,1.87 -1.45,2.81 -2.46,4.91 -5.03,9.77 -7.57,14.66 -2.05,3.94 -4.03,7.93 -6.13,11.85 l -1.19,2.12 c -6.79,12.67 -13.84,25.21 -21.1,37.63 -0.62,1.04 -1.17,2.14 -1.79,3.18 -1.85,3.16 -3.82,6.25 -5.7,9.39 -3.06,5.08 -6.1,10.15 -9.23,15.19 -2.8,4.49 -5.65,8.95 -8.5,13.4 -3.18,4.97 -6.36,9.92 -9.61,14.83 -1.08,1.63 -2.1,3.3 -3.19,4.93 -1.03,1.54 -2.16,3.01 -3.2,4.56 -9.02,13.36 -18.21,26.59 -27.73,39.5 l -0.01,0.01 -0.19,0.25 c -6.75,9.15 -13.62,18.17 -20.61,27.06 l -0.9,1.19 c -5.15,6.54 -10.39,12.96 -15.66,19.35 -1,1.22 -1.98,2.49 -3,3.7 l -0.18,0.24 c -6.22,7.47 -12.51,14.84 -18.89,22.09 l -0.97,1.08 c -1.92,2.19 -3.89,4.3 -5.83,6.45 -4.05,4.54 -8.08,9.1 -12.2,13.53 l -2.35,2.46 c -2.77,2.97 -5.58,5.86 -8.38,8.78 -3.08,3.23 -6.13,6.52 -9.24,9.7 -1.17,1.18 -2.36,2.3 -3.53,3.47 -3.03,3.06 -6.09,6.06 -9.16,9.07 -2.64,2.58 -5.24,5.26 -7.9,7.81 -1.52,1.45 -3.08,2.83 -4.6,4.28 -3.31,3.13 -6.64,6.21 -9.98,9.27 -2.3,2.13 -4.58,4.34 -6.91,6.44 -1.83,1.64 -3.7,3.2 -5.54,4.82 -3.34,2.97 -6.7,5.89 -10.07,8.79 -2.05,1.76 -4.06,3.61 -6.12,5.34 -2.23,1.89 -4.5,3.66 -6.75,5.51 -3.28,2.72 -6.56,5.41 -9.86,8.06 -1.72,1.38 -3.41,2.83 -5.14,4.19 -2.8,2.21 -5.65,4.3 -8.48,6.47 -3.06,2.36 -6.13,4.73 -9.22,7.03 -1.26,0.94 -2.49,1.94 -3.75,2.86 -3.8,2.81 -7.66,5.45 -11.49,8.17 -2.58,1.83 -5.14,3.71 -7.73,5.5 l -2.03,1.44 c -6.88,4.71 -13.79,9.29 -20.76,13.71 l -0.19,0.12 -1.49,0.91 c -6.31,3.99 -12.63,7.9 -19,11.65 -1.6,0.94 -3.2,1.86 -4.81,2.79 l -211.07,121.87 c -0.29,1.04 -0.58,2.08 -0.87,3.12 -0.99,3.6 -2.12,7.2 -3.14,10.8 -2.44,8.52 -4.88,17.04 -7.47,25.56 -0.31,1.02 -0.58,2.03 -0.89,3.05 -1.26,4.11 -2.66,8.21 -3.96,12.32 -2.31,7.34 -4.63,14.69 -7.06,22.03 -0.48,1.45 -0.91,2.89 -1.38,4.33 -1.37,4.06 -2.86,8.11 -4.25,12.17 -2.35,6.83 -4.7,13.67 -7.14,20.49 -0.65,1.79 -1.23,3.58 -1.88,5.37 -1.45,4.01 -3.02,8.01 -4.52,12.03 -2.32,6.26 -4.65,12.51 -7.05,18.76 -0.74,1.93 -1.42,3.87 -2.18,5.81 -1.54,3.95 -3.19,7.89 -4.76,11.83 -2.4,6.05 -4.82,12.09 -7.3,18.13 -0.82,1.99 -1.58,3.99 -2.4,5.98 -1.66,3.98 -3.42,7.92 -5.1,11.89 -2.48,5.85 -4.96,11.7 -7.51,17.52 -0.86,1.98 -1.67,3.97 -2.54,5.95 -1.67,3.76 -3.43,7.49 -5.12,11.24 -2.84,6.31 -5.69,12.61 -8.61,18.9 -0.97,2.11 -1.9,4.24 -2.89,6.35 -1.53,3.27 -3.16,6.5 -4.72,9.77 -3.39,7.11 -6.82,14.22 -10.32,21.31 -1.23,2.5 -2.39,5.02 -3.63,7.52 -1.22,2.45 -2.54,4.88 -3.77,7.33 -4.52,8.96 -9.13,17.88 -13.8,26.78 -1.52,2.9 -2.97,5.84 -4.5,8.74 -0.91,1.7 -1.87,3.39 -2.79,5.1 -2.9,5.41 -5.86,10.78 -8.82,16.16 -3.23,5.89 -6.47,11.78 -9.77,17.63 -3.02,5.37 -6.11,10.71 -9.2,16.05 -2.23,3.87 -4.4,7.78 -6.67,11.64 -0.81,1.38 -1.68,2.72 -2.5,4.1 -8.67,14.69 -17.51,29.27 -26.59,43.69 -1.58,2.5 -3.2,4.96 -4.78,7.45 -7.95,12.51 -16.07,24.89 -24.31,37.18 -1.38,2.06 -2.67,4.17 -4.05,6.22 -1.3,1.91 -2.65,3.79 -3.96,5.7 -3.29,4.83 -6.63,9.61 -9.96,14.4 -3.91,5.61 -7.84,11.22 -11.81,16.78 -3.39,4.74 -6.81,9.45 -10.24,14.16 -2.27,3.1 -4.48,6.25 -6.77,9.35 -1.28,1.72 -2.61,3.38 -3.89,5.1 -8.15,10.95 -16.41,21.78 -24.78,32.48 -1.1,1.4 -2.15,2.85 -3.25,4.25 l -0.84,1.04 c -8.77,11.12 -17.67,22.1 -26.66,32.94 l -1.24,1.53 c -2.2,2.64 -4.47,5.19 -6.68,7.82 -6.24,7.4 -12.49,14.77 -18.83,22.03 -0.98,1.12 -1.94,2.29 -2.92,3.42 -2.41,2.73 -4.88,5.37 -7.3,8.08 -5.73,6.45 -11.5,12.85 -17.31,19.18 -1.55,1.69 -3.06,3.44 -4.62,5.12 -2.12,2.28 -4.29,4.46 -6.41,6.73 -5.82,6.19 -11.66,12.32 -17.55,18.39 -2.1,2.15 -4.14,4.4 -6.25,6.54 -1.61,1.64 -3.27,3.2 -4.88,4.83 -6.48,6.55 -13.01,12.97 -19.57,19.36 -2.43,2.36 -4.81,4.82 -7.25,7.17 -0.94,0.89 -1.91,1.74 -2.85,2.64 -8.8,8.39 -17.66,16.63 -26.6,24.74 -1.09,1 -2.16,2.04 -3.26,3.03 l -0.42,0.37 c -10.14,9.13 -20.38,18.03 -30.68,26.77 l -2.07,1.8 c -2.49,2.11 -5.04,4.07 -7.54,6.15 -7.11,5.92 -14.25,11.78 -21.43,17.5 -1.46,1.17 -2.89,2.41 -4.36,3.56 -2.52,1.99 -5.09,3.85 -7.62,5.81 -6.28,4.87 -12.58,9.7 -18.91,14.41 -2.09,1.57 -4.14,3.22 -6.23,4.76 -2.16,1.58 -4.34,3.05 -6.5,4.62 -5.95,4.32 -11.93,8.55 -17.93,12.73 -2.59,1.82 -5.16,3.74 -7.77,5.53 -1.76,1.21 -3.55,2.31 -5.32,3.52 -5.83,3.95 -11.7,7.79 -17.57,11.61 -3.01,1.95 -5.98,4.02 -9,5.94 -1.42,0.9 -2.87,1.73 -4.3,2.63 -5.65,3.57 -11.34,6.99 -17.02,10.43 -3.37,2.03 -6.7,4.18 -10.08,6.16 -2.42,1.43 -4.85,2.85 -7.29,4.25 -7.93,4.58 -15.83,9.01 -23.71,13.26 l -0.7,0.37 c -9.39,5.07 -18.72,9.89 -28.01,14.51 l -1.64,0.85 c -2.06,1.01 -4.1,1.9 -6.16,2.9 -6.71,3.25 -13.39,6.43 -20.05,9.45 -1.26,0.57 -2.54,1.22 -3.79,1.79 -2.03,0.9 -4.02,1.67 -6.04,2.55 -6.1,2.68 -12.18,5.26 -18.24,7.74 -1.85,0.76 -3.73,1.63 -5.58,2.37 -1.44,0.58 -2.84,1.05 -4.27,1.61 -6.58,2.58 -13.11,5.03 -19.63,7.39 -2,0.72 -4.02,1.56 -6.01,2.26 l -1.93,0.63 c -9.19,3.21 -18.34,6.22 -27.41,8.97 l -0.81,0.27 c -7.28,2.2 -14.53,4.25 -21.73,6.17 l -0.73,2.63 c -1.07,3.87 -2.29,7.74 -3.39,11.62 -3.04,10.67 -6.1,21.34 -9.35,32.03 -0.32,1.04 -0.6,2.1 -0.92,3.14 -1.5,4.88 -3.16,9.77 -4.7,14.65 -2.8,8.88 -5.59,17.74 -8.53,26.61 -0.52,1.55 -0.98,3.12 -1.5,4.67 -1.64,4.88 -3.42,9.74 -5.09,14.61 -2.83,8.22 -5.65,16.44 -8.6,24.65 -0.7,1.95 -1.33,3.91 -2.04,5.87 -1.78,4.89 -3.69,9.76 -5.51,14.64 -2.76,7.45 -5.52,14.87 -8.37,22.29 -0.83,2.14 -1.59,4.3 -2.42,6.43 -1.88,4.84 -3.9,9.64 -5.82,14.48 -2.87,7.19 -5.73,14.4 -8.69,21.58 -0.91,2.22 -1.76,4.44 -2.67,6.66 -2.01,4.83 -4.15,9.63 -6.2,14.45 -2.97,7 -5.93,13.99 -8.98,20.95 -0.96,2.22 -1.87,4.44 -2.85,6.65 -2.01,4.56 -4.15,9.08 -6.2,13.62 -3.38,7.52 -6.77,15.02 -10.25,22.51 -1.09,2.37 -2.13,4.75 -3.23,7.11 -1.86,3.96 -3.84,7.88 -5.73,11.83 -4.02,8.45 -8.08,16.87 -12.22,25.28 -1.4,2.83 -2.71,5.7 -4.12,8.53 -1.51,3.02 -3.13,6.01 -4.66,9.04 -5.25,10.42 -10.6,20.79 -16.04,31.13 -1.79,3.42 -3.48,6.88 -5.29,10.28 -1.2,2.25 -2.46,4.48 -3.67,6.74 -3.38,6.29 -6.82,12.55 -10.27,18.82 -3.86,7.04 -7.74,14.08 -11.68,21.07 -3.52,6.25 -7.1,12.46 -10.68,18.67 -2.46,4.27 -4.85,8.58 -7.34,12.83 -1.08,1.84 -2.23,3.61 -3.31,5.45 -10.38,17.58 -20.94,35.03 -31.79,52.3 -1.51,2.4 -3.08,4.76 -4.6,7.15 -9.74,15.36 -19.68,30.55 -29.79,45.63 -1.6,2.39 -3.11,4.85 -4.72,7.24 -1.69,2.49 -3.44,4.93 -5.13,7.41 -3.97,5.82 -7.99,11.61 -12.02,17.38 -4.58,6.57 -9.18,13.13 -13.83,19.63 -4.11,5.75 -8.25,11.46 -12.4,17.16 -2.55,3.49 -5.04,7.04 -7.61,10.51 -1.56,2.11 -3.19,4.14 -4.75,6.24 -9.57,12.84 -19.26,25.55 -29.08,38.12 -1.42,1.81 -2.78,3.69 -4.2,5.5 l -1.18,1.45 c -10.45,13.26 -21.04,26.34 -31.77,39.26 l -1.38,1.71 c -2.59,3.12 -5.28,6.11 -7.88,9.21 -7.42,8.8 -14.85,17.56 -22.38,26.18 -1.13,1.3 -2.23,2.65 -3.37,3.94 -2.87,3.27 -5.82,6.4 -8.7,9.64 -6.82,7.67 -13.66,15.29 -20.58,22.81 -1.79,1.95 -3.54,3.97 -5.33,5.91 -2.53,2.73 -5.14,5.34 -7.68,8.04 -6.92,7.38 -13.88,14.68 -20.89,21.9 -2.45,2.53 -4.84,5.14 -7.3,7.65 -1.94,1.98 -3.94,3.86 -5.89,5.82 -7.67,7.75 -15.41,15.37 -23.18,22.92 -2.87,2.8 -5.68,5.71 -8.56,8.47 -1.15,1.1 -2.33,2.14 -3.48,3.23 -10.29,9.83 -20.67,19.47 -31.12,28.95 -1.42,1.29 -2.8,2.65 -4.23,3.93 l -0.57,0.5 c -12.05,10.85 -24.21,21.43 -36.46,31.81 l -2.36,2.06 c -2.9,2.45 -5.87,4.75 -8.79,7.18 -8.52,7.09 -17.07,14.11 -25.69,20.96 -1.7,1.36 -3.37,2.81 -5.08,4.15 -2.99,2.37 -6.04,4.57 -9.05,6.91 -7.47,5.8 -14.97,11.53 -22.5,17.15 -2.46,1.83 -4.88,3.78 -7.34,5.59 -2.56,1.89 -5.17,3.64 -7.74,5.5 -7.08,5.14 -14.19,10.19 -21.32,15.16 -3.07,2.14 -6.08,4.4 -9.15,6.5 -2.1,1.44 -4.22,2.75 -6.32,4.18 -6.96,4.71 -13.95,9.29 -20.96,13.85 -3.53,2.29 -7.04,4.73 -10.59,6.99 -1.69,1.07 -3.4,2.05 -5.09,3.12 -6.74,4.24 -13.52,8.34 -20.3,12.43 -3.97,2.39 -7.9,4.93 -11.89,7.27 -2.88,1.7 -5.76,3.38 -8.65,5.05 -8.68,5.01 -17.32,9.82 -25.93,14.5 l -2.22,1.24 c -1.28,0.7 -2.54,1.3 -3.82,1.99 -9.67,5.18 -19.31,10.18 -28.9,14.97 -1.18,0.58 -2.38,1.26 -3.56,1.84 l -1.54,0.72 c -10.48,5.16 -20.89,10.05 -31.26,14.74 -1.01,0.45 -2.02,0.97 -3.02,1.42 -1.29,0.57 -2.56,1.06 -3.85,1.63 -10.41,4.61 -20.79,9.05 -31.08,13.18 l -0.45,0.2 -0.11,0.04 c -10.72,4.29 -21.35,8.24 -31.95,12.02 -1.22,0.44 -2.47,0.95 -3.7,1.38 -0.93,0.34 -1.84,0.59 -2.77,0.91 -10.33,3.6 -20.6,6.98 -30.8,10.08 l -1.88,0.62 c -1.12,0.33 -2.21,0.58 -3.32,0.91 -10.79,3.21 -21.51,6.2 -32.15,8.87 l -1.08,0.3 -0.31,0.07 c -11.2,2.79 -22.27,5.2 -33.28,7.38 -1.07,0.22 -2.16,0.52 -3.22,0.73 -1.06,0.2 -2.11,0.37 -3.17,0.56 -2.88,0.55 -5.74,1.05 -8.6,1.55 -3.79,0.67 -7.57,1.32 -11.34,1.92 -2.9,0.46 -5.78,0.88 -8.67,1.3 -2.08,0.3 -4.19,0.65 -6.27,0.94 -1.5,0.2 -2.99,0.34 -4.49,0.52 -3.34,0.43 -6.66,0.82 -9.98,1.19 -3.4,0.38 -6.79,0.74 -10.17,1.06 -3.29,0.31 -6.58,0.59 -9.86,0.84 -1.83,0.15 -3.67,0.34 -5.5,0.47 -1.42,0.1 -2.82,0.13 -4.24,0.21 -3.72,0.24 -7.42,0.41 -11.11,0.57 -3.08,0.13 -6.15,0.25 -9.22,0.33 -3.68,0.1 -7.34,0.14 -10.99,0.16 -1.97,0.02 -3.98,0.1 -5.94,0.09 -0.95,0 -1.88,-0.06 -2.84,-0.07 -4.95,-0.05 -9.86,-0.2 -14.75,-0.37 -2.13,-0.08 -4.27,-0.12 -6.38,-0.22 -6.97,-0.34 -13.89,-0.8 -20.74,-1.41 l -0.24,-0.02 -1.08,-0.12 c -7.36,-0.68 -14.63,-1.55 -21.86,-2.55 -2.15,-0.29 -4.3,-0.61 -6.45,-0.94 -6.17,-0.92 -12.29,-1.97 -18.36,-3.13 -1.13,-0.22 -2.28,-0.35 -3.41,-0.58 l -1.02,-0.24 c -9.24,-1.85 -18.32,-4.02 -27.31,-6.4 -1.59,-0.42 -3.2,-0.84 -4.78,-1.28 -8.8,-2.44 -17.48,-5.11 -26.02,-8.05 l -1.9,-0.6 c -1.46,-0.51 -2.87,-1.09 -4.32,-1.62 -3.77,-1.36 -7.52,-2.76 -11.23,-4.22 -2.35,-0.92 -4.69,-1.86 -7.01,-2.82 -3.7,-1.53 -7.36,-3.12 -11.01,-4.74 -2.22,-0.99 -4.44,-1.97 -6.64,-3 -3.91,-1.81 -7.77,-3.73 -11.61,-5.67 -1.84,-0.93 -3.71,-1.82 -5.54,-2.77 -5.62,-2.94 -11.19,-5.98 -16.67,-9.16 l -70.48,-40.96 c 5.48,3.18 11.05,6.22 16.68,9.16 1.83,0.96 3.69,1.84 5.53,2.77 3.84,1.94 7.7,3.85 11.6,5.68 2.21,1.02 4.44,2.01 6.66,2.99 3.65,1.63 7.3,3.22 11,4.74 2.32,0.96 4.66,1.91 7.01,2.82 3.72,1.46 7.46,2.86 11.23,4.22 2.07,0.74 4.13,1.5 6.22,2.21 8.54,2.95 17.22,5.62 26.02,8.07 1.59,0.43 3.18,0.84 4.78,1.27 8.98,2.39 18.07,4.55 27.31,6.4 1.47,0.29 2.96,0.55 4.44,0.82 6.07,1.16 12.18,2.21 18.35,3.14 2.15,0.32 4.29,0.64 6.45,0.93 7.22,1 14.5,1.87 21.86,2.54 l 1.32,0.15 c 6.86,0.61 13.77,1.06 20.74,1.41 2.11,0.1 4.26,0.14 6.38,0.22 4.89,0.18 9.8,0.32 14.76,0.37 2.91,0.03 5.84,0 8.77,-0.02 3.65,-0.02 7.31,-0.06 11,-0.15 3.05,-0.08 6.13,-0.21 9.21,-0.34 3.69,-0.15 7.39,-0.34 11.11,-0.56 3.24,-0.2 6.49,-0.43 9.74,-0.69 3.28,-0.25 6.57,-0.53 9.87,-0.85 3.37,-0.31 6.76,-0.67 10.16,-1.05 3.32,-0.36 6.64,-0.75 9.98,-1.18 3.57,-0.45 7.16,-0.95 10.76,-1.47 2.89,-0.42 5.77,-0.84 8.67,-1.31 3.76,-0.59 7.55,-1.24 11.33,-1.91 2.87,-0.5 5.73,-1 8.61,-1.54 2.13,-0.4 4.26,-0.86 6.39,-1.29 11.01,-2.19 22.09,-4.6 33.28,-7.39 l 1.39,-0.37 c 10.64,-2.66 21.37,-5.66 32.16,-8.87 1.73,-0.51 3.45,-1 5.19,-1.53 10.2,-3.1 20.47,-6.48 30.8,-10.07 2.16,-0.76 4.32,-1.53 6.48,-2.3 10.59,-3.78 21.23,-7.73 31.95,-12.02 l 0.52,-0.23 c 10.31,-4.13 20.7,-8.58 31.12,-13.19 2.28,-1.01 4.56,-2.01 6.85,-3.05 10.37,-4.68 20.79,-9.58 31.27,-14.73 1.7,-0.84 3.4,-1.72 5.1,-2.57 9.58,-4.79 19.22,-9.78 28.89,-14.97 2.02,-1.09 4.03,-2.13 6.06,-3.23 8.61,-4.69 17.25,-9.5 25.92,-14.5 6.88,-3.97 13.7,-8.2 20.55,-12.33 6.77,-4.08 13.54,-8.17 20.28,-12.41 5.26,-3.31 10.48,-6.74 15.71,-10.14 7,-4.54 13.99,-9.12 20.94,-13.83 5.17,-3.5 10.32,-7.09 15.47,-10.68 7.13,-4.97 14.24,-10.02 21.33,-15.16 5.03,-3.66 10.06,-7.35 15.07,-11.09 7.53,-5.62 15.01,-11.34 22.48,-17.14 4.73,-3.67 9.46,-7.33 14.17,-11.07 8.6,-6.86 17.15,-13.87 25.66,-20.96 3.72,-3.09 7.46,-6.1 11.17,-9.24 12.24,-10.38 24.39,-20.96 36.44,-31.8 1.64,-1.47 3.25,-3.02 4.88,-4.51 10.43,-9.46 20.78,-19.08 31.05,-28.87 4.04,-3.85 8.03,-7.81 12.05,-11.7 7.76,-7.56 15.49,-15.17 23.15,-22.9 4.44,-4.48 8.84,-8.99 13.24,-13.52 6.99,-7.21 13.93,-14.49 20.83,-21.85 4.37,-4.64 8.73,-9.29 13.06,-14 6.9,-7.51 13.74,-15.12 20.54,-22.77 4.04,-4.52 8.09,-9.02 12.09,-13.6 7.53,-8.62 14.97,-17.38 22.38,-26.18 3.07,-3.65 6.2,-7.23 9.26,-10.92 10.72,-12.92 21.32,-26 31.77,-39.25 1.82,-2.3 3.57,-4.65 5.38,-6.97 9.82,-12.56 19.51,-25.27 29.08,-38.11 4.14,-5.57 8.27,-11.15 12.36,-16.76 4.16,-5.69 8.29,-11.39 12.38,-17.12 4.67,-6.53 9.28,-13.09 13.87,-19.69 4.02,-5.76 8.03,-11.53 12,-17.34 3.32,-4.86 6.58,-9.78 9.86,-14.67 10.09,-15.05 20.02,-30.23 29.75,-45.56 1.53,-2.43 3.12,-4.81 4.64,-7.23 10.84,-17.25 21.4,-34.7 31.76,-52.26 3.6,-6.1 7.17,-12.22 10.71,-18.36 3.56,-6.18 7.12,-12.36 10.62,-18.57 3.96,-7.02 7.85,-14.08 11.73,-21.14 3.43,-6.25 6.87,-12.5 10.24,-18.79 3.03,-5.66 5.98,-11.34 8.96,-17.01 5.43,-10.35 10.78,-20.73 16.04,-31.15 2.95,-5.84 5.89,-11.69 8.78,-17.55 4.14,-8.41 8.21,-16.85 12.23,-25.31 3.01,-6.3 6.02,-12.59 8.95,-18.9 3.48,-7.49 6.87,-15.01 10.25,-22.53 3.05,-6.75 6.09,-13.5 9.05,-20.27 3.05,-6.96 6.01,-13.95 8.98,-20.94 2.98,-7.04 5.97,-14.07 8.87,-21.12 2.96,-7.18 5.82,-14.38 8.68,-21.58 2.78,-6.97 5.56,-13.93 8.25,-20.92 2.85,-7.39 5.6,-14.8 8.35,-22.21 2.55,-6.87 5.11,-13.73 7.58,-20.61 2.93,-8.16 5.74,-16.35 8.55,-24.53 2.23,-6.47 4.49,-12.92 6.63,-19.4 2.94,-8.83 5.72,-17.69 8.52,-26.54 1.88,-5.95 3.81,-11.88 5.63,-17.83 3.25,-10.67 6.31,-21.36 9.35,-32.04 1.35,-4.75 2.81,-9.49 4.12,-14.24 7.47,-1.98 14.98,-4.14 22.54,-6.44 9.07,-2.75 18.22,-5.76 27.42,-8.97 2.63,-0.92 5.28,-1.93 7.92,-2.89 6.52,-2.35 13.06,-4.81 19.64,-7.39 3.27,-1.29 6.56,-2.63 9.86,-3.98 6.05,-2.48 12.13,-5.06 18.23,-7.73 3.27,-1.44 6.54,-2.86 9.83,-4.35 6.65,-3.03 13.34,-6.2 20.05,-9.45 2.6,-1.26 5.19,-2.45 7.8,-3.75 9.29,-4.62 18.62,-9.43 28,-14.5 8.11,-4.39 16.25,-8.92 24.42,-13.64 5.82,-3.36 11.58,-6.92 17.36,-10.41 5.69,-3.43 11.38,-6.86 17.03,-10.43 4.45,-2.8 8.87,-5.7 13.3,-8.57 5.87,-3.82 11.73,-7.67 17.57,-11.61 4.38,-2.97 8.74,-6.01 13.09,-9.04 6,-4.18 11.97,-8.41 17.91,-12.73 4.27,-3.09 8.53,-6.23 12.76,-9.39 6.32,-4.72 12.61,-9.52 18.88,-14.39 4,-3.11 8.02,-6.22 12.01,-9.39 7.18,-5.73 14.31,-11.57 21.41,-17.48 3.21,-2.67 6.43,-5.28 9.62,-7.97 10.31,-8.74 20.54,-17.65 30.68,-26.77 1.24,-1.11 2.45,-2.28 3.68,-3.4 8.94,-8.1 17.81,-16.35 26.6,-24.73 3.39,-3.24 6.73,-6.55 10.1,-9.83 6.56,-6.38 13.09,-12.81 19.57,-19.34 3.73,-3.76 7.43,-7.57 11.14,-11.39 5.87,-6.06 11.71,-12.18 17.51,-18.36 3.71,-3.95 7.41,-7.89 11.07,-11.88 5.81,-6.31 11.56,-12.72 17.29,-19.16 3.41,-3.83 6.84,-7.63 10.23,-11.51 6.34,-7.25 12.59,-14.63 18.83,-22.03 2.63,-3.13 5.3,-6.19 7.91,-9.35 9.01,-10.84 17.9,-21.81 26.67,-32.94 1.38,-1.74 2.72,-3.54 4.09,-5.29 8.37,-10.71 16.63,-21.54 24.78,-32.49 3.57,-4.78 7.11,-9.59 10.63,-14.41 3.45,-4.72 6.88,-9.46 10.28,-14.21 3.97,-5.56 7.89,-11.15 11.8,-16.76 3.33,-4.77 6.66,-9.56 9.95,-14.37 2.71,-3.97 5.37,-7.98 8.05,-11.98 8.23,-12.26 16.33,-24.65 24.27,-37.14 1.59,-2.5 3.22,-4.96 4.79,-7.46 9.08,-14.42 17.92,-29 26.6,-43.69 3.09,-5.23 6.14,-10.5 9.18,-15.76 3.07,-5.32 6.15,-10.64 9.17,-16 3.31,-5.86 6.54,-11.75 9.78,-17.64 2.96,-5.39 5.93,-10.78 8.84,-16.2 2.45,-4.58 4.84,-9.2 7.26,-13.81 4.67,-8.89 9.28,-17.81 13.79,-26.77 2.5,-4.95 4.98,-9.9 7.43,-14.86 3.5,-7.1 6.93,-14.23 10.33,-21.36 2.55,-5.34 5.09,-10.68 7.58,-16.04 2.93,-6.31 5.8,-12.65 8.65,-18.99 2.56,-5.7 5.12,-11.4 7.62,-17.11 2.56,-5.85 5.05,-11.72 7.54,-17.59 2.52,-5.93 5.03,-11.87 7.48,-17.82 2.48,-6.03 4.89,-12.08 7.3,-18.12 2.33,-5.89 4.68,-11.77 6.95,-17.67 2.4,-6.25 4.73,-12.51 7.05,-18.77 2.15,-5.78 4.3,-11.56 6.38,-17.35 2.45,-6.84 4.8,-13.69 7.16,-20.54 1.88,-5.5 3.8,-10.99 5.62,-16.48 2.43,-7.35 4.75,-14.7 7.07,-22.05 1.61,-5.11 3.28,-10.22 4.84,-15.33 2.6,-8.56 5.06,-17.14 7.5,-25.7 1.32,-4.6 2.71,-9.2 3.98,-13.8 l 211.08,-121.86 c 7.98,-4.61 15.91,-9.45 23.8,-14.45 l 1.49,-0.91 c 7.71,-4.9 15.37,-10.02 22.98,-15.27 2.59,-1.79 5.15,-3.67 7.73,-5.5 5.1,-3.61 10.19,-7.26 15.25,-11.03 3.08,-2.3 6.14,-4.67 9.21,-7.02 4.56,-3.51 9.11,-7.05 13.62,-10.67 3.3,-2.65 6.58,-5.34 9.86,-8.06 4.32,-3.56 8.61,-7.18 12.88,-10.85 3.36,-2.9 6.71,-5.82 10.05,-8.76 4.18,-3.72 8.34,-7.49 12.48,-11.29 3.33,-3.07 6.65,-6.15 9.95,-9.27 4.2,-3.98 8.36,-8.02 12.51,-12.09 3.06,-3.01 6.14,-6.01 9.16,-9.06 4.3,-4.33 8.54,-8.75 12.78,-13.18 2.79,-2.92 5.6,-5.81 8.37,-8.78 4.9,-5.24 9.74,-10.6 14.56,-15.98 1.93,-2.16 3.9,-4.28 5.83,-6.46 6.75,-7.68 13.44,-15.48 20.04,-23.41 0.99,-1.2 1.96,-2.45 2.96,-3.66 5.6,-6.8 11.15,-13.64 16.61,-20.59 6.9,-8.8 13.71,-17.73 20.39,-26.77 l 0.41,-0.55 c 9.52,-12.92 18.71,-26.14 27.73,-39.5 2.13,-3.15 4.28,-6.29 6.38,-9.47 3.25,-4.92 6.43,-9.87 9.61,-14.84 2.85,-4.45 5.7,-8.9 8.5,-13.41 3.12,-5.01 6.16,-10.09 9.22,-15.16 2.51,-4.19 5.04,-8.38 7.5,-12.6 7.26,-12.41 14.31,-24.95 21.1,-37.62 2.5,-4.63 4.89,-9.29 7.31,-13.95 2.54,-4.89 5.11,-9.77 7.58,-14.68 3.47,-6.92 6.85,-13.89 10.19,-20.87 1.08,-2.24 2.2,-4.48 3.26,-6.74 4.23,-9 8.33,-18.05 12.32,-27.14 1.05,-2.4 2.06,-4.82 3.09,-7.22 2.92,-6.76 5.76,-13.52 8.53,-20.3 1.26,-3.1 2.5,-6.2 3.73,-9.29 2.6,-6.53 5.12,-13.09 7.59,-19.64 1.05,-2.81 2.13,-5.62 3.16,-8.42 3.16,-8.63 6.2,-17.26 9.12,-25.92 l 0.77,-2.18 c 3.14,-9.38 6.11,-18.77 8.96,-28.18 0.92,-3.01 1.76,-6.02 2.65,-9.04 1.9,-6.48 3.77,-12.97 5.52,-19.46 0.97,-3.58 1.89,-7.15 2.82,-10.73 1.57,-6.03 3.07,-12.08 4.52,-18.11 0.85,-3.58 1.69,-7.15 2.5,-10.73 1.39,-6.2 2.71,-12.41 3.97,-18.61 0.68,-3.28 1.37,-6.56 2,-9.83 1.57,-8.17 3.01,-16.31 4.34,-24.44 0.18,-1.14 0.4,-2.27 0.59,-3.4 1.46,-9.26 2.73,-18.49 3.87,-27.69 0.33,-2.62 0.58,-5.22 0.87,-7.84 0.75,-6.59 1.43,-13.17 2,-19.73 0.28,-3.15 0.52,-6.3 0.76,-9.44 0.46,-6.22 0.83,-12.43 1.13,-18.61 0.15,-2.98 0.31,-5.97 0.42,-8.94 0.31,-8.79 0.52,-17.54 0.49,-26.23 l -0.11,-38.29 c -0.02,-9.13 -0.27,-18.06 -0.67,-26.87 -0.11,-2.47 -0.31,-4.87 -0.45,-7.32 -0.35,-6.05 -0.75,-12.06 -1.28,-17.96 -0.3,-3.41 -0.69,-6.75 -1.05,-10.1 -0.53,-4.99 -1.11,-9.93 -1.77,-14.79 -0.5,-3.6 -1.04,-7.13 -1.6,-10.66 -0.71,-4.48 -1.47,-8.9 -2.29,-13.28 -0.74,-3.93 -1.52,-7.83 -2.34,-11.68 -0.85,-3.94 -1.74,-7.84 -2.68,-11.69 -1.09,-4.53 -2.27,-8.98 -3.49,-13.38 -0.95,-3.44 -1.92,-6.86 -2.96,-10.22 -1.61,-5.29 -3.35,-10.44 -5.14,-15.53 -0.98,-2.74 -1.91,-5.52 -2.92,-8.21 -3.24,-8.54 -6.71,-16.86 -10.46,-24.81 -2.9,-6.15 -5.92,-12.14 -9.11,-17.93 l -0.06,-0.11 c -3.27,-5.93 -6.71,-11.64 -10.28,-17.19 -0.72,-1.11 -1.48,-2.17 -2.21,-3.26 -2.72,-4.1 -5.51,-8.11 -8.39,-11.99 -1.16,-1.57 -2.34,-3.11 -3.54,-4.64 -2.73,-3.52 -5.53,-6.94 -8.39,-10.27 -1.11,-1.27 -2.17,-2.58 -3.29,-3.83 -3.95,-4.42 -7.99,-8.68 -12.17,-12.75 l -1.83,-1.68 c -3.64,-3.46 -7.38,-6.8 -11.21,-10.01 -1.39,-1.17 -2.81,-2.29 -4.22,-3.43 -3.28,-2.62 -6.61,-5.15 -10.01,-7.58 -1.4,-1.01 -2.79,-2.04 -4.22,-3.02 -4.73,-3.24 -9.54,-6.36 -14.49,-9.23 l 70.48,40.96 c 4.95,2.87 9.76,5.98 14.49,9.23 1.43,0.97 2.81,2.01 4.22,3.01 3.4,2.44 6.73,4.97 10.01,7.59 1.42,1.14 2.83,2.26 4.23,3.43 3.82,3.2 7.56,6.54 11.2,10.01 l 1.83,1.68 c 4.18,4.06 8.22,8.33 12.16,12.74 1.13,1.25 2.19,2.56 3.29,3.83 2.87,3.34 5.67,6.76 8.4,10.29 1.19,1.52 2.38,3.06 3.54,4.62 2.88,3.89 5.67,7.89 8.39,12 0.73,1.09 1.49,2.14 2.2,3.26 l 0.67,0.96 c 3.34,5.25 6.54,10.65 9.62,16.23 l 0.06,0.1 c 3.04,5.54 5.96,11.23 8.75,17.09 l 0.36,0.85 c 3.75,7.96 7.21,16.26 10.46,24.81 l 0.89,2.13 c 0.74,1.96 1.32,4.09 2.03,6.08 1.79,5.09 3.53,10.24 5.14,15.53 0.43,1.39 0.96,2.69 1.37,4.11 0.59,1.98 1.03,4.1 1.59,6.1 1.22,4.41 2.39,8.87 3.5,13.41 0.44,1.84 0.98,3.58 1.41,5.45 0.46,2.02 0.81,4.15 1.25,6.2 0.82,3.86 1.62,7.76 2.35,11.71 0.38,2.02 0.85,3.95 1.2,6 0.42,2.37 0.71,4.86 1.09,7.27 0.56,3.53 1.11,7.06 1.59,10.66 0.25,1.82 0.58,3.57 0.81,5.42 0.39,3.06 0.64,6.26 0.97,9.37 0.36,3.35 0.74,6.69 1.05,10.1 0.12,1.37 0.31,2.67 0.42,4.05 0.37,4.56 0.59,9.26 0.86,13.91 0.14,2.45 0.34,4.85 0.45,7.33 l 0.11,1.82 c 0.33,7.75 0.52,15.63 0.56,23.63 v 1.41 l 0.12,38.29 c 0.02,7.31 -0.09,14.67 -0.31,22.05" style="fill:#41507e;fill-opacity:1;fill-rule:nonzero;stroke:none" id="path54"/>
    <path d="m 4102.16,7003.73 c 378.04,-218.26 699.82,-676.74 825.72,-1133.17 62.43,-16.57 128.03,-44.01 195.71,-83.09 318.73,-184.01 590.06,-570.82 695.96,-955.66 l 211.08,-121.86 c 269.88,-155.82 487.91,-533.45 487.02,-843.57 l -0.11,-38.29 c -0.88,-310.12 -220.32,-435.18 -490.2,-279.36 L 3090.77,5244.15 c -269.81,155.79 -487.84,533.42 -486.96,843.53 l 0.11,38.3 c 0.04,15.92 0.79,31.21 1.92,46.06 -1.04,17.8 -1.69,35.44 -1.64,52.91 1.09,385.82 274.16,541.51 609.99,347.61 37.31,506.08 421,700.77 887.97,431.17" style="fill:#ffffff;fill-opacity:1;fill-rule:nonzero;stroke:none" id="path56"/>
    <path d="m 8120.39,5000.18 c -1.4,-0.28 -2.9,-0.36 -4.48,-0.23 l -0.11,0.01 c -1.57,0.15 -3.21,0.49 -4.92,1.07 l -0.08,0.03 c -1.74,0.59 -3.52,1.4 -5.36,2.47 l -111.52,64.38 -0.89,0.5 -1.13,0.59 -1.12,0.53 -1.1,0.46 -1.08,0.4 -0.17,0.06 -0.06,0.02 -0.84,0.28 -1.1,0.3 -1.09,0.24 -1.14,0.19 -0.75,0.08 -0.13,0.01 -0.29,0.03 -1.2,0.03 -1.38,-0.06 -1.48,-0.22 -0.05,-0.02 -0.06,-0.02 -1.62,-0.44 -2.19,-1 -211.09,-122.68 c 1.16,0.67 2.43,1.16 3.8,1.46 l 0.07,0.02 c 1.37,0.28 2.84,0.36 4.4,0.22 l 0.12,-0.01 c 1.56,-0.14 3.21,-0.49 4.93,-1.08 l 0.06,-0.01 c 1.75,-0.61 3.58,-1.45 5.48,-2.55 l 111.53,-64.39 0.85,-0.47 1.08,-0.56 1.07,-0.51 1.07,-0.45 1.07,-0.4 0.22,-0.07 0.08,-0.03 0.77,-0.25 1.09,-0.3 1.1,-0.25 1.16,-0.18 0.8,-0.09 0.11,-0.01 0.28,-0.03 1.25,-0.04 1.38,0.07 1.53,0.22 0.04,0.01 0.07,0.02 1.75,0.48 2.16,1 211.1,122.67 c -1.2,-0.69 -2.51,-1.19 -3.92,-1.48 l -0.07,-0.02" style="fill:#5f72a1;fill-opacity:1;fill-rule:nonzero;stroke:none" id="path58"/>
    <path d="m 8803.2,4569.9 -0.02,1.24 -0.05,1.27 -0.1,1.28 -0.15,1.28 -0.19,1.36 -0.06,0.38 -0.02,0.08 -0.16,0.91 -0.28,1.4 -0.33,1.43 -0.38,1.45 -0.42,1.42 -0.46,1.43 -0.29,0.82 -0.03,0.1 -0.16,0.47 -0.5,1.33 -0.54,1.32 -0.56,1.33 -0.61,1.32 -0.63,1.32 -0.92,1.78 -0.01,0.02 -0.01,0.02 c -0.51,0.94 -1.04,1.86 -1.58,2.77 l -1.69,2.65 -1.49,2.1 -0.56,0.75 -0.12,0.16 -0.51,0.67 -1,1.24 -1.02,1.2 -1.03,1.14 -1.06,1.1 -1.1,1.09 -0.8,0.75 -0.07,0.07 -0.28,0.26 -1.19,1.02 -1.17,0.96 -1.19,0.92 -1.18,0.84 -1.17,0.77 -1.19,0.73 -0.28,0.16 -111.52,64.38 c -1.82,1.06 -3.59,2.29 -5.29,3.68 l -0.14,0.11 c -1.69,1.38 -3.32,2.9 -4.87,4.55 l -0.09,0.1 c -1.57,1.68 -3.07,3.48 -4.47,5.38 v 0.01 c -1.39,1.88 -2.68,3.86 -3.86,5.89 l -0.17,0.31 c -1.15,2.01 -2.21,4.08 -3.12,6.18 l -0.04,0.08 c -0.94,2.15 -1.75,4.34 -2.41,6.53 l -0.02,0.08 c -0.67,2.2 -1.19,4.4 -1.53,6.58 v 0.02 c -0.35,2.19 -0.53,4.35 -0.52,6.46 l 1.72,610.51 c 0,0.95 -0.01,1.89 -0.04,2.85 -0.02,1.02 -0.07,2.04 -0.14,3.07 -0.06,1.02 -0.15,2.05 -0.25,3.08 -0.09,1.03 -0.2,2.06 -0.34,3.1 -0.13,1.06 -0.28,2.12 -0.45,3.18 l -0.02,0.1 -0.01,0.04 c -0.15,1.01 -0.33,2.04 -0.52,3.07 -0.21,1.09 -0.43,2.19 -0.68,3.3 -0.23,1.1 -0.5,2.2 -0.77,3.32 -0.27,1.11 -0.57,2.23 -0.88,3.36 l -0.75,2.57 -0.07,0.22 -0.15,0.55 c -0.34,1.09 -0.69,2.17 -1.06,3.27 -0.35,1.07 -0.73,2.15 -1.12,3.22 -0.37,1.04 -0.76,2.07 -1.16,3.11 -0.4,1.02 -0.81,2.05 -1.23,3.06 l -1,2.31 -0.07,0.17 -0.23,0.54 c -0.45,1.02 -0.92,2.04 -1.4,3.06 -0.52,1.11 -1.05,2.21 -1.6,3.32 -0.64,1.27 -1.29,2.53 -1.95,3.79 -0.73,1.34 -1.49,2.66 -2.25,3.99 l -0.39,0.7 -0.49,0.87 c -1.5,2.55 -3.08,5.06 -4.71,7.51 -1.27,1.9 -2.57,3.75 -3.92,5.58 l -0.05,0.07 -0.03,0.04 c -0.92,1.25 -1.85,2.47 -2.79,3.68 -0.8,1 -1.61,2.01 -2.44,2.99 -0.81,0.97 -1.62,1.92 -2.44,2.86 -0.81,0.92 -1.63,1.82 -2.45,2.72 l -0.47,0.48 -0.19,0.21 -1.93,2.02 -2.65,2.62 c -0.92,0.88 -1.84,1.74 -2.78,2.58 -0.92,0.84 -1.86,1.66 -2.81,2.45 l -1.4,1.15 -0.32,0.26 -1.08,0.89 c -0.92,0.72 -1.85,1.42 -2.77,2.12 -0.91,0.66 -1.83,1.31 -2.75,1.94 l -2.67,1.77 -2.68,1.64 -0.62,0.36 -380.07,219.44 -2.01,1.13 -2.59,1.33 -1.67,0.79 -0.38,0.18 -0.5,0.23 -2.53,1.08 -2.55,0.96 -0.43,0.13 -0.39,0.13 -1.71,0.56 -2.61,0.72 -1.25,0.28 -0.52,0.12 -0.81,0.18 c -0.93,0.18 -1.85,0.33 -2.77,0.45 l -1.67,0.17 -0.57,0.06 -0.56,0.06 c -1.01,0.07 -2,0.09 -2.97,0.09 l -1.28,-0.05 -0.99,-0.05 -1.01,-0.05 c -1.24,-0.11 -2.45,-0.28 -3.63,-0.53 l -0.07,-0.02 -0.82,-0.22 c -1.2,-0.28 -2.39,-0.57 -3.54,-0.97 l -0.26,-0.13 c -1.69,-0.61 -3.31,-1.34 -4.85,-2.24 l -211.09,-122.67 c 1.53,0.89 3.17,1.62 4.85,2.24 1.23,0.45 2.5,0.8 3.8,1.1 l 0.81,0.23 c 1.53,0.3 3.11,0.48 4.72,0.58 l 1,0.05 c 1.56,0.06 3.15,0.04 4.79,-0.09 l 0.58,-0.07 c 1.72,-0.15 3.46,-0.42 5.24,-0.8 l 0.54,-0.11 c 1.82,-0.41 3.67,-0.93 5.57,-1.56 l 0.38,-0.12 c 1.97,-0.69 3.97,-1.49 6,-2.42 l 0.38,-0.17 c 2.06,-0.96 4.15,-2.03 6.27,-3.25 l 380.08,-219.45 c 4.31,-2.48 8.51,-5.42 12.57,-8.71 l 0.31,-0.26 c 4.02,-3.27 7.88,-6.9 11.57,-10.81 l 0.21,-0.22 c 3.73,-3.98 7.28,-8.27 10.6,-12.77 l 0.05,-0.07 c 3.28,-4.45 6.33,-9.13 9.12,-13.95 l 0.41,-0.72 c 2.73,-4.77 5.23,-9.68 7.41,-14.67 l 0.09,-0.21 c 2.22,-5.11 4.15,-10.3 5.71,-15.5 l 0.07,-0.22 c 1.56,-5.22 2.78,-10.44 3.6,-15.62 l 0.01,-0.06 c 0.83,-5.2 1.26,-10.36 1.24,-15.37 l -1.73,-610.5 0.02,-1.2 0.06,-1.28 0.11,-1.29 0.13,-1.3 0.2,-1.34 0.01,-0.05 v -0.03 l 0.22,-1.26 0.28,-1.39 0.33,-1.39 0.37,-1.42 0.32,-1.11 0.03,-0.08 0.06,-0.21 0.44,-1.38 0.47,-1.36 0.5,-1.3 0.51,-1.29 0.42,-0.99 0.04,-0.09 0.09,-0.2 0.59,-1.28 0.67,-1.41 0.83,-1.6 0.95,-1.69 0.16,-0.29 0.21,-0.36 c 0.62,-1.07 1.28,-2.12 1.97,-3.15 l 1.69,-2.41 1.19,-1.56 1.03,-1.27 1.02,-1.2 1.04,-1.15 0.19,-0.19 0.09,-0.1 0.8,-0.84 1.13,-1.11 1.17,-1.09 1.18,-1.03 0.59,-0.49 0.13,-0.1 0.46,-0.38 1.17,-0.89 1.15,-0.82 1.13,-0.74 1.12,-0.7 0.26,-0.14 111.53,-64.4 c 2.7,-1.55 5.26,-3.47 7.64,-5.65 l 0.07,-0.07 c 2.37,-2.17 4.55,-4.6 6.54,-7.2 l 0.1,-0.14 c 2,-2.63 3.78,-5.42 5.34,-8.3 v -0.01 c 1.56,-2.9 2.88,-5.89 3.93,-8.89 l 0.04,-0.1 c 1.05,-2.98 1.82,-5.95 2.3,-8.85 l 0.02,-0.08 c 0.48,-2.9 0.68,-5.72 0.53,-8.36 v -0.07 c -0.29,-5.32 -1.9,-9.94 -5.08,-13.16 l -393.09,-397.22 c -0.83,-0.84 -1.74,-1.54 -2.7,-2.1 l 211.09,122.67 c 0.96,0.56 1.86,1.25 2.7,2.1 l 393.09,397.23 1.98,2.47 1.04,1.87 0.61,1.46 0.49,1.47 0.33,1.27 0.26,1.3 0.19,1.23 0.13,1.24 0.05,0.84 0.01,0.08 0.02,0.32 0.02,1.22" style="fill:#5f72a1;fill-opacity:1;fill-rule:nonzero;stroke:none" id="path60"/>
    <path d="m 8366.25,5323.34 c 34.88,-20.13 63.09,-68.99 62.97,-109.16 l -1.73,-610.5 c -0.05,-16.88 11.85,-37.48 26.53,-45.95 l 111.53,-64.4 c 21.72,-12.54 34.19,-47.99 21.43,-60.88 l -393.09,-397.22 c -5.33,-5.37 -13.5,-4.88 -21.64,-0.19 -8.15,4.71 -16.28,13.63 -21.57,25.14 l -389.56,849.09 c -12.64,27.54 -0.02,48.52 21.7,35.97 l 111.53,-64.39 c 14.68,-8.47 26.66,-1.66 26.71,15.22 l 1.72,610.51 c 0.12,40.16 28.51,56.34 63.39,36.21 l 380.08,-219.45" style="fill:#ffffff;fill-opacity:1;fill-rule:nonzero;stroke:none" id="path62"/>
    <path d="m 4408.03,8423.34 -0.05,0.96 v 0.09 l -0.01,0.2 -0.1,1.25 -0.14,1.28 -0.19,1.3 -0.23,1.32 -0.06,0.33 -0.02,0.12 -0.19,0.9 -0.32,1.36 -0.36,1.4 -0.41,1.4 -0.33,1.02 -0.03,0.11 -0.08,0.23 -0.48,1.38 -0.51,1.36 -0.53,1.33 -0.58,1.34 -0.38,0.85 -389.64,849.05 -0.2,0.44 -0.67,1.38 -0.8,1.56 -1.32,2.37 -1.23,1.95 -0.44,0.71 -0.53,0.84 -1.53,2.15 -1.11,1.46 -1.01,1.25 -0.83,0.97 -0.05,0.05 -0.13,0.15 -1.03,1.14 -1.07,1.14 -1.14,1.12 -1.18,1.09 -1.2,1.05 -1.2,0.97 -1.18,0.91 -1.16,0.82 -1.14,0.76 -1.12,0.68 -0.26,0.15 -0.84,0.47 -1.09,0.57 -1.09,0.51 -1.08,0.46 -1,0.38 h -0.02 l -0.06,0.03 -1.08,0.35 -1.1,0.3 -1.11,0.26 -1.15,0.18 -0.38,0.04 -0.14,0.02 -0.67,0.06 -1.25,0.05 -1.34,-0.07 -1.25,-0.18 -0.11,-0.01 -0.14,-0.02 -1.83,-0.49 -2.17,-1.01 -211.08,-122.67 c 1.28,0.75 2.67,1.24 4.14,1.52 l 0.1,0.02 c 1.44,0.25 2.95,0.29 4.51,0.12 l 0.14,-0.02 c 1.58,-0.17 3.22,-0.56 4.88,-1.15 l 0.01,-0.01 c 1.69,-0.59 3.4,-1.39 5.11,-2.38 4.05,-2.34 8.11,-5.73 11.81,-9.97 l 0.04,-0.06 c 1.77,-2.03 3.44,-4.28 5.01,-6.68 l 0.45,-0.7 c 1.53,-2.42 2.97,-4.97 4.22,-7.7 l 346.66,-755.39 -109.2,-63.46 c -1.61,-0.93 -2.92,-2.36 -4.08,-3.98 l -0.52,-0.51 -1,-1.82 -0.04,-0.1 -0.04,-0.09 -0.56,-1.33 -0.47,-1.4 -0.35,-1.37 -0.13,-0.6 -0.03,-0.15 -0.11,-0.55 -0.19,-1.28 -0.13,-1.28 -0.08,-1.26 -0.03,-1.29 v -0.08 l -1.73,-610.5 c -0.01,-2.41 -0.13,-4.71 -0.33,-6.95 l -0.06,-0.59 c -0.21,-2.04 -0.5,-4.01 -0.87,-5.9 l -0.15,-0.75 c -0.37,-1.83 -0.83,-3.58 -1.36,-5.26 l -0.31,-0.93 c -0.52,-1.58 -1.11,-3.08 -1.76,-4.52 l -0.21,-0.47 c -0.75,-1.63 -1.59,-3.14 -2.51,-4.57 -1.29,-2.02 -2.79,-3.78 -4.38,-5.42 l -1.18,-1.14 c -1.66,-1.53 -3.41,-2.95 -5.33,-4.06 l 211.09,122.68 c 1.92,1.11 3.67,2.52 5.33,4.06 l 1.18,1.14 c 1.59,1.63 3.08,3.4 4.38,5.42 l 0.07,0.08 c 0.87,1.36 1.66,2.8 2.38,4.32 l 0.07,0.16 0.19,0.46 c 0.44,0.97 0.88,1.94 1.26,2.98 l 0.52,1.56 0.3,0.92 0.29,0.85 c 0.3,1.04 0.58,2.12 0.84,3.23 l 0.24,1.18 0.15,0.75 0.23,1.16 c 0.17,0.98 0.32,1.99 0.45,3.02 l 0.18,1.72 0.06,0.6 0.07,0.72 c 0.08,0.98 0.15,1.97 0.19,2.98 0.04,1.01 0.06,2.02 0.07,3.06 v 0.18 l 1.33,467.94 157.44,91.5 c 1.01,0.58 1.92,1.33 2.75,2.19 l 0.74,0.91 1.17,1.45 0.43,0.77 0.26,0.46 0.34,0.6 0.67,1.6 0.5,1.5 0.01,0.02 0.01,0.03 0.33,1.29 0.27,1.34 0.19,1.28 0.07,0.66 0.02,0.14 0.04,0.45 0.08,1.27 0.03,1.22 -0.01,1.24" style="fill:#ffffff;fill-opacity:1;fill-rule:nonzero;stroke:none" id="path64"/>
    <path d="m 3780.77,9194.36 c 8.13,-4.69 16.24,-13.6 21.53,-25.11 l 389.63,-849.04 c 12.65,-27.55 -0.05,-48.57 -21.78,-36.03 l -111.44,64.35 c -14.77,8.52 -26.66,1.66 -26.71,-15.22 l -1.73,-610.5 c -0.11,-40.17 -28.59,-56.3 -63.46,-36.17 l -380,219.4 c -34.96,20.17 -63.17,69.04 -63.06,109.21 l 1.73,610.5 c 0.05,16.87 -11.84,37.48 -26.52,45.95 l -111.53,64.39 c -21.72,12.55 -34.19,48.08 -21.43,60.97 l 393.17,397.09 c 5.33,5.38 13.47,4.91 21.6,0.21" style="fill:#5f72a1;fill-opacity:1;fill-rule:nonzero;stroke:none" id="path66"/>
  </g>
</svg>