<?xml version="1.0" encoding="utf-8"?>
<svg viewBox="150 100 400 400" xmlns="http://www.w3.org/2000/svg">
  <g id="g8" transform="matrix(1.333333, 0, 0, -1.333333, -1.649255, 600.659686)">
    <path d="M 171.165 416.359 L 172.125 416.359" style="fill:#ffffff;fill-opacity:1;fill-rule:nonzero;stroke:none" id="path20"/>
    <path d="M 130.855 195.247 L 215.234 244.013 C 216.648 244.758 218.999 244.758 220.453 244.013 L 359.649 163.642 L 366.531 166.812 L 366.583 158.779 C 366.583 158.183 366.146 157.639 365.485 157.189 L 276.316 105.725 C 274.882 104.929 272.535 104.929 271.06 105.725 L 126.029 189.512 C 125.335 189.897 124.963 190.416 124.963 190.994 L 124.963 199.017 L 130.855 199.017 L 130.855 195.247" style="fill:#b9caec;fill-opacity:1;fill-rule:nonzero;stroke:none" id="path84"/>
    <path d="M 215.234 251.936 C 216.648 252.733 218.999 252.733 220.453 251.936 L 365.485 168.214 C 366.948 167.38 366.948 166.054 365.485 165.153 L 276.316 113.697 C 274.882 112.863 272.535 112.863 271.06 113.697 L 126.029 197.49 C 124.607 198.289 124.607 199.599 126.029 200.486 L 215.234 251.936" style="fill:#ffffff;fill-opacity:1;fill-rule:nonzero;stroke:none" id="path86"/>
    <path d="M 269.434 156.457 L 262.561 152.46 L 204.831 185.847 L 211.677 189.815 L 269.434 156.457" style="fill:#bbbcbd;fill-opacity:1;fill-rule:nonzero;stroke:none" id="path88"/>
    <path d="M 217.505 236.611 L 210.732 232.752 L 203.882 236.611 L 210.732 240.532 L 217.505 236.611" style="fill:#bbbcbd;fill-opacity:1;fill-rule:nonzero;stroke:none" id="path90"/>
    <path d="M 230.304 229.225 L 223.554 225.306 L 216.704 229.225 L 223.554 233.117 L 230.304 229.225" style="fill:#bbbcbd;fill-opacity:1;fill-rule:nonzero;stroke:none" id="path92"/>
    <path d="M 207.675 230.971 L 200.902 227.013 L 194.124 230.971 L 200.902 234.86 L 207.675 230.971" style="fill:#bbbcbd;fill-opacity:1;fill-rule:nonzero;stroke:none" id="path94"/>
    <path d="M 209.643 220.167 L 202.812 216.269 L 185.745 226.104 L 192.574 230.085 L 209.643 220.167" style="fill:#bbbcbd;fill-opacity:1;fill-rule:nonzero;stroke:none" id="path96"/>
    <path d="M 201.23 215.321 L 194.461 211.463 L 177.441 221.291 L 184.203 225.185 L 201.23 215.321" style="fill:#bbbcbd;fill-opacity:1;fill-rule:nonzero;stroke:none" id="path98"/>
    <path d="M 192.722 210.413 L 185.941 206.476 L 168.857 216.354 L 175.714 220.327 L 192.722 210.413" style="fill:#bbbcbd;fill-opacity:1;fill-rule:nonzero;stroke:none" id="path100"/>
    <path d="M 238.883 224.243 L 232.05 220.399 L 225.24 224.243 L 232.05 228.241 L 238.883 224.243" style="fill:#bbbcbd;fill-opacity:1;fill-rule:nonzero;stroke:none" id="path102"/>
    <path d="M 247.371 219.385 L 240.635 215.443 L 233.789 219.385 L 240.635 223.312 L 247.371 219.385" style="fill:#bbbcbd;fill-opacity:1;fill-rule:nonzero;stroke:none" id="path104"/>
    <path d="M 255.887 214.443 L 249.149 210.494 L 242.344 214.443 L 249.149 218.309 L 255.887 214.443" style="fill:#bbbcbd;fill-opacity:1;fill-rule:nonzero;stroke:none" id="path106"/>
    <path d="M 218.001 225.062 L 211.168 221.061 L 204.387 225.062 L 211.168 228.992 L 218.001 225.062" style="fill:#bbbcbd;fill-opacity:1;fill-rule:nonzero;stroke:none" id="path108"/>
    <path d="M 226.507 220.132 L 219.68 216.186 L 212.919 220.132 L 219.68 223.988 L 226.507 220.132" style="fill:#bbbcbd;fill-opacity:1;fill-rule:nonzero;stroke:none" id="path110"/>
    <path d="M 235.094 215.14 L 228.265 211.174 L 221.491 215.14 L 228.265 219.061 L 235.094 215.14" style="fill:#bbbcbd;fill-opacity:1;fill-rule:nonzero;stroke:none" id="path112"/>
    <path d="M 243.586 210.24 L 236.812 206.295 L 229.959 210.24 L 236.812 214.154 L 243.586 210.24" style="fill:#bbbcbd;fill-opacity:1;fill-rule:nonzero;stroke:none" id="path114"/>
    <path d="M 252.134 205.299 L 245.352 201.396 L 238.507 205.299 L 245.352 209.185 L 252.134 205.299" style="fill:#bbbcbd;fill-opacity:1;fill-rule:nonzero;stroke:none" id="path116"/>
    <path d="M 260.645 200.326 L 253.845 196.405 L 247.099 200.326 L 253.845 204.275 L 260.645 200.326" style="fill:#bbbcbd;fill-opacity:1;fill-rule:nonzero;stroke:none" id="path118"/>
    <path d="M 269.214 195.451 L 262.417 191.521 L 255.639 195.451 L 262.417 199.387 L 269.214 195.451" style="fill:#bbbcbd;fill-opacity:1;fill-rule:nonzero;stroke:none" id="path120"/>
    <path d="M 277.754 190.532 L 270.976 186.604 L 264.183 190.532 L 270.976 194.435 L 277.754 190.532" style="fill:#bbbcbd;fill-opacity:1;fill-rule:nonzero;stroke:none" id="path122"/>
    <path d="M 286.015 185.709 L 279.244 181.836 L 272.383 185.709 L 279.244 189.624 L 286.015 185.709" style="fill:#bbbcbd;fill-opacity:1;fill-rule:nonzero;stroke:none" id="path124"/>
    <path d="M 294.59 180.828 L 287.776 176.897 L 280.951 180.828 L 287.776 184.714 L 294.59 180.828" style="fill:#bbbcbd;fill-opacity:1;fill-rule:nonzero;stroke:none" id="path126"/>
    <path d="M 303.118 175.841 L 296.272 171.947 L 289.487 175.841 L 296.272 179.749 L 303.118 175.841" style="fill:#bbbcbd;fill-opacity:1;fill-rule:nonzero;stroke:none" id="path128"/>
    <path d="M 311.67 170.881 L 304.864 166.982 L 298.059 170.881 L 304.864 174.839 L 311.67 170.881" style="fill:#bbbcbd;fill-opacity:1;fill-rule:nonzero;stroke:none" id="path130"/>
    <path d="M 320.17 166.054 L 313.376 162.162 L 306.559 166.054 L 313.376 169.956 L 320.17 166.054" style="fill:#bbbcbd;fill-opacity:1;fill-rule:nonzero;stroke:none" id="path132"/>
    <path d="M 328.714 161.139 L 321.924 157.179 L 315.135 161.139 L 321.924 165.006 L 328.714 161.139" style="fill:#bbbcbd;fill-opacity:1;fill-rule:nonzero;stroke:none" id="path134"/>
    <path d="M 209.823 210.413 L 202.977 206.476 L 196.18 210.413 L 202.977 214.338 L 209.823 210.413" style="fill:#bbbcbd;fill-opacity:1;fill-rule:nonzero;stroke:none" id="path136"/>
    <path d="M 218.39 205.49 L 211.513 201.557 L 204.739 205.49 L 211.513 209.392 L 218.39 205.49" style="fill:#bbbcbd;fill-opacity:1;fill-rule:nonzero;stroke:none" id="path138"/>
    <path d="M 226.887 200.592 L 220.052 196.643 L 213.284 200.592 L 220.052 204.517 L 226.887 200.592" style="fill:#bbbcbd;fill-opacity:1;fill-rule:nonzero;stroke:none" id="path140"/>
    <path d="M 235.375 195.628 L 228.604 191.763 L 221.8 195.628 L 228.604 199.599 L 235.375 195.628" style="fill:#bbbcbd;fill-opacity:1;fill-rule:nonzero;stroke:none" id="path142"/>
    <path d="M 243.958 190.734 L 237.137 186.807 L 230.388 190.734 L 237.137 194.672 L 243.958 190.734" style="fill:#bbbcbd;fill-opacity:1;fill-rule:nonzero;stroke:none" id="path144"/>
    <path d="M 252.507 185.812 L 245.661 181.896 L 238.883 185.812 L 245.661 189.72 L 252.507 185.812" style="fill:#bbbcbd;fill-opacity:1;fill-rule:nonzero;stroke:none" id="path146"/>
    <path d="M 261.011 180.88 L 254.249 176.935 L 247.439 180.88 L 254.249 184.832 L 261.011 180.88" style="fill:#bbbcbd;fill-opacity:1;fill-rule:nonzero;stroke:none" id="path148"/>
    <path d="M 269.274 176.113 L 262.501 172.163 L 255.747 176.113 L 262.501 180.03 L 269.274 176.113" style="fill:#bbbcbd;fill-opacity:1;fill-rule:nonzero;stroke:none" id="path150"/>
    <path d="M 277.858 171.126 L 271.013 167.229 L 264.195 171.126 L 271.013 175.086 L 277.858 171.126" style="fill:#bbbcbd;fill-opacity:1;fill-rule:nonzero;stroke:none" id="path152"/>
    <path d="M 286.387 166.227 L 279.589 162.258 L 272.764 166.227 L 279.589 170.115 L 286.387 166.227" style="fill:#bbbcbd;fill-opacity:1;fill-rule:nonzero;stroke:none" id="path154"/>
    <path d="M 294.931 161.312 L 288.108 157.366 L 281.304 161.312 L 288.108 165.232 L 294.931 161.312" style="fill:#bbbcbd;fill-opacity:1;fill-rule:nonzero;stroke:none" id="path156"/>
    <path d="M 303.442 156.405 L 296.681 152.46 L 289.823 156.405 L 296.681 160.271 L 303.442 156.405" style="fill:#bbbcbd;fill-opacity:1;fill-rule:nonzero;stroke:none" id="path158"/>
    <path d="M 201.23 205.49 L 194.461 201.557 L 187.64 205.49 L 194.461 209.392 L 201.23 205.49" style="fill:#bbbcbd;fill-opacity:1;fill-rule:nonzero;stroke:none" id="path160"/>
    <path d="M 209.823 200.592 L 202.977 196.643 L 196.18 200.592 L 202.977 204.517 L 209.823 200.592" style="fill:#bbbcbd;fill-opacity:1;fill-rule:nonzero;stroke:none" id="path162"/>
    <path d="M 218.39 195.628 L 211.513 191.763 L 204.739 195.628 L 211.513 199.599 L 218.39 195.628" style="fill:#bbbcbd;fill-opacity:1;fill-rule:nonzero;stroke:none" id="path164"/>
    <path d="M 226.887 190.734 L 220.052 186.807 L 213.284 190.734 L 220.052 194.672 L 226.887 190.734" style="fill:#bbbcbd;fill-opacity:1;fill-rule:nonzero;stroke:none" id="path166"/>
    <path d="M 235.375 185.812 L 228.604 181.896 L 221.8 185.812 L 228.604 189.72 L 235.375 185.812" style="fill:#bbbcbd;fill-opacity:1;fill-rule:nonzero;stroke:none" id="path168"/>
    <path d="M 243.958 180.88 L 237.137 176.935 L 230.388 180.88 L 237.137 184.832 L 243.958 180.88" style="fill:#bbbcbd;fill-opacity:1;fill-rule:nonzero;stroke:none" id="path170"/>
    <path d="M 252.507 175.893 L 245.661 171.991 L 238.883 175.893 L 245.661 179.861 L 252.507 175.893" style="fill:#bbbcbd;fill-opacity:1;fill-rule:nonzero;stroke:none" id="path172"/>
    <path d="M 260.77 171.126 L 253.969 167.229 L 247.163 171.126 L 253.969 175.086 L 260.77 171.126" style="fill:#bbbcbd;fill-opacity:1;fill-rule:nonzero;stroke:none" id="path174"/>
    <path d="M 269.274 166.227 L 262.501 162.258 L 255.747 166.227 L 262.501 170.115 L 269.274 166.227" style="fill:#bbbcbd;fill-opacity:1;fill-rule:nonzero;stroke:none" id="path176"/>
    <path d="M 277.858 161.312 L 271.013 157.366 L 264.195 161.312 L 271.013 165.232 L 277.858 161.312" style="fill:#bbbcbd;fill-opacity:1;fill-rule:nonzero;stroke:none" id="path178"/>
    <path d="M 286.387 156.405 L 279.589 152.46 L 272.764 156.405 L 279.589 160.271 L 286.387 156.405" style="fill:#bbbcbd;fill-opacity:1;fill-rule:nonzero;stroke:none" id="path180"/>
    <path d="M 294.931 151.414 L 288.108 147.46 L 281.304 151.414 L 288.108 155.326 L 294.931 151.414" style="fill:#bbbcbd;fill-opacity:1;fill-rule:nonzero;stroke:none" id="path182"/>
    <path d="M 311.966 141.583 L 305.165 137.697 L 289.823 146.506 L 296.681 150.441 L 311.966 141.583" style="fill:#bbbcbd;fill-opacity:1;fill-rule:nonzero;stroke:none" id="path184"/>
    <path d="M 175.714 210.494 L 168.985 206.571 L 160.409 211.522 L 167.25 215.443 L 175.714 210.494" style="fill:#bbbcbd;fill-opacity:1;fill-rule:nonzero;stroke:none" id="path186"/>
    <path d="M 192.882 200.65 L 186.049 196.69 L 179.276 200.65 L 186.049 204.581 L 192.882 200.65" style="fill:#bbbcbd;fill-opacity:1;fill-rule:nonzero;stroke:none" id="path188"/>
    <path d="M 184.29 205.642 L 177.513 201.592 L 170.715 205.642 L 177.513 209.519 L 184.29 205.642" style="fill:#bbbcbd;fill-opacity:1;fill-rule:nonzero;stroke:none" id="path190"/>
    <path d="M 201.438 195.665 L 194.561 191.707 L 187.8 195.665 L 194.561 199.621 L 201.438 195.665" style="fill:#bbbcbd;fill-opacity:1;fill-rule:nonzero;stroke:none" id="path192"/>
    <path d="M 209.983 190.701 L 203.109 186.729 L 196.34 190.701 L 203.109 194.672 L 209.983 190.701" style="fill:#bbbcbd;fill-opacity:1;fill-rule:nonzero;stroke:none" id="path194"/>
    <path d="M 277.954 151.497 L 271.177 147.585 L 264.347 151.497 L 271.177 155.416 L 277.954 151.497" style="fill:#bbbcbd;fill-opacity:1;fill-rule:nonzero;stroke:none" id="path196"/>
    <path d="M 286.551 146.552 L 279.737 142.605 L 272.907 146.552 L 279.737 150.493 L 286.551 146.552" style="fill:#bbbcbd;fill-opacity:1;fill-rule:nonzero;stroke:none" id="path198"/>
    <path d="M 303.595 136.702 L 296.798 132.783 L 281.432 141.629 L 288.253 145.614 L 303.595 136.702" style="fill:#bbbcbd;fill-opacity:1;fill-rule:nonzero;stroke:none" id="path200"/>
    <path d="M 320.435 146.462 L 313.597 142.554 L 298.271 151.362 L 305.089 155.308 L 320.435 146.462" style="fill:#bbbcbd;fill-opacity:1;fill-rule:nonzero;stroke:none" id="path202"/>
    <path d="M 328.85 151.311 L 322.033 147.416 L 306.706 156.221 L 313.52 160.142 L 328.85 151.311" style="fill:#bbbcbd;fill-opacity:1;fill-rule:nonzero;stroke:none" id="path204"/>
    <path d="M 337.246 156.164 L 330.448 152.202 L 323.631 156.164 L 330.448 160.037 L 337.246 156.164" style="fill:#bbbcbd;fill-opacity:1;fill-rule:nonzero;stroke:none" id="path206"/>
    <path d="M 218.15 215.248 L 211.365 211.375 L 204.551 215.248 L 211.365 219.225 L 218.15 215.248" style="fill:#bbbcbd;fill-opacity:1;fill-rule:nonzero;stroke:none" id="path208"/>
    <path d="M 226.742 210.377 L 219.868 206.406 L 213.107 210.377 L 219.868 214.246 L 226.742 210.377" style="fill:#bbbcbd;fill-opacity:1;fill-rule:nonzero;stroke:none" id="path210"/>
    <path d="M 235.211 205.411 L 228.421 201.448 L 221.591 205.411 L 228.421 209.303 L 235.211 205.411" style="fill:#bbbcbd;fill-opacity:1;fill-rule:nonzero;stroke:none" id="path212"/>
    <path d="M 243.81 200.486 L 236.953 196.534 L 230.191 200.486 L 236.953 204.384 L 243.81 200.486" style="fill:#bbbcbd;fill-opacity:1;fill-rule:nonzero;stroke:none" id="path214"/>
    <path d="M 252.314 195.604 L 245.505 191.595 L 238.72 195.604 L 245.505 199.478 L 252.314 195.604" style="fill:#bbbcbd;fill-opacity:1;fill-rule:nonzero;stroke:none" id="path216"/>
    <path d="M 260.911 190.665 L 254.101 186.668 L 247.256 190.665 L 254.101 194.56 L 260.911 190.665" style="fill:#bbbcbd;fill-opacity:1;fill-rule:nonzero;stroke:none" id="path218"/>
    <path d="M 269.435 185.643 L 262.56 181.712 L 255.811 185.643 L 262.56 189.624 L 269.435 185.643" style="fill:#bbbcbd;fill-opacity:1;fill-rule:nonzero;stroke:none" id="path220"/>
    <path d="M 277.694 180.928 L 270.845 176.935 L 264.083 180.928 L 270.845 184.832 L 277.694 180.928" style="fill:#bbbcbd;fill-opacity:1;fill-rule:nonzero;stroke:none" id="path222"/>
    <path d="M 286.185 175.997 L 279.4 172.063 L 272.61 175.997 L 279.4 179.861 L 286.185 175.997" style="fill:#bbbcbd;fill-opacity:1;fill-rule:nonzero;stroke:none" id="path224"/>
    <path d="M 294.79 171.058 L 287.932 167.137 L 281.143 171.058 L 287.932 175.034 L 294.79 171.058" style="fill:#bbbcbd;fill-opacity:1;fill-rule:nonzero;stroke:none" id="path226"/>
    <path d="M 303.255 166.126 L 296.469 162.197 L 289.663 166.126 L 296.469 170.093 L 303.255 166.126" style="fill:#bbbcbd;fill-opacity:1;fill-rule:nonzero;stroke:none" id="path228"/>
    <path d="M 311.862 161.164 L 304.996 157.262 L 298.223 161.164 L 304.996 165.124 L 311.862 161.164" style="fill:#bbbcbd;fill-opacity:1;fill-rule:nonzero;stroke:none" id="path230"/>
    <path d="M 268.742 207.032 L 261.939 203.104 L 255.102 207.032 L 261.939 210.957 L 268.742 207.032" style="fill:#bbbcbd;fill-opacity:1;fill-rule:nonzero;stroke:none" id="path232"/>
    <path d="M 277.273 202.118 L 270.484 198.16 L 263.679 202.118 L 270.484 206.012 L 277.273 202.118" style="fill:#bbbcbd;fill-opacity:1;fill-rule:nonzero;stroke:none" id="path234"/>
    <path d="M 285.801 197.218 L 279.024 193.241 L 272.174 197.218 L 279.024 201.085 L 285.801 197.218" style="fill:#bbbcbd;fill-opacity:1;fill-rule:nonzero;stroke:none" id="path236"/>
    <path d="M 294.353 192.239 L 287.564 188.293 L 280.706 192.239 L 287.564 196.164 L 294.353 192.239" style="fill:#bbbcbd;fill-opacity:1;fill-rule:nonzero;stroke:none" id="path238"/>
    <path d="M 307.127 184.832 L 300.338 180.928 L 293.56 184.832 L 300.338 188.799 L 307.127 184.832" style="fill:#bbbcbd;fill-opacity:1;fill-rule:nonzero;stroke:none" id="path240"/>
    <path d="M 315.676 179.918 L 308.897 175.997 L 302.093 179.918 L 308.897 183.884 L 315.676 179.918" style="fill:#bbbcbd;fill-opacity:1;fill-rule:nonzero;stroke:none" id="path242"/>
    <path d="M 324.184 175.034 L 317.414 171.058 L 310.576 175.034 L 317.414 178.98 L 324.184 175.034" style="fill:#bbbcbd;fill-opacity:1;fill-rule:nonzero;stroke:none" id="path244"/>
    <path d="M 332.775 170.093 L 325.91 166.126 L 319.125 170.093 L 325.91 173.97 L 332.775 170.093" style="fill:#bbbcbd;fill-opacity:1;fill-rule:nonzero;stroke:none" id="path246"/>
    <path d="M 347.079 161.8 L 340.269 157.894 L 327.772 165.124 L 334.534 169.056 L 347.079 161.8" style="fill:#bbbcbd;fill-opacity:1;fill-rule:nonzero;stroke:none" id="path248"/>
    <path d="M 247.323 157.262 L 226.462 145.277 L 182.3 170.789 L 203.149 182.817 L 247.323 157.262" style="fill:#bbbcbd;fill-opacity:1;fill-rule:nonzero;stroke:none" id="path250"/>
    <path d="M 153.287 193.354 L 147.178 189.815 L 140.773 193.488 L 146.862 197.05 L 153.287 193.354" style="fill:#faef5b;fill-opacity:1;fill-rule:nonzero;stroke:none" id="path252"/>
    <path d="M 145.588 197.771 L 139.499 194.247 L 133.126 197.936 L 139.183 201.448 L 145.588 197.771" style="fill:#9cd9f6;fill-opacity:1;fill-rule:nonzero;stroke:none" id="path254"/>
    <path d="M 223.718 363.004 C 224.091 363.248 224.799 363.248 225.588 362.868 L 370.613 279.082 C 372.122 278.253 373.276 276.242 373.276 274.52 L 373.276 171.638 C 373.276 170.789 372.972 170.155 372.523 169.956 L 372.523 169.883 L 368.218 167.432 L 367.26 172.063 L 225.588 253.798 C 224.091 254.684 223.001 256.67 223.001 258.353 L 223.001 356.996 L 222.143 356.299 L 219.304 360.42 L 223.65 363.004 L 223.718 363.004" style="fill:#b9caec;fill-opacity:1;fill-rule:nonzero;stroke:none" id="path256"/>
    <path d="M 221.219 360.329 L 366.294 276.599 C 367.772 275.713 368.922 273.702 368.922 272.004 L 368.922 169.078 C 368.922 167.432 367.772 166.728 366.294 167.544 L 221.219 251.315 C 219.78 252.136 218.635 254.207 218.635 255.849 L 218.695 358.79 C 218.695 360.508 219.78 361.205 221.219 360.329" style="fill:#f8f8f8;fill-opacity:1;fill-rule:nonzero;stroke:none" id="path258"/>
    <path d="M 227.587 264.994 L 362.594 187.092 L 362.594 184.537 L 225.26 263.813 L 225.26 350.635 L 227.587 349.273 L 227.587 264.994" style="fill:#b9caec;fill-opacity:1;fill-rule:nonzero;stroke:none" id="path260"/>
    <path d="M 362.594 187.092 L 227.587 264.994 L 227.587 349.273 L 362.661 271.347 L 362.594 187.092" style="fill:#9cd9f6;fill-opacity:1;fill-rule:nonzero;stroke:none" id="path262"/>
    <path d="M 258.855 235.488 L 225.26 254.92 L 225.26 258.622 L 258.855 239.278 L 258.855 235.488" style="fill:#dfe8f7;fill-opacity:1;fill-rule:nonzero;stroke:none" id="path264"/>
    <path d="M 313.889 253.979 L 291.009 267.193 L 291.009 268.174 L 313.889 254.964 L 313.889 253.979" style="fill:#d6f1fc;fill-opacity:1;fill-rule:nonzero;stroke:none" id="path266"/>
    <path d="M 306.41 254.235 L 291.009 263.136 L 291.009 264.117 L 306.41 255.225 L 306.41 254.235" style="fill:#d6f1fc;fill-opacity:1;fill-rule:nonzero;stroke:none" id="path268"/>
    <path d="M 300.438 259.711 L 291.009 265.159 L 291.009 266.144 L 300.438 260.7 L 300.438 259.711" style="fill:#d6f1fc;fill-opacity:1;fill-rule:nonzero;stroke:none" id="path270"/>
    <path d="M 359.577 265.936 L 322.497 287.342 L 322.497 289.881 L 359.577 268.475 L 359.577 265.936" style="fill:#d6f1fc;fill-opacity:1;fill-rule:nonzero;stroke:none" id="path272"/>
    <path d="M 358.89 252.485 C 358.758 252.485 358.613 252.526 358.46 252.613 L 333.236 267.173 L 333.236 270.246 L 358.46 255.677 C 359.072 255.324 359.565 254.355 359.565 253.514 L 359.565 253.49 C 359.565 252.859 359.288 252.484 358.89 252.485" style="fill:#d6f1fc;fill-opacity:1;fill-rule:nonzero;stroke:none" id="path274"/>
    <path d="M 328.06 273.234 L 333.236 270.246 L 333.236 267.173 L 328.049 270.173 C 327.557 269.36 326.575 269.16 325.429 269.821 C 323.799 270.766 322.476 273.054 322.476 274.932 C 322.476 276.815 323.799 277.584 325.433 276.643 C 326.587 275.974 327.58 274.632 328.06 273.234" style="fill:#ec453b;fill-opacity:1;fill-rule:nonzero;stroke:none" id="path276"/>
    <path d="M 355.863 258.413 L 354.438 259.238 L 354.438 263.76 L 355.863 262.935 L 355.863 258.413" style="fill:#d6f1fc;fill-opacity:1;fill-rule:nonzero;stroke:none" id="path278"/>
    <path d="M 346.467 263.84 L 345.049 264.662 L 345.049 269.176 L 346.467 268.359 L 346.467 263.84" style="fill:#d6f1fc;fill-opacity:1;fill-rule:nonzero;stroke:none" id="path280"/>
    <path d="M 337.069 269.26 L 335.647 270.081 L 335.647 274.604 L 337.069 273.786 L 337.069 269.26" style="fill:#d6f1fc;fill-opacity:1;fill-rule:nonzero;stroke:none" id="path282"/>
    <path d="M 341.953 266.44 L 340.531 267.261 L 340.531 269.521 L 341.953 268.699 L 341.953 266.44" style="fill:#d6f1fc;fill-opacity:1;fill-rule:nonzero;stroke:none" id="path284"/>
    <path d="M 351.197 261.109 L 349.768 261.93 L 349.768 264.193 L 351.197 263.372 L 351.197 261.109" style="fill:#d6f1fc;fill-opacity:1;fill-rule:nonzero;stroke:none" id="path286"/>
    <path d="M 359.577 239.983 L 322.497 261.377 L 322.497 262.799 L 359.577 241.393 L 359.577 239.983" style="fill:#d6f1fc;fill-opacity:1;fill-rule:nonzero;stroke:none" id="path288"/>
    <path d="M 335.483 250.662 L 322.497 258.153 L 322.497 259.575 L 335.483 252.076 L 335.483 250.662" style="fill:#d6f1fc;fill-opacity:1;fill-rule:nonzero;stroke:none" id="path290"/>
    <path d="M 359.577 233.534 L 322.497 254.928 L 322.497 256.346 L 359.577 234.939 L 359.577 233.534" style="fill:#d6f1fc;fill-opacity:1;fill-rule:nonzero;stroke:none" id="path292"/>
    <path d="M 359.577 230.301 L 322.497 251.704 L 322.497 253.121 L 359.577 231.711 L 359.577 230.301" style="fill:#d6f1fc;fill-opacity:1;fill-rule:nonzero;stroke:none" id="path294"/>
    <path d="M 359.577 227.077 L 322.497 248.475 L 322.497 249.893 L 359.577 228.491 L 359.577 227.077" style="fill:#d6f1fc;fill-opacity:1;fill-rule:nonzero;stroke:none" id="path296"/>
    <path d="M 347.107 231.045 L 322.497 245.254 L 322.497 246.668 L 347.107 232.464 L 347.107 231.045" style="fill:#d6f1fc;fill-opacity:1;fill-rule:nonzero;stroke:none" id="path298"/>
    <path d="M 359.577 190.32 L 322.497 211.723 L 322.497 242.142 L 359.577 220.736 L 359.577 190.32 M 323.671 235.501 L 323.671 212.633 L 358.388 192.576 L 358.388 215.46 L 323.671 235.501" style="fill:#d6f1fc;fill-opacity:1;fill-rule:nonzero;stroke:none" id="path300"/>
    <path d="M 326.963 217.194 C 327.015 217.487 327.256 217.626 327.62 217.664 L 333.469 214.281 C 333.833 213.83 334.077 213.406 334.126 213.057 L 326.963 217.194 Z M 333.452 212.311 L 327.637 215.672 C 327.261 216.134 327.015 216.566 326.963 216.922 L 334.126 212.789 C 334.069 212.483 333.821 212.349 333.452 212.311 L 333.452 212.311 Z M 330.733 212.789 L 330.545 212.833 L 330.364 213.009 C 329.579 213.701 328.746 214.443 328.097 215.14 L 332.992 212.319 C 332.343 212.365 331.505 212.585 330.733 212.789 L 330.733 212.789 Z M 332.96 209.737 L 328.125 212.529 C 328.769 212.556 329.668 212.336 330.545 212.115 C 331.418 211.325 332.315 210.504 332.96 209.737 Z M 333.817 208.307 L 327.264 212.088 C 327.348 212.292 327.516 212.408 327.76 212.473 L 333.333 209.259 C 333.568 208.922 333.745 208.598 333.817 208.307 Z M 330.364 217.184 L 330.545 217.138 L 330.733 216.974 C 331.514 216.261 332.358 215.513 333.012 214.808 L 328.073 217.664 C 328.722 217.62 329.566 217.392 330.364 217.184 Z M 328.138 220.228 L 332.952 217.443 C 332.307 217.427 331.414 217.635 330.545 217.859 C 329.671 218.646 328.778 219.462 328.138 220.228 L 328.138 220.228 Z M 327.228 221.874 L 333.857 218.053 C 333.817 217.743 333.62 217.574 333.328 217.495 L 327.765 220.703 C 327.464 221.121 327.268 221.521 327.228 221.874 Z M 327.765 222.678 L 333.328 219.471 C 333.616 219.053 333.812 218.664 333.853 218.309 L 327.232 222.134 C 327.271 222.441 327.468 222.605 327.765 222.678 Z M 330.545 222.314 C 331.414 221.528 332.307 220.712 332.952 219.955 L 328.138 222.73 C 328.778 222.751 329.671 222.539 330.545 222.314 L 330.545 222.314 Z M 328.097 225.341 L 332.992 222.514 C 332.343 222.565 331.505 222.782 330.733 222.99 L 330.545 223.04 L 330.364 223.2 C 329.579 223.904 328.746 224.645 328.097 225.341 L 328.097 225.341 Z M 326.963 227.125 L 334.126 222.983 C 334.077 222.687 333.821 222.547 333.452 222.514 L 327.637 225.875 C 327.261 226.335 327.015 226.761 326.963 227.125 L 326.963 227.125 Z M 327.62 227.861 L 333.469 224.48 C 333.833 224.031 334.077 223.607 334.126 223.252 L 326.963 227.385 C 327.015 227.682 327.256 227.83 327.62 227.861 Z M 330.364 227.385 L 330.545 227.341 L 330.733 227.168 C 331.514 226.464 332.358 225.715 333.012 225.011 L 328.073 227.861 C 328.726 227.817 329.566 227.593 330.364 227.385 L 330.364 227.385 Z M 328.144 230.41 L 332.944 227.649 C 332.299 227.63 331.41 227.838 330.545 228.062 C 329.679 228.84 328.786 229.648 328.144 230.41 Z M 327.264 231.888 L 333.821 228.098 C 333.748 227.881 333.564 227.757 333.32 227.692 L 327.772 230.898 C 327.524 231.243 327.344 231.576 327.264 231.888 Z M 334.666 212.608 C 334.666 213.966 333.296 215.373 331.666 216.865 C 333.184 216.522 334.398 216.498 334.398 217.859 C 334.398 219.225 333.184 220.6 331.666 222.025 C 333.296 221.62 334.666 221.449 334.666 222.803 C 334.666 224.16 333.296 225.578 331.666 227.056 C 333.184 226.724 334.398 226.701 334.398 228.062 L 333.865 228.366 L 333.86 228.339 L 327.224 232.172 L 327.22 232.208 L 326.694 232.509 C 326.694 231.141 327.9 229.78 329.423 228.349 C 327.792 228.755 326.414 228.923 326.414 227.565 C 326.414 226.208 327.792 224.801 329.423 223.318 C 327.9 223.651 326.694 223.676 326.694 222.314 C 326.694 220.953 327.9 219.574 329.423 218.148 C 327.792 218.556 326.414 218.724 326.414 217.371 C 326.414 216.018 327.792 214.596 329.423 213.117 C 327.9 213.45 326.694 213.481 326.694 212.115 L 327.22 211.808 L 327.224 211.852 L 333.86 208.022 L 333.865 207.979 L 334.398 207.664 C 334.398 209.03 333.184 210.394 331.666 211.822 C 333.296 211.419 334.666 211.255 334.666 212.608" style="fill:#ec453b;fill-opacity:1;fill-rule:nonzero;stroke:none" id="path302"/>
    <path d="M 281.592 257.736 L 255.655 272.713 L 255.655 274.483 L 281.592 259.511 L 281.592 257.736" style="fill:#d6f1fc;fill-opacity:1;fill-rule:nonzero;stroke:none" id="path304"/>
    <path d="M 278.531 256.462 L 255.655 269.677 L 255.655 270.662 L 278.531 257.459 L 278.531 256.462" style="fill:#d6f1fc;fill-opacity:1;fill-rule:nonzero;stroke:none" id="path306"/>
    <path d="M 281.592 252.785 L 255.655 267.766 L 255.655 268.751 L 281.592 253.782 L 281.592 252.785" style="fill:#d6f1fc;fill-opacity:1;fill-rule:nonzero;stroke:none" id="path308"/>
    <path d="M 278.531 252.649 L 255.655 265.851 L 255.655 266.837 L 278.531 253.634 L 278.531 252.649" style="fill:#d6f1fc;fill-opacity:1;fill-rule:nonzero;stroke:none" id="path310"/>
    <path d="M 271.053 255.056 L 255.655 263.945 L 255.655 264.938 L 271.053 256.038 L 271.053 255.056" style="fill:#d6f1fc;fill-opacity:1;fill-rule:nonzero;stroke:none" id="path312"/>
    <path d="M 265.08 256.583 L 255.655 262.026 L 255.655 263.023 L 265.08 257.58 L 265.08 256.583" style="fill:#d6f1fc;fill-opacity:1;fill-rule:nonzero;stroke:none" id="path314"/>
    <path d="M 278.531 246.909 L 255.655 260.124 L 255.655 261.117 L 278.531 247.898 L 278.531 246.909" style="fill:#d6f1fc;fill-opacity:1;fill-rule:nonzero;stroke:none" id="path316"/>
    <path d="M 357.134 209.789 L 337.041 221.39 L 337.041 223.154 L 357.134 211.562 L 357.134 209.789" style="fill:#d6f1fc;fill-opacity:1;fill-rule:nonzero;stroke:none" id="path318"/>
    <path d="M 357.134 206.748 L 337.041 218.344 L 337.041 219.333 L 357.134 207.741 L 357.134 206.748" style="fill:#d6f1fc;fill-opacity:1;fill-rule:nonzero;stroke:none" id="path320"/>
    <path d="M 357.134 204.837 L 337.041 216.441 L 337.041 217.427 L 357.134 205.835 L 357.134 204.837" style="fill:#d6f1fc;fill-opacity:1;fill-rule:nonzero;stroke:none" id="path322"/>
    <path d="M 357.134 202.935 L 337.041 214.531 L 337.041 215.521 L 357.134 203.929 L 357.134 202.935" style="fill:#d6f1fc;fill-opacity:1;fill-rule:nonzero;stroke:none" id="path324"/>
    <path d="M 352.442 203.727 L 337.041 212.616 L 337.041 213.614 L 352.442 204.721 L 352.442 203.727" style="fill:#d6f1fc;fill-opacity:1;fill-rule:nonzero;stroke:none" id="path326"/>
    <path d="M 346.467 205.262 L 337.041 210.714 L 337.041 211.708 L 346.467 206.259 L 346.467 205.262" style="fill:#d6f1fc;fill-opacity:1;fill-rule:nonzero;stroke:none" id="path328"/>
    <path d="M 357.134 197.203 L 337.041 208.808 L 337.041 209.789 L 357.134 198.187 L 357.134 197.203" style="fill:#d6f1fc;fill-opacity:1;fill-rule:nonzero;stroke:none" id="path330"/>
    <path d="M 281.592 294.732 L 255.655 309.713 L 255.655 310.698 L 281.592 295.73 L 281.592 294.732" style="fill:#d6f1fc;fill-opacity:1;fill-rule:nonzero;stroke:none" id="path332"/>
    <path d="M 281.592 298.722 L 255.655 313.703 L 255.655 316.811 L 281.592 301.834 L 281.592 298.722" style="fill:#d6f1fc;fill-opacity:1;fill-rule:nonzero;stroke:none" id="path334"/>
    <path d="M 278.531 294.596 L 255.655 307.803 L 255.655 308.796 L 278.531 295.582 L 278.531 294.596" style="fill:#d6f1fc;fill-opacity:1;fill-rule:nonzero;stroke:none" id="path336"/>
    <path d="M 271.053 297.003 L 255.655 305.892 L 255.655 306.885 L 271.053 297.984 L 271.053 297.003" style="fill:#d6f1fc;fill-opacity:1;fill-rule:nonzero;stroke:none" id="path338"/>
    <path d="M 265.08 298.538 L 255.655 303.973 L 255.655 304.974 L 265.08 299.531 L 265.08 298.538" style="fill:#d6f1fc;fill-opacity:1;fill-rule:nonzero;stroke:none" id="path340"/>
    <path d="M 278.531 288.855 L 255.655 302.079 L 255.655 303.064 L 278.531 289.853 L 278.531 288.855" style="fill:#d6f1fc;fill-opacity:1;fill-rule:nonzero;stroke:none" id="path342"/>
    <path d="M 281.592 265.627 L 255.655 280.612 L 255.655 297.364 L 281.592 282.391 L 281.592 265.627 M 278.916 270.254 L 278.916 268.283 L 280.762 267.217 L 280.762 269.196 L 278.916 270.254 M 276.621 271.58 L 276.621 269.612 L 278.683 268.419 L 278.683 270.398 L 276.621 271.58 M 278.916 272.225 L 278.916 270.534 L 280.762 269.464 L 280.762 271.155 L 278.916 272.225 M 274.326 272.897 L 274.326 270.942 L 276.384 269.749 L 276.384 271.719 L 274.326 272.897 M 276.621 273.542 L 276.621 271.855 L 278.683 270.67 L 278.683 272.361 L 276.621 273.542 M 272.034 274.223 L 272.034 272.26 L 274.089 271.075 L 274.089 273.045 L 272.034 274.223 M 278.916 274.179 L 278.916 272.497 L 280.762 271.439 L 280.762 273.118 L 278.916 274.179 M 274.326 274.864 L 274.326 273.182 L 276.384 271.988 L 276.384 273.687 L 274.326 274.864 M 269.738 275.549 L 269.738 273.582 L 271.789 272.393 L 271.789 274.363 L 269.738 275.549 M 276.621 275.517 L 276.621 273.826 L 278.683 272.641 L 278.683 274.332 L 276.621 275.517 M 272.034 276.19 L 272.034 274.5 L 274.089 273.314 L 274.089 275.004 L 272.034 276.19 M 278.916 276.154 L 278.916 274.463 L 280.762 273.402 L 280.762 275.081 L 278.916 276.154 M 267.448 276.879 L 267.448 274.908 L 269.503 273.723 L 269.503 275.686 L 267.448 276.879 M 274.326 276.835 L 274.326 275.145 L 276.384 273.959 L 276.384 275.657 L 274.326 276.835 M 276.621 277.472 L 276.621 275.782 L 278.683 274.596 L 278.683 276.286 L 276.621 277.472 M 269.738 277.508 L 269.738 275.825 L 271.789 274.64 L 271.789 276.338 L 269.738 277.508 M 265.148 278.197 L 265.148 276.234 L 267.208 275.044 L 267.208 277.015 L 265.148 278.197 M 272.034 278.152 L 272.034 276.47 L 274.089 275.281 L 274.089 276.971 L 272.034 278.152 M 278.916 278.117 L 278.916 276.426 L 280.762 275.369 L 280.762 277.047 L 278.916 278.117 M 274.326 278.802 L 274.326 277.111 L 276.384 275.921 L 276.384 277.62 L 274.326 278.802 M 267.448 278.837 L 267.448 277.143 L 269.503 275.965 L 269.503 277.656 L 267.448 278.837 M 262.865 279.519 L 262.865 277.552 L 264.916 276.374 L 264.916 278.333 L 262.865 279.519 M 276.621 279.442 L 276.621 277.752 L 278.683 276.562 L 278.683 278.261 L 276.621 279.442 M 269.738 279.478 L 269.738 277.788 L 271.789 276.607 L 271.789 278.297 L 269.738 279.478 M 272.034 280.124 L 272.034 278.433 L 274.089 277.251 L 274.089 278.938 L 272.034 280.124 M 265.148 280.16 L 265.148 278.481 L 267.208 277.284 L 267.208 278.974 L 265.148 280.16 M 278.916 280.084 L 278.916 278.393 L 280.762 277.328 L 280.762 279.01 L 278.916 280.084 M 260.565 280.845 L 260.565 278.886 L 262.62 277.692 L 262.62 279.659 L 260.565 280.845 M 274.326 280.761 L 274.326 279.082 L 276.384 277.889 L 276.384 279.579 L 274.326 280.761 M 267.448 280.808 L 267.448 279.11 L 269.503 277.924 L 269.503 279.615 L 267.448 280.808 M 276.621 281.405 L 276.621 279.715 L 278.683 278.534 L 278.683 280.231 L 276.621 281.405 M 269.738 281.453 L 269.738 279.763 L 271.789 278.569 L 271.789 280.256 L 269.738 281.453 M 262.865 281.49 L 262.865 279.799 L 264.916 278.613 L 264.916 280.299 L 262.865 281.49 M 258.27 282.17 L 258.27 280.203 L 260.33 279.018 L 260.33 280.981 L 258.27 282.17 M 272.034 282.082 L 272.034 280.392 L 274.089 279.206 L 274.089 280.896 L 272.034 282.082 M 265.148 282.126 L 265.148 280.436 L 267.208 279.242 L 267.208 280.944 L 265.148 282.126 M 278.916 282.687 L 278.916 280.355 L 280.762 279.29 L 280.762 281.618 L 278.916 282.687 M 274.326 282.727 L 274.326 281.045 L 276.384 279.851 L 276.384 281.549 L 274.326 282.727 M 267.448 282.772 L 267.448 281.081 L 269.503 279.887 L 269.503 281.585 L 267.448 282.772 M 260.565 282.807 L 260.565 281.117 L 262.62 279.939 L 262.62 281.618 L 260.565 282.807 M 256.476 283.204 L 256.476 281.241 L 258.026 280.344 L 258.026 282.311 L 256.476 283.204 M 276.621 284.017 L 276.621 281.686 L 278.683 280.5 L 278.683 282.823 L 276.621 284.017 M 269.738 283.408 L 269.738 281.722 L 271.789 280.536 L 271.789 282.227 L 269.738 283.408 M 262.865 283.444 L 262.865 281.754 L 264.916 280.572 L 264.916 282.263 L 262.865 283.444 M 272.034 284.053 L 272.034 282.363 L 274.089 281.177 L 274.089 282.868 L 272.034 284.053 M 265.148 284.089 L 265.148 282.406 L 267.208 281.213 L 267.208 282.903 L 265.148 284.089 M 258.27 284.133 L 258.27 282.443 L 260.33 281.253 L 260.33 282.94 L 258.27 284.133 M 274.326 285.335 L 274.326 283.003 L 276.384 281.822 L 276.384 284.149 L 274.326 285.335 M 267.448 284.734 L 267.448 283.051 L 269.503 281.854 L 269.503 283.544 L 267.448 284.734 M 260.565 284.774 L 260.565 283.088 L 262.62 281.902 L 262.62 283.584 L 260.565 284.774 M 269.738 285.379 L 269.738 283.68 L 271.789 282.495 L 271.789 284.186 L 269.738 285.379 M 262.865 285.415 L 262.865 283.725 L 264.916 282.543 L 264.916 284.233 L 262.865 285.415 M 256.476 285.167 L 256.476 283.476 L 258.026 282.579 L 258.026 284.261 L 256.476 285.167 M 272.034 286.652 L 272.034 284.333 L 274.089 283.144 L 274.089 285.467 L 272.034 286.652 M 265.148 286.06 L 265.148 284.37 L 267.208 283.187 L 267.208 284.866 L 265.148 286.06 M 258.27 286.096 L 258.27 284.405 L 260.33 283.22 L 260.33 284.911 L 258.27 286.096 M 267.448 286.697 L 267.448 285.006 L 269.503 283.825 L 269.503 285.515 L 267.448 286.697 M 260.565 286.741 L 260.565 285.043 L 262.62 283.861 L 262.62 285.555 L 260.565 286.741 M 269.738 287.982 L 269.738 285.651 L 271.789 284.47 L 271.789 286.797 L 269.738 287.982 M 262.865 287.377 L 262.865 285.688 L 264.916 284.505 L 264.916 286.196 L 262.865 287.377 M 256.476 287.133 L 256.476 285.443 L 258.026 284.538 L 258.026 286.228 L 256.476 287.133 M 265.148 288.015 L 265.148 286.34 L 267.208 285.146 L 267.208 286.837 L 265.148 288.015 M 258.27 288.055 L 258.27 286.373 L 260.33 285.183 L 260.33 286.881 L 258.27 288.055 M 267.448 289.308 L 267.448 286.981 L 269.503 285.787 L 269.503 288.131 L 267.448 289.308 M 260.565 288.708 L 260.565 287.018 L 262.62 285.824 L 262.62 287.514 L 260.565 288.708 M 262.865 289.352 L 262.865 287.662 L 264.916 286.477 L 264.916 288.155 L 262.865 289.352 M 256.476 289.092 L 256.476 287.406 L 258.026 286.509 L 258.026 288.199 L 256.476 289.092 M 265.148 290.634 L 265.148 288.299 L 267.208 287.114 L 267.208 289.449 L 265.148 290.634 M 258.27 290.025 L 258.27 288.335 L 260.33 287.149 L 260.33 288.839 L 258.27 290.025 M 260.565 290.67 L 260.565 288.98 L 262.62 287.794 L 262.62 289.484 L 260.565 290.67 M 262.865 291.96 L 262.865 289.617 L 264.916 288.431 L 264.916 290.767 L 262.865 291.96 M 256.476 291.067 L 256.476 289.369 L 258.026 288.471 L 258.026 290.158 L 256.476 291.067 M 258.27 291.988 L 258.27 290.306 L 260.33 289.116 L 260.33 290.803 L 258.27 291.988 M 260.565 293.286 L 260.565 290.946 L 262.62 289.757 L 262.62 292.096 L 260.565 293.286 M 256.476 293.026 L 256.476 291.335 L 258.026 290.442 L 258.026 292.132 L 256.476 293.026 M 258.27 294.604 L 258.27 292.269 L 260.33 291.087 L 260.33 293.422 L 258.27 294.604 M 256.476 295.638 L 256.476 293.306 L 258.026 292.405 L 258.026 294.74 L 256.476 295.638" style="fill:#d6f1fc;fill-opacity:1;fill-rule:nonzero;stroke:none" id="path344"/>
    <path d="M 276.003 279.01 L 270.989 276.535 L 269.194 278.886 L 269.194 280.973 L 264.608 284.017 L 262.108 281.089 L 256.476 281.694 L 256.476 281.205 L 262.309 280.596 L 264.695 283.384 L 268.71 280.708 L 268.71 278.722 L 270.849 275.933 L 276.02 278.481 L 280.762 276.442 L 280.762 276.955 L 276.003 279.01" style="fill:#ec453b;fill-opacity:1;fill-rule:nonzero;stroke:none" id="path346"/>
    <path d="M 262.231 281.73 C 261.811 281.966 261.471 281.77 261.471 281.277 C 261.471 280.8 261.811 280.203 262.231 279.951 C 262.657 279.707 263.005 279.911 263.005 280.404 C 263.005 280.888 262.657 281.477 262.231 281.73" style="fill:#ec453b;fill-opacity:1;fill-rule:nonzero;stroke:none" id="path348"/>
    <path d="M 264.721 284.277 C 264.295 284.514 263.958 284.317 263.958 283.837 C 263.958 283.344 264.295 282.751 264.721 282.507 C 265.148 282.263 265.492 282.451 265.492 282.939 C 265.492 283.436 265.148 284.029 264.721 284.277" style="fill:#ec453b;fill-opacity:1;fill-rule:nonzero;stroke:none" id="path350"/>
    <path d="M 276.092 279.551 C 275.671 279.799 275.331 279.595 275.331 279.11 C 275.331 278.621 275.671 278.025 276.092 277.78 C 276.517 277.544 276.861 277.744 276.861 278.221 C 276.861 278.722 276.517 279.322 276.092 279.551" style="fill:#ec453b;fill-opacity:1;fill-rule:nonzero;stroke:none" id="path352"/>
    <path d="M 246.112 259.153 C 245.812 259.153 245.075 259.596 244.804 259.807 C 244.46 260.071 243.967 260.708 243.702 260.908 C 243.43 261.088 243.005 261.177 242.798 261.377 C 242.6 261.578 242.364 262.247 242.385 262.487 C 242.396 262.711 242.528 262.956 242.584 263.336 C 242.852 265.495 242.088 269.821 242.14 270.662 C 242.188 271.512 242.413 272.08 242.396 272.889 C 242.381 273.702 241.395 278.333 241.483 283.356 C 241.264 283.484 240.882 283.689 240.706 283.809 C 241.114 278.357 240.205 274.476 240.233 273.73 C 240.253 272.993 240.43 272.42 240.529 271.303 C 240.613 270.322 240.121 269.252 240.081 264.91 C 240.069 264.578 240.337 263.304 240.205 263.076 C 240.18 263.031 240.129 263.013 240.062 263.013 C 239.792 263.013 239.275 263.304 239.275 263.304 C 239.275 263.304 239.219 263.299 239.128 263.299 C 238.887 263.299 238.401 263.332 238.05 263.576 C 237.573 263.909 237.028 264.221 236.976 264.578 C 236.929 264.938 238.402 265.063 238.619 265.607 C 238.831 266.16 238.09 274.52 238.09 275.072 C 238.087 275.613 238.194 276.018 238.238 276.411 C 238.295 276.799 237.245 282.018 237.461 287.867 C 237.497 288.855 238.295 292.701 238.295 292.701 L 237.706 295.305 C 237.706 295.305 237.549 293.823 237.461 293.062 C 237.337 290.73 236.628 290.122 236.075 288.255 C 236.075 288.255 236.132 287.971 236.119 287.678 C 236.111 287.386 235.888 285.892 235.595 285.779 C 235.541 285.759 235.452 285.749 235.341 285.749 C 234.85 285.749 233.932 285.937 233.771 286.176 C 233.572 286.457 233.632 287.386 233.709 287.566 C 233.796 287.75 234.076 288.355 234.213 288.66 C 234.349 288.98 234.666 288.96 234.742 289.048 C 235.379 291.087 235.33 293.125 235.619 294.56 C 236.132 296.659 235.755 301.193 236.392 301.646 C 236.482 301.708 236.607 301.734 236.753 301.734 C 237.43 301.734 238.543 301.177 238.543 301.177 C 238.565 301.177 240.108 301.185 239.865 303.509 C 239.865 303.509 239.688 303.681 239.596 303.921 C 239.516 304.186 239.396 304.982 239.44 305.119 C 239.469 305.198 239.539 305.214 239.591 305.214 C 239.626 305.214 239.652 305.207 239.652 305.207 C 239.652 305.207 239.286 306.863 240.327 306.863 C 240.601 306.863 240.971 306.749 241.471 306.461 C 243.481 305.303 243.193 303.164 243.181 302.92 C 243.314 302.315 243.117 300.5 242.688 300.019 C 242.679 300.006 242.662 300 242.641 300 C 242.516 300 242.227 300.2 242.227 300.2 L 242.227 299.919 C 243.014 298.994 243.999 297.853 243.999 297.853 C 243.999 297.853 245.436 297.22 245.921 295.765 C 246.398 294.308 245.857 292.201 246.418 288.463 C 246.843 287.166 246.739 285.615 247.291 281.81 C 247.416 281.602 247.624 281.285 247.764 280.989 C 247.895 280.692 248.289 279.146 248.349 278.95 C 248.412 278.738 248.272 277.917 248.148 277.82 C 248.143 277.816 248.135 277.813 248.124 277.813 C 247.892 277.813 246.55 278.992 246.458 279.226 C 246.357 279.463 246.418 280.031 246.418 280.031 C 246.418 280.031 246.033 281.638 246.054 281.786 C 246.065 281.938 246.065 282.002 246.101 282.21 C 245.677 284.529 244.656 287.114 244.72 289.124 C 244.479 290.202 244.363 291.307 244.363 291.307 L 243.822 289.541 C 243.822 289.541 244.467 284.866 244.592 283.945 C 245.208 278.534 244.451 273.959 244.428 273.202 C 244.395 272.449 244.576 271.679 244.624 271.175 C 244.68 270.662 244.038 264.938 244.171 262.635 C 244.223 261.83 246.233 259.626 246.242 259.262 C 246.242 259.185 246.193 259.153 246.112 259.153" style="fill:#d6f1fc;fill-opacity:1;fill-rule:nonzero;stroke:none" id="path354"/>
    <path d="M 241.002 295.573 C 241.002 295.573 241.463 295.99 241.808 295.249 C 242.244 294.299 241.002 294.292 241.002 294.292 C 241.002 294.292 239.76 295.729 240.193 296.182 C 240.538 296.53 241.002 295.573 241.002 295.573" style="fill:#ec453b;fill-opacity:1;fill-rule:nonzero;stroke:none" id="path356"/>
    <path d="M 302.213 226.252 L 304.212 236.763 L 306.286 226.291 L 308.778 232.761 L 310.163 228.374 L 313.785 226.283 L 313.785 227.509 L 310.849 229.208 L 308.682 236.125 L 306.466 230.341 L 304.071 242.378 L 301.952 231.251 L 300.246 238.285 L 298.496 235.241 L 296.088 247.281 L 294.081 238.861 L 290.721 240.84 L 290.713 239.611 L 294.927 237.143 L 296.128 242.202 L 298.183 231.939 L 300.037 235.176 L 302.213 226.252" style="fill:#ec453b;fill-opacity:1;fill-rule:nonzero;stroke:none" id="path358"/>
    <path d="M 318.556 240.984 L 286.346 259.583 L 286.346 313.366 L 318.556 294.768 L 318.556 240.984 M 287.363 302.079 L 287.363 260.372 L 317.521 242.955 L 317.521 284.666 L 287.363 302.079" style="fill:#d6f1fc;fill-opacity:1;fill-rule:nonzero;stroke:none" id="path360"/>
    <path d="M 284.724 237.026 L 252.511 255.629 L 252.511 332.902 L 284.724 314.308 L 284.724 237.026 M 253.54 321.606 L 253.54 256.418 L 283.702 239.006 L 283.702 304.193 L 253.54 321.606" style="fill:#d6f1fc;fill-opacity:1;fill-rule:nonzero;stroke:none" id="path362"/>
    <path d="M 250.039 305.163 L 232.978 315.013 L 232.978 333.482 L 250.039 323.633 L 250.039 305.163" style="fill:#ffffff;fill-opacity:1;fill-rule:nonzero;stroke:none" id="path364"/>
    <path d="M 251.068 303.188 L 231.945 314.215 L 231.945 344.779 L 251.068 333.743 L 251.068 303.188 M 232.978 315.013 L 250.039 305.163 L 250.039 323.633 L 232.978 333.482 L 232.978 315.013" style="fill:#d6f1fc;fill-opacity:1;fill-rule:nonzero;stroke:none" id="path366"/>
    <path d="M 247.92 306.384 C 247.725 308.251 247.388 310.442 246.891 311.099 C 245.893 311.856 245.553 311.872 245.553 311.872 L 245.553 307.747 L 247.92 306.384" style="fill:#333232;fill-opacity:1;fill-rule:nonzero;stroke:none" id="path368"/>
    <path d="M 236.86 312.77 L 236.852 316.892 C 236.852 316.892 236.504 317.28 235.515 317.668 C 235.01 317.588 234.682 315.782 234.48 314.143 L 236.86 312.77" style="fill:#333232;fill-opacity:1;fill-rule:nonzero;stroke:none" id="path370"/>
    <path d="M 242.265 313.687 L 240.086 314.949 L 240.086 319.551 L 242.265 318.305 L 242.265 313.687" style="fill:#c59d8e;fill-opacity:1;fill-rule:nonzero;stroke:none" id="path372"/>
    <path d="M 245.525 307.763 L 246.891 311.099 L 242.297 315.489 L 241.186 314.432 L 240.086 316.775 L 235.487 317.685 L 236.852 312.77 L 245.525 307.763" style="fill:#fbc13b;fill-opacity:1;fill-rule:nonzero;stroke:none" id="path374"/>
    <path d="M 237.986 324.273 C 237.497 323.497 238.587 319.17 239.34 318.738 C 240.101 318.305 242.227 317.063 242.969 316.631 C 243.726 316.207 245.032 319.403 244.363 320.568 C 243.534 321.718 241.443 323.741 241.443 323.741 C 241.443 323.741 238.607 324.542 237.986 324.273" style="fill:#813435;fill-opacity:1;fill-rule:nonzero;stroke:none" id="path376"/>
    <path d="M 238.383 321.906 C 237.95 322.051 237.517 322.675 237.417 323.288 C 237.321 323.893 237.59 324.273 238.022 324.137 C 238.446 323.994 238.811 321.762 238.383 321.906" style="fill:#f1bfad;fill-opacity:1;fill-rule:nonzero;stroke:none" id="path378"/>
    <path d="M 243.919 318.718 C 244.343 318.365 244.784 318.481 244.876 318.978 C 244.976 319.475 244.715 320.164 244.283 320.524 C 243.851 320.876 243.485 319.058 243.919 318.718" style="fill:#f1bfad;fill-opacity:1;fill-rule:nonzero;stroke:none" id="path380"/>
    <path d="M 241.171 316.615 C 244.522 314.68 244.159 321.95 244.159 321.95 C 244.159 321.95 244.31 324.798 241.171 326.605 C 237.986 328.439 238.23 325.311 238.23 325.311 C 238.23 325.311 237.866 318.518 241.171 316.615" style="fill:#f1bfad;fill-opacity:1;fill-rule:nonzero;stroke:none" id="path382"/>
    <path d="M 237.843 324.166 C 238.135 324.073 238.45 323.252 238.45 323.252 L 238.575 325.627 C 238.619 326.401 238.947 326.477 238.947 326.477 C 239.841 325.956 240.001 324.67 241.171 323.994 C 242.349 323.325 242.316 324.646 243.178 324.146 C 243.178 324.146 243.582 323.789 243.719 322.667 C 243.751 322.383 243.971 319.835 243.963 319.952 C 244.114 320.544 244.548 320.236 244.548 320.236 C 244.548 320.236 245.452 324.626 241.19 327.082 C 236.933 329.541 237.838 324.31 237.843 324.166" style="fill:#813435;fill-opacity:1;fill-rule:nonzero;stroke:none" id="path384"/>
    <path d="M 239.749 316.972 L 239.969 317.047 L 241.186 314.432 L 239.749 316.972 Z" style="fill:#333232;fill-opacity:1;fill-rule:nonzero;stroke:none" id="path386"/>
    <path d="M 242.633 315.297 L 242.404 315.634 L 241.186 314.432 L 242.633 315.297 Z" style="fill:#333232;fill-opacity:1;fill-rule:nonzero;stroke:none" id="path388"/>
    <path d="M 318.556 213.913 L 230.395 264.842 L 230.395 266.404 L 286.346 234.07 L 286.346 257.267 L 318.556 238.673 L 318.556 213.913 M 287.363 254.892 L 287.363 233.454 L 317.521 216.034 L 317.521 237.48 L 287.363 254.892" style="fill:#d6f1fc;fill-opacity:1;fill-rule:nonzero;stroke:none" id="path390"/>
    <path d="M 302.068 268.347 C 302.068 268.347 287.752 284.922 292.767 290.062 C 293.387 290.697 294.041 290.966 294.702 290.966 C 298.273 290.966 302.068 283.131 302.068 283.131 C 302.068 283.131 303.558 284.491 305.549 284.491 C 307.322 284.491 309.491 283.413 311.361 279.338 C 316.381 268.383 302.068 268.347 302.068 268.347" style="fill:#d6f1fc;fill-opacity:1;fill-rule:nonzero;stroke:none" id="path392"/>
    <path d="M 296.633 285.118 C 296.104 285.423 295.676 285.183 295.676 284.566 C 295.676 283.953 296.104 283.212 296.633 282.903 C 297.17 282.595 297.601 282.839 297.601 283.468 C 297.601 284.069 297.17 284.81 296.633 285.118" style="fill:#ec453b;fill-opacity:1;fill-rule:nonzero;stroke:none" id="path394"/>
    <path d="M 296.633 281.966 C 295.647 282.527 294.857 283.909 294.857 285.034 C 294.857 286.176 295.647 286.636 296.633 286.068 C 297.622 285.499 298.423 284.113 298.423 282.976 C 298.423 281.846 297.622 281.385 296.633 281.966 Z M 296.633 286.689 C 295.358 287.426 294.321 286.829 294.321 285.347 C 294.321 283.881 295.358 282.082 296.633 281.341 C 297.915 280.604 298.948 281.205 298.948 282.671 C 298.948 284.149 297.915 285.948 296.633 286.689" style="fill:#ec453b;fill-opacity:1;fill-rule:nonzero;stroke:none" id="path396"/>
    <path d="M 261.644 88.729 L 207.291 120.102 L 215.721 124.948 L 216.003 125.108 L 216.003 125.11 L 218.342 126.455 L 272.699 95.083 L 261.644 88.729" style="fill:#266577;fill-opacity:1;fill-rule:nonzero;stroke:none" id="path522"/>
    <path d="M 270.091 138.513 L 270.091 135.933 L 272.327 137.205 L 272.327 139.785 L 270.091 138.513" style="fill:#214f80;fill-opacity:1;fill-rule:nonzero;stroke:none" id="path524"/>
    <path d="M 217.97 171.17 L 215.743 169.883 L 270.091 138.513 L 272.327 139.785 L 217.97 171.17" style="fill:#3476b3;fill-opacity:1;fill-rule:nonzero;stroke:none" id="path526"/>
    <path d="M 215.743 169.883 L 215.743 167.312 L 270.091 135.933 L 270.091 138.513 L 215.743 169.883" style="fill:#18334f;fill-opacity:1;fill-rule:nonzero;stroke:none" id="path528"/>
    <path d="M 233.644 154.061 L 233.644 126.291 C 233.644 124.993 232.595 123.915 231.28 123.915 L 231.213 123.915 C 229.91 123.915 228.849 124.993 228.849 126.291 L 228.849 154.061 L 233.644 154.061" style="fill:#da2f23;fill-opacity:1;fill-rule:nonzero;stroke:none" id="path530"/>
    <path d="M 232.972 153.069 C 232.002 152.526 230.468 152.526 229.53 153.069 C 228.568 153.628 228.568 154.514 229.53 155.046 C 230.468 155.58 232.002 155.58 232.972 155.046 C 233.9 154.514 233.9 153.628 232.972 153.069" style="fill:#ec453b;fill-opacity:1;fill-rule:nonzero;stroke:none" id="path532"/>
    <path d="M 234.345 170.141 L 234.345 126.066 C 234.345 124.355 232.978 122.969 231.28 122.969 L 231.196 122.969 C 229.498 122.969 228.1 124.355 228.1 126.066 L 228.1 170.141 L 225.881 170.141 L 225.881 126.066 C 225.881 123.137 228.265 120.734 231.196 120.734 L 231.28 120.734 C 234.209 120.734 236.596 123.137 236.596 126.066 L 236.596 170.141 L 234.345 170.141" style="fill:#527ca6;fill-opacity:1;fill-rule:nonzero;stroke:none" id="path534"/>
    <path d="M 232.916 124.315 C 232.844 124.315 232.774 124.342 232.709 124.4 C 233.279 124.836 233.644 125.525 233.644 126.291 L 233.644 127.34 L 233.744 127.283 L 233.744 126.066 C 233.744 125.106 233.303 124.315 232.916 124.315" style="fill:#49a8b6;fill-opacity:1;fill-rule:nonzero;stroke:none" id="path536"/>
    <path d="M 233.744 127.283 L 233.644 127.34 L 233.644 135.315 L 233.744 135.257 L 233.744 127.283" style="fill:#c9d7f1;fill-opacity:1;fill-rule:nonzero;stroke:none" id="path538"/>
    <path d="M 233.744 135.257 L 233.644 135.315 L 233.644 149.404 L 233.744 149.461 L 233.744 135.257" style="fill:#ffffff;fill-opacity:1;fill-rule:nonzero;stroke:none" id="path540"/>
    <path d="M 233.644 149.404 L 233.644 153.87 C 233.746 154.292 233.521 154.731 232.972 155.046 C 232.781 155.151 232.568 155.235 232.343 155.299 L 232.343 157.727 L 233.744 156.918 L 233.744 149.461 L 233.644 149.404" style="fill:#c9cacb;fill-opacity:1;fill-rule:nonzero;stroke:none" id="path542"/>
    <path d="M 233.744 165.118 L 232.343 165.928 L 232.343 169.936 L 233.744 169.126 L 233.744 165.118" style="fill:#ffffff;fill-opacity:1;fill-rule:nonzero;stroke:none" id="path544"/>
    <path d="M 233.744 169.126 L 232.343 169.936 L 232.343 170.141 L 233.744 170.141 L 233.744 169.126" style="fill:#c9cacb;fill-opacity:1;fill-rule:nonzero;stroke:none" id="path546"/>
    <path d="M 233.744 162.062 L 232.343 162.871 L 232.343 165.928 L 233.744 165.118 L 233.744 162.062" style="fill:#c9cacb;fill-opacity:1;fill-rule:nonzero;stroke:none" id="path548"/>
    <path d="M 233.744 159.492 L 232.343 160.301 L 232.343 162.871 L 233.744 162.062 L 233.744 159.492" style="fill:#4e93c2;fill-opacity:1;fill-rule:nonzero;stroke:none" id="path550"/>
    <path d="M 233.744 156.918 L 232.343 157.727 L 232.343 160.301 L 233.744 159.492 L 233.744 156.918" style="fill:#355875;fill-opacity:1;fill-rule:nonzero;stroke:none" id="path552"/>
    <path d="M 232.709 124.4 C 232.5 124.587 232.343 125.099 232.343 126.066 L 232.343 152.812 C 232.568 152.877 232.781 152.963 232.972 153.069 C 233.35 153.297 233.575 153.579 233.644 153.87 L 233.644 149.404 L 233.644 135.315 L 233.644 127.34 L 233.644 126.291 C 233.644 125.525 233.279 124.836 232.709 124.4" style="fill:#e34a41;fill-opacity:1;fill-rule:nonzero;stroke:none" id="path554"/>
    <path d="M 232.343 152.812 L 232.343 155.299 C 232.568 155.235 232.781 155.151 232.972 155.046 C 233.521 154.731 233.746 154.292 233.644 153.87 C 233.575 153.579 233.35 153.297 232.972 153.069 C 232.781 152.963 232.568 152.877 232.343 152.812" style="fill:#ef655c;fill-opacity:1;fill-rule:nonzero;stroke:none" id="path556"/>
    <path d="M 229.317 124.315 C 229.014 124.315 228.745 124.799 228.745 126.066 L 228.745 130.171 L 228.849 130.111 L 228.849 126.291 C 228.849 125.584 229.163 124.943 229.66 124.505 C 229.549 124.383 229.431 124.315 229.317 124.315" style="fill:#246172;fill-opacity:1;fill-rule:nonzero;stroke:none" id="path558"/>
    <path d="M 228.849 130.111 L 228.745 130.171 L 228.745 138.145 L 228.849 138.085 L 228.849 130.111" style="fill:#7a89a6;fill-opacity:1;fill-rule:nonzero;stroke:none" id="path560"/>
    <path d="M 228.849 138.085 L 228.745 138.145 L 228.745 146.589 L 228.849 146.648 L 228.849 138.085" style="fill:#b0b0ae;fill-opacity:1;fill-rule:nonzero;stroke:none" id="path562"/>
    <path d="M 228.745 146.589 L 228.745 159.804 L 230.143 158.997 L 230.143 155.299 C 229.922 155.235 229.714 155.151 229.53 155.046 C 228.936 154.717 228.709 154.254 228.849 153.816 L 228.849 146.648 L 228.745 146.589" style="fill:#7d8183;fill-opacity:1;fill-rule:nonzero;stroke:none" id="path564"/>
    <path d="M 230.143 167.201 L 228.745 168.01 L 228.745 170.141 L 230.143 170.141 L 230.143 167.201" style="fill:#b0b0ae;fill-opacity:1;fill-rule:nonzero;stroke:none" id="path566"/>
    <path d="M 230.143 164.141 L 228.745 164.949 L 228.745 168.01 L 230.143 167.201 L 230.143 164.141" style="fill:#7d8183;fill-opacity:1;fill-rule:nonzero;stroke:none" id="path568"/>
    <path d="M 230.143 161.571 L 228.745 162.378 L 228.745 164.949 L 230.143 164.141 L 230.143 161.571" style="fill:#23507b;fill-opacity:1;fill-rule:nonzero;stroke:none" id="path570"/>
    <path d="M 230.143 158.997 L 228.745 159.804 L 228.745 162.378 L 230.143 161.571 L 230.143 158.997" style="fill:#142433;fill-opacity:1;fill-rule:nonzero;stroke:none" id="path572"/>
    <path d="M 229.66 124.505 C 229.163 124.943 228.849 125.584 228.849 126.291 L 228.849 130.111 L 228.849 138.085 L 228.849 146.648 L 228.849 153.816 C 228.935 153.545 229.162 153.283 229.53 153.069 C 229.714 152.963 229.922 152.877 230.143 152.812 L 230.143 126.066 C 230.143 125.39 229.925 124.796 229.66 124.505" style="fill:#95231f;fill-opacity:1;fill-rule:nonzero;stroke:none" id="path574"/>
    <path d="M 230.143 152.812 C 229.922 152.877 229.714 152.963 229.53 153.069 C 229.162 153.283 228.935 153.545 228.849 153.816 C 228.709 154.254 228.936 154.717 229.53 155.046 C 229.714 155.151 229.922 155.235 230.143 155.299 L 230.143 152.812" style="fill:#a3332b;fill-opacity:1;fill-rule:nonzero;stroke:none" id="path576"/>
    <path d="M 233.439 170.812 C 232.23 170.141 230.239 170.141 229.042 170.812 C 227.796 171.523 227.796 172.679 229.042 173.373 C 230.239 174.082 232.23 174.082 233.439 173.373 C 234.653 172.679 234.653 171.523 233.439 170.812 Z M 235.731 173.461 C 233.264 174.899 229.237 174.899 226.786 173.461 C 224.298 172.018 224.298 169.752 226.786 168.321 C 229.237 166.875 233.264 166.875 235.731 168.321 C 238.199 169.752 238.199 172.018 235.731 173.461" style="fill:#6a9ece;fill-opacity:1;fill-rule:nonzero;stroke:none" id="path578"/>
    <path d="M 228.713 171.049 C 228.798 171.105 228.905 171.194 229.042 171.257 C 230.239 171.955 232.23 171.955 233.439 171.257 C 233.56 171.194 233.684 171.105 233.761 171.049 C 234.645 171.754 234.537 172.739 233.439 173.373 C 232.23 174.082 230.239 174.082 229.042 173.373 C 227.929 172.739 227.824 171.754 228.713 171.049" style="fill:#315a8b;fill-opacity:1;fill-rule:nonzero;stroke:none" id="path580"/>
    <path d="M 246.618 146.583 L 246.618 118.815 C 246.618 117.497 245.549 116.445 244.247 116.445 L 244.187 116.445 C 242.881 116.445 241.832 117.497 241.832 118.815 L 241.832 146.583 L 246.618 146.583" style="fill:#da2f23;fill-opacity:1;fill-rule:nonzero;stroke:none" id="path582"/>
    <path d="M 245.921 145.593 C 244.984 145.061 243.454 145.061 242.493 145.593 C 241.535 146.15 241.535 147.036 242.493 147.564 C 243.454 148.134 244.984 148.134 245.921 147.564 C 246.871 147.036 246.871 146.15 245.921 145.593" style="fill:#ec453b;fill-opacity:1;fill-rule:nonzero;stroke:none" id="path584"/>
    <path d="M 247.331 162.665 L 247.331 118.595 C 247.331 116.896 245.941 115.504 244.239 115.504 L 244.175 115.504 C 242.448 115.504 241.082 116.896 241.082 118.595 L 241.082 162.665 L 238.831 162.665 L 238.831 118.595 C 238.831 115.664 241.223 113.272 244.175 113.272 L 244.239 113.272 C 247.159 113.272 249.555 115.664 249.555 118.595 L 249.555 162.665 L 247.331 162.665" style="fill:#527ca6;fill-opacity:1;fill-rule:nonzero;stroke:none" id="path586"/>
    <path d="M 245.877 116.838 C 245.806 116.838 245.737 116.864 245.673 116.921 C 246.246 117.352 246.618 118.037 246.618 118.815 L 246.618 119.845 L 246.714 119.79 L 246.714 118.595 C 246.714 117.639 246.268 116.838 245.877 116.838" style="fill:#49a8b6;fill-opacity:1;fill-rule:nonzero;stroke:none" id="path588"/>
    <path d="M 246.714 119.79 L 246.618 119.845 L 246.618 127.819 L 246.714 127.764 L 246.714 119.79" style="fill:#c9d7f1;fill-opacity:1;fill-rule:nonzero;stroke:none" id="path590"/>
    <path d="M 246.714 127.764 L 246.618 127.819 L 246.618 146.432 C 246.698 146.841 246.466 147.262 245.921 147.564 C 245.736 147.677 245.527 147.767 245.305 147.835 L 245.305 150.243 L 246.714 149.43 L 246.714 127.764 M 246.714 154.574 L 245.305 155.387 L 245.305 156.102 L 246.714 156.912 L 246.714 154.574 M 246.714 157.614 L 245.305 158.43 L 245.305 162.44 L 246.714 161.625 L 246.714 157.614" style="fill:#ffffff;fill-opacity:1;fill-rule:nonzero;stroke:none" id="path592"/>
    <path d="M 246.714 161.625 L 245.305 162.44 L 245.305 162.665 L 246.714 162.665 L 246.714 161.625" style="fill:#c9cacb;fill-opacity:1;fill-rule:nonzero;stroke:none" id="path594"/>
    <path d="M 245.305 156.102 L 245.305 158.43 L 246.714 157.614 L 246.714 156.912 L 245.305 156.102" style="fill:#c9cacb;fill-opacity:1;fill-rule:nonzero;stroke:none" id="path596"/>
    <path d="M 246.714 152.006 L 245.305 152.819 L 245.305 155.387 L 246.714 154.574 L 246.714 152.006" style="fill:#4e93c2;fill-opacity:1;fill-rule:nonzero;stroke:none" id="path598"/>
    <path d="M 246.714 149.43 L 245.305 150.243 L 245.305 152.819 L 246.714 152.006 L 246.714 149.43" style="fill:#355875;fill-opacity:1;fill-rule:nonzero;stroke:none" id="path600"/>
    <path d="M 245.673 116.921 C 245.463 117.108 245.305 117.62 245.305 118.595 L 245.305 145.34 C 245.527 145.403 245.736 145.488 245.921 145.593 C 246.326 145.831 246.559 146.128 246.618 146.432 L 246.618 127.819 L 246.618 119.845 L 246.618 118.815 C 246.618 118.037 246.246 117.352 245.673 116.921" style="fill:#e34a41;fill-opacity:1;fill-rule:nonzero;stroke:none" id="path602"/>
    <path d="M 245.305 145.34 L 245.305 147.835 C 245.527 147.767 245.736 147.677 245.921 147.564 C 246.466 147.262 246.698 146.841 246.618 146.432 C 246.559 146.128 246.326 145.831 245.921 145.593 C 245.736 145.488 245.527 145.403 245.305 145.34" style="fill:#ef655c;fill-opacity:1;fill-rule:nonzero;stroke:none" id="path604"/>
    <path d="M 242.264 116.838 C 241.961 116.838 241.691 117.322 241.691 118.595 L 241.691 122.692 L 241.832 122.61 L 241.832 118.815 C 241.832 118.106 242.136 117.473 242.62 117.041 C 242.506 116.911 242.382 116.838 242.264 116.838" style="fill:#246172;fill-opacity:1;fill-rule:nonzero;stroke:none" id="path606"/>
    <path d="M 241.832 122.61 L 241.691 122.692 L 241.691 130.665 L 241.832 130.584 L 241.832 122.61" style="fill:#7a89a6;fill-opacity:1;fill-rule:nonzero;stroke:none" id="path608"/>
    <path d="M 241.832 130.584 L 241.691 130.665 L 241.691 152.33 L 243.101 151.516 L 243.101 147.829 C 242.883 147.762 242.677 147.674 242.493 147.564 C 241.879 147.226 241.658 146.74 241.832 146.288 L 241.832 130.584" style="fill:#b0b0ae;fill-opacity:1;fill-rule:nonzero;stroke:none" id="path610"/>
    <path d="M 243.101 159.705 L 241.691 160.52 L 241.691 162.665 L 243.101 162.665 L 243.101 159.705" style="fill:#b0b0ae;fill-opacity:1;fill-rule:nonzero;stroke:none" id="path612"/>
    <path d="M 243.101 156.66 L 241.691 157.474 L 241.691 160.52 L 243.101 159.705 L 243.101 156.66" style="fill:#7d8183;fill-opacity:1;fill-rule:nonzero;stroke:none" id="path614"/>
    <path d="M 243.101 154.092 L 241.691 154.905 L 241.691 157.474 L 243.101 156.66 L 243.101 154.092" style="fill:#23507b;fill-opacity:1;fill-rule:nonzero;stroke:none" id="path616"/>
    <path d="M 243.101 151.516 L 241.691 152.33 L 241.691 154.905 L 243.101 154.092 L 243.101 151.516" style="fill:#142433;fill-opacity:1;fill-rule:nonzero;stroke:none" id="path618"/>
    <path d="M 242.62 117.041 C 242.136 117.473 241.832 118.106 241.832 118.815 L 241.832 122.61 L 241.832 130.584 L 241.832 146.288 C 241.929 146.035 242.149 145.793 242.493 145.593 C 242.677 145.491 242.883 145.408 243.101 145.345 L 243.101 118.595 C 243.101 117.929 242.884 117.338 242.62 117.041" style="fill:#95231f;fill-opacity:1;fill-rule:nonzero;stroke:none" id="path620"/>
    <path d="M 243.101 145.345 C 242.883 145.408 242.677 145.491 242.493 145.593 C 242.149 145.793 241.929 146.035 241.832 146.288 C 241.658 146.74 241.879 147.226 242.493 147.564 C 242.677 147.674 242.883 147.762 243.101 147.829 L 243.101 145.345" style="fill:#a3332b;fill-opacity:1;fill-rule:nonzero;stroke:none" id="path622"/>
    <path d="M 246.41 163.339 C 245.192 162.65 243.202 162.65 241.996 163.339 C 240.762 164.068 240.762 165.205 241.996 165.91 C 243.202 166.584 245.192 166.584 246.41 165.91 C 247.628 165.205 247.628 164.068 246.41 163.339 Z M 248.678 166.01 C 246.214 167.424 242.227 167.424 239.744 166.01 C 237.268 164.561 237.268 162.276 239.744 160.827 C 242.227 159.422 246.214 159.422 248.678 160.827 C 251.161 162.276 251.161 164.561 248.678 166.01" style="fill:#6a9ece;fill-opacity:1;fill-rule:nonzero;stroke:none" id="path624"/>
    <path d="M 241.663 163.567 C 241.784 163.636 241.871 163.731 241.996 163.775 C 243.202 164.501 245.192 164.501 246.41 163.775 C 246.521 163.731 246.638 163.636 246.742 163.567 C 247.619 164.276 247.516 165.266 246.41 165.91 C 245.192 166.584 243.202 166.584 241.996 165.91 C 240.882 165.266 240.762 164.276 241.663 163.567" style="fill:#315a8b;fill-opacity:1;fill-rule:nonzero;stroke:none" id="path626"/>
    <path d="M 260.013 138.816 L 260.013 111.04 C 260.013 109.76 258.939 108.689 257.638 108.689 L 257.594 108.689 C 256.267 108.689 255.234 109.76 255.234 111.04 L 255.234 138.816 L 260.013 138.816" style="fill:#da2f23;fill-opacity:1;fill-rule:nonzero;stroke:none" id="path628"/>
    <path d="M 259.308 137.831 C 258.383 137.273 256.84 137.273 255.88 137.831 C 254.95 138.392 254.95 139.292 255.88 139.81 C 256.84 140.355 258.383 140.355 259.308 139.81 C 260.277 139.292 260.277 138.392 259.308 137.831" style="fill:#ec453b;fill-opacity:1;fill-rule:nonzero;stroke:none" id="path630"/>
    <path d="M 260.725 154.919 L 260.725 110.832 C 260.725 109.115 259.336 107.749 257.638 107.749 L 257.57 107.749 C 255.854 107.749 254.465 109.115 254.465 110.832 L 254.465 154.919 L 252.242 154.919 L 252.242 110.832 C 252.242 107.905 254.629 105.502 257.57 105.502 L 257.638 105.502 C 260.554 105.502 262.962 107.905 262.962 110.832 L 262.962 154.919 L 260.725 154.919" style="fill:#527ca6;fill-opacity:1;fill-rule:nonzero;stroke:none" id="path632"/>
    <path d="M 259.282 109.065 C 259.205 109.065 259.131 109.097 259.062 109.167 C 259.638 109.599 260.013 110.283 260.013 111.04 L 260.013 112.107 L 260.105 112.054 L 260.105 110.832 C 260.105 109.867 259.667 109.065 259.282 109.065" style="fill:#49a8b6;fill-opacity:1;fill-rule:nonzero;stroke:none" id="path634"/>
    <path d="M 260.105 112.054 L 260.013 112.107 L 260.013 120.08 L 260.105 120.027 L 260.105 112.054" style="fill:#c9d7f1;fill-opacity:1;fill-rule:nonzero;stroke:none" id="path636"/>
    <path d="M 260.105 120.027 L 260.013 120.08 L 260.013 138.648 C 260.112 139.07 259.877 139.506 259.308 139.81 C 259.13 139.914 258.93 139.999 258.716 140.063 L 258.716 142.5 L 260.105 141.698 L 260.105 120.027 M 260.105 146.842 L 258.716 147.644 L 258.716 154.684 L 260.105 153.88 L 260.105 146.842" style="fill:#ffffff;fill-opacity:1;fill-rule:nonzero;stroke:none" id="path638"/>
    <path d="M 260.105 153.88 L 258.716 154.684 L 258.716 154.919 L 260.105 154.919 L 260.105 153.88" style="fill:#c9cacb;fill-opacity:1;fill-rule:nonzero;stroke:none" id="path640"/>
    <path d="M 260.105 144.276 L 258.716 145.078 L 258.716 147.644 L 260.105 146.842 L 260.105 144.276" style="fill:#4e93c2;fill-opacity:1;fill-rule:nonzero;stroke:none" id="path642"/>
    <path d="M 260.105 141.698 L 258.716 142.5 L 258.716 145.078 L 260.105 144.276 L 260.105 141.698" style="fill:#355875;fill-opacity:1;fill-rule:nonzero;stroke:none" id="path644"/>
    <path d="M 259.062 109.167 C 258.863 109.368 258.716 109.881 258.716 110.832 L 258.716 137.572 C 258.93 137.638 259.13 137.724 259.308 137.831 C 259.708 138.062 259.943 138.352 260.013 138.648 L 260.013 120.08 L 260.013 112.107 L 260.013 111.04 C 260.013 110.283 259.638 109.599 259.062 109.167" style="fill:#e34a41;fill-opacity:1;fill-rule:nonzero;stroke:none" id="path646"/>
    <path d="M 258.716 137.572 L 258.716 140.063 C 258.93 139.999 259.13 139.914 259.308 139.81 C 259.877 139.506 260.112 139.07 260.013 138.648 C 259.943 138.352 259.708 138.062 259.308 137.831 C 259.13 137.724 258.93 137.638 258.716 137.572" style="fill:#ef655c;fill-opacity:1;fill-rule:nonzero;stroke:none" id="path648"/>
    <path d="M 255.671 109.065 C 255.365 109.065 255.094 109.553 255.094 110.832 L 255.094 114.949 L 255.234 114.868 L 255.234 111.04 C 255.234 110.343 255.54 109.708 256.033 109.275 C 255.917 109.141 255.791 109.065 255.671 109.065" style="fill:#246172;fill-opacity:1;fill-rule:nonzero;stroke:none" id="path650"/>
    <path d="M 255.234 114.868 L 255.094 114.949 L 255.094 122.922 L 255.234 122.841 L 255.234 114.868" style="fill:#7a89a6;fill-opacity:1;fill-rule:nonzero;stroke:none" id="path652"/>
    <path d="M 255.234 122.841 L 255.094 122.922 L 255.094 144.592 L 256.509 143.775 L 256.509 140.069 C 256.282 140.004 256.07 139.917 255.88 139.81 C 255.288 139.48 255.073 138.996 255.234 138.543 L 255.234 122.841 M 256.509 148.918 L 255.094 149.735 L 255.094 154.919 L 256.509 154.919 L 256.509 148.918" style="fill:#b0b0ae;fill-opacity:1;fill-rule:nonzero;stroke:none" id="path654"/>
    <path d="M 256.509 146.352 L 255.094 147.169 L 255.094 149.735 L 256.509 148.918 L 256.509 146.352" style="fill:#23507b;fill-opacity:1;fill-rule:nonzero;stroke:none" id="path656"/>
    <path d="M 256.509 143.775 L 255.094 144.592 L 255.094 147.169 L 256.509 146.352 L 256.509 143.775" style="fill:#142433;fill-opacity:1;fill-rule:nonzero;stroke:none" id="path658"/>
    <path d="M 256.033 109.275 C 255.54 109.708 255.234 110.343 255.234 111.04 L 255.234 114.868 L 255.234 122.841 L 255.234 138.543 C 255.326 138.284 255.542 138.035 255.88 137.831 C 256.07 137.721 256.282 137.632 256.509 137.566 L 256.509 110.832 C 256.509 110.164 256.295 109.574 256.033 109.275" style="fill:#95231f;fill-opacity:1;fill-rule:nonzero;stroke:none" id="path660"/>
    <path d="M 256.509 137.566 C 256.282 137.632 256.07 137.721 255.88 137.831 C 255.542 138.035 255.326 138.284 255.234 138.543 C 255.073 138.996 255.288 139.48 255.88 139.81 C 256.07 139.917 256.282 140.004 256.509 140.069 L 256.509 137.566" style="fill:#a3332b;fill-opacity:1;fill-rule:nonzero;stroke:none" id="path662"/>
    <path d="M 259.789 155.58 C 258.591 154.89 256.608 154.89 255.394 155.58 C 254.173 156.312 254.173 157.447 255.394 158.164 C 256.608 158.844 258.591 158.844 259.789 158.164 C 261.03 157.447 261.03 156.312 259.789 155.58 Z M 262.076 158.243 C 259.616 159.674 255.61 159.674 253.136 158.243 C 250.668 156.83 250.668 154.514 253.136 153.096 C 255.61 151.657 259.616 151.657 262.076 153.096 C 264.567 154.514 264.567 156.83 262.076 158.243" style="fill:#6a9ece;fill-opacity:1;fill-rule:nonzero;stroke:none" id="path664"/>
    <path d="M 255.07 155.805 C 255.145 155.888 255.279 155.961 255.394 156.025 C 256.608 156.738 258.591 156.738 259.789 156.025 C 259.93 155.961 260.037 155.888 260.138 155.805 C 261.03 156.51 260.902 157.503 259.789 158.164 C 258.591 158.844 256.608 158.844 255.394 158.164 C 254.301 157.503 254.197 156.51 255.07 155.805" style="fill:#315a8b;fill-opacity:1;fill-rule:nonzero;stroke:none" id="path666"/>
    <path d="M 209.558 121.376 L 209.558 118.801 L 207.291 120.102 L 207.291 122.657 L 209.558 121.376" style="fill:#18334f;fill-opacity:1;fill-rule:nonzero;stroke:none" id="path668"/>
    <path d="M 218.342 129.043 L 220.57 127.757 L 209.558 121.376 L 207.291 122.657 L 218.342 129.043" style="fill:#3476b3;fill-opacity:1;fill-rule:nonzero;stroke:none" id="path670"/>
    <path d="M 220.57 127.757 L 220.57 125.189 L 209.558 118.801 L 209.558 121.376 L 220.57 127.757" style="fill:#214f80;fill-opacity:1;fill-rule:nonzero;stroke:none" id="path672"/>
    <path d="M 213.788 163.636 L 211.561 164.916 L 213.788 166.199 L 216.003 164.916 L 213.788 163.636" style="fill:#21334a;fill-opacity:1;fill-rule:nonzero;stroke:none" id="path674"/>
    <path d="M 216.003 125.108 L 213.788 123.851 L 213.788 163.636 L 216.003 164.916 L 216.003 125.108" style="fill:#214f80;fill-opacity:1;fill-rule:nonzero;stroke:none" id="path676"/>
    <path d="M 213.788 123.851 L 211.561 125.125 L 211.561 164.916 L 213.788 163.636 L 213.788 123.851" style="fill:#18334f;fill-opacity:1;fill-rule:nonzero;stroke:none" id="path678"/>
    <path d="M 210.556 164.312 L 210.556 161.757 L 208.316 163.046 L 208.316 165.621 L 210.556 164.312" style="fill:#21334a;fill-opacity:1;fill-rule:nonzero;stroke:none" id="path680"/>
    <path d="M 215.743 169.883 L 217.97 168.61 L 210.556 164.311 L 208.316 165.621 L 215.743 169.883" style="fill:#3476b3;fill-opacity:1;fill-rule:nonzero;stroke:none" id="path682"/>
    <path d="M 217.97 168.61 L 217.97 166.047 L 210.556 161.757 L 210.556 164.311 L 217.97 168.61" style="fill:#214f80;fill-opacity:1;fill-rule:nonzero;stroke:none" id="path684"/>
    <path d="M 221.062 161.26 L 221.062 133.492 C 221.062 132.183 220.004 131.145 218.699 131.145 L 218.635 131.145 C 217.321 131.145 216.28 132.183 216.28 133.492 L 216.28 161.26 L 221.062 161.26" style="fill:#da2f23;fill-opacity:1;fill-rule:nonzero;stroke:none" id="path686"/>
    <path d="M 220.37 160.271 C 219.42 159.729 217.886 159.729 216.928 160.271 C 215.979 160.798 215.979 161.721 216.928 162.249 C 217.886 162.811 219.42 162.811 220.37 162.249 C 221.318 161.721 221.318 160.798 220.37 160.271" style="fill:#ec453b;fill-opacity:1;fill-rule:nonzero;stroke:none" id="path688"/>
    <path d="M 221.779 177.342 L 221.779 133.268 C 221.779 131.561 220.397 130.176 218.691 130.176 L 218.619 130.176 C 216.9 130.176 215.527 131.561 215.527 133.268 L 215.527 177.342 L 213.275 177.342 L 213.275 133.268 C 213.275 130.315 215.679 127.945 218.619 127.945 L 218.691 127.945 C 221.619 127.945 224.006 130.315 224.006 133.268 L 224.006 177.342 L 221.779 177.342" style="fill:#527ca6;fill-opacity:1;fill-rule:nonzero;stroke:none" id="path690"/>
    <path d="M 220.336 131.508 C 220.259 131.508 220.184 131.54 220.115 131.608 C 220.69 132.034 221.062 132.715 221.062 133.492 L 221.062 134.609 L 221.166 134.549 L 221.166 133.268 C 221.166 132.308 220.724 131.508 220.336 131.508" style="fill:#49a8b6;fill-opacity:1;fill-rule:nonzero;stroke:none" id="path692"/>
    <path d="M 221.166 134.549 L 221.062 134.609 L 221.062 142.584 L 221.166 142.524 L 221.166 134.549" style="fill:#c9d7f1;fill-opacity:1;fill-rule:nonzero;stroke:none" id="path694"/>
    <path d="M 221.166 142.524 L 221.062 142.584 L 221.062 148.397 L 221.166 148.336 L 221.166 142.524" style="fill:#ffffff;fill-opacity:1;fill-rule:nonzero;stroke:none" id="path696"/>
    <path d="M 221.166 148.336 L 221.062 148.397 L 221.062 161.083 C 221.152 161.502 220.921 161.942 220.37 162.249 C 220.187 162.357 219.982 162.444 219.765 162.511 L 219.765 164.989 L 221.166 164.18 L 221.166 148.336" style="fill:#c9cacb;fill-opacity:1;fill-rule:nonzero;stroke:none" id="path698"/>
    <path d="M 221.166 172.394 L 219.765 173.205 L 219.765 177.21 L 221.166 176.4 L 221.166 172.394" style="fill:#ffffff;fill-opacity:1;fill-rule:nonzero;stroke:none" id="path700"/>
    <path d="M 221.166 176.4 L 219.765 177.21 L 219.765 177.342 L 221.166 177.342 L 221.166 176.4" style="fill:#c9cacb;fill-opacity:1;fill-rule:nonzero;stroke:none" id="path702"/>
    <path d="M 221.166 169.324 L 219.765 170.134 L 219.765 173.205 L 221.166 172.394 L 221.166 169.324" style="fill:#c9cacb;fill-opacity:1;fill-rule:nonzero;stroke:none" id="path704"/>
    <path d="M 221.166 166.752 L 219.765 167.561 L 219.765 170.134 L 221.166 169.324 L 221.166 166.752" style="fill:#4e93c2;fill-opacity:1;fill-rule:nonzero;stroke:none" id="path706"/>
    <path d="M 221.166 164.18 L 219.765 164.989 L 219.765 167.561 L 221.166 166.752 L 221.166 164.18" style="fill:#355875;fill-opacity:1;fill-rule:nonzero;stroke:none" id="path708"/>
    <path d="M 220.115 131.608 C 219.914 131.807 219.765 132.319 219.765 133.268 L 219.765 160.018 C 219.982 160.082 220.187 160.166 220.37 160.271 C 220.767 160.491 220.998 160.782 221.062 161.083 L 221.062 148.397 L 221.062 142.584 L 221.062 134.609 L 221.062 133.492 C 221.062 132.715 220.69 132.034 220.115 131.608" style="fill:#e34a41;fill-opacity:1;fill-rule:nonzero;stroke:none" id="path710"/>
    <path d="M 219.765 160.018 L 219.765 162.511 C 219.982 162.444 220.187 162.357 220.37 162.249 C 220.921 161.942 221.152 161.502 221.062 161.083 C 220.998 160.782 220.767 160.491 220.37 160.271 C 220.187 160.166 219.982 160.082 219.765 160.018" style="fill:#ef655c;fill-opacity:1;fill-rule:nonzero;stroke:none" id="path712"/>
    <path d="M 216.716 131.508 C 216.413 131.508 216.143 131.994 216.143 133.268 L 216.143 137.451 L 216.28 137.372 L 216.28 133.492 C 216.28 132.78 216.587 132.149 217.079 131.72 C 216.963 131.585 216.837 131.508 216.716 131.508" style="fill:#246172;fill-opacity:1;fill-rule:nonzero;stroke:none" id="path714"/>
    <path d="M 216.28 137.372 L 216.143 137.451 L 216.143 145.426 L 216.28 145.347 L 216.28 137.372" style="fill:#7a89a6;fill-opacity:1;fill-rule:nonzero;stroke:none" id="path716"/>
    <path d="M 216.28 145.347 L 216.143 145.426 L 216.143 151.238 L 216.28 151.159 L 216.28 145.347" style="fill:#b0b0ae;fill-opacity:1;fill-rule:nonzero;stroke:none" id="path718"/>
    <path d="M 216.28 151.159 L 216.143 151.238 L 216.143 164.99 L 217.549 165.803 L 217.549 162.515 C 217.326 162.448 217.116 162.359 216.928 162.249 C 216.312 161.906 216.096 161.397 216.28 160.938 L 216.28 151.159" style="fill:#7d8183;fill-opacity:1;fill-rule:nonzero;stroke:none" id="path720"/>
    <path d="M 217.549 174.486 L 216.143 175.3 L 216.143 177.342 L 217.549 177.342 L 217.549 174.486" style="fill:#b0b0ae;fill-opacity:1;fill-rule:nonzero;stroke:none" id="path722"/>
    <path d="M 216.143 170.115 L 216.143 175.3 L 217.549 174.486 L 217.549 170.927 L 216.143 170.115" style="fill:#7d8183;fill-opacity:1;fill-rule:nonzero;stroke:none" id="path724"/>
    <path d="M 217.549 168.851 L 216.143 169.654 L 216.143 170.115 L 217.549 170.927 L 217.549 168.851" style="fill:#23507b;fill-opacity:1;fill-rule:nonzero;stroke:none" id="path726"/>
    <path d="M 216.143 167.551 L 216.143 169.654 L 217.549 168.851 L 217.549 168.366 L 216.143 167.551" style="fill:#23507b;fill-opacity:1;fill-rule:nonzero;stroke:none" id="path728"/>
    <path d="M 216.143 164.99 L 216.143 167.551 L 217.549 168.366 L 217.549 165.803 L 216.143 164.99" style="fill:#183754;fill-opacity:1;fill-rule:nonzero;stroke:none" id="path730"/>
    <path d="M 217.079 131.72 C 216.587 132.149 216.28 132.78 216.28 133.492 L 216.28 137.372 L 216.28 145.347 L 216.28 151.159 L 216.28 160.938 C 216.379 160.69 216.595 160.456 216.928 160.271 C 217.116 160.164 217.326 160.079 217.549 160.015 L 217.549 133.268 C 217.549 132.606 217.338 132.02 217.079 131.72" style="fill:#95231f;fill-opacity:1;fill-rule:nonzero;stroke:none" id="path732"/>
    <path d="M 217.549 160.015 C 217.326 160.079 217.116 160.164 216.928 160.271 C 216.595 160.456 216.379 160.69 216.28 160.938 C 216.096 161.397 216.312 161.906 216.928 162.249 C 217.116 162.359 217.326 162.448 217.549 162.515 L 217.549 160.015" style="fill:#a3332b;fill-opacity:1;fill-rule:nonzero;stroke:none" id="path734"/>
    <path d="M 220.858 178.016 C 219.628 177.323 217.666 177.323 216.435 178.016 C 215.202 178.72 215.202 179.861 216.435 180.574 C 217.666 181.261 219.628 181.261 220.858 180.574 C 222.083 179.861 222.083 178.72 220.858 178.016 Z M 223.118 180.655 C 220.657 182.108 216.668 182.108 214.201 180.655 C 211.721 179.238 211.721 176.953 214.201 175.504 C 216.668 174.097 220.657 174.097 223.118 175.504 C 225.601 176.953 225.601 179.238 223.118 180.655" style="fill:#6a9ece;fill-opacity:1;fill-rule:nonzero;stroke:none" id="path736"/>
    <path d="M 216.119 178.252 C 216.219 178.305 216.315 178.396 216.435 178.46 C 217.666 179.165 219.628 179.165 220.858 178.46 C 220.983 178.396 221.074 178.305 221.19 178.252 C 222.083 178.949 221.94 179.951 220.858 180.574 C 219.628 181.261 217.666 181.261 216.435 180.574 C 215.334 179.951 215.214 178.949 216.119 178.252" style="fill:#315a8b;fill-opacity:1;fill-rule:nonzero;stroke:none" id="path738"/>
    <path d="M 263.782 94.897 L 263.782 92.308 L 266.009 93.632 L 266.009 96.192 L 263.782 94.897" style="fill:#21334a;fill-opacity:1;fill-rule:nonzero;stroke:none" id="path740"/>
    <path d="M 261.602 91.241 L 261.602 88.634 L 259.355 89.952 L 259.355 92.527 L 261.602 91.241" style="fill:#18334f;fill-opacity:1;fill-rule:nonzero;stroke:none" id="path746"/>
    <path d="M 270.408 98.903 L 272.639 97.594 L 261.602 91.241 L 259.355 92.527 L 270.408 98.903" style="fill:#3476b3;fill-opacity:1;fill-rule:nonzero;stroke:none" id="path748"/>
    <path d="M 272.639 97.594 L 272.639 95.039 L 261.602 88.634 L 261.602 91.241 L 272.639 97.594" style="fill:#214f80;fill-opacity:1;fill-rule:nonzero;stroke:none" id="path750"/>
    <path d="M 266.009 133.573 L 263.782 134.839 L 266.009 136.115 L 268.225 134.839 L 266.009 133.573" style="fill:#21334a;fill-opacity:1;fill-rule:nonzero;stroke:none" id="path752"/>
    <path d="M 268.225 95.066 L 266.009 93.781 L 266.009 133.573 L 268.225 134.839 L 268.225 95.066" style="fill:#214f80;fill-opacity:1;fill-rule:nonzero;stroke:none" id="path754"/>
    <path d="M 266.009 93.781 L 263.782 95.083 L 263.782 134.839 L 266.009 133.573 L 266.009 93.781" style="fill:#18334f;fill-opacity:1;fill-rule:nonzero;stroke:none" id="path756"/>
    <path d="M 262.677 134.218 L 262.677 131.667 L 260.466 132.943 L 260.466 135.519 L 262.677 134.218" style="fill:#21334a;fill-opacity:1;fill-rule:nonzero;stroke:none" id="path758"/>
    <path d="M 267.872 139.785 L 270.091 138.513 L 262.677 134.218 L 260.466 135.519 L 267.872 139.785" style="fill:#3476b3;fill-opacity:1;fill-rule:nonzero;stroke:none" id="path760"/>
    <path d="M 270.091 138.513 L 270.091 135.933 L 262.677 131.667 L 262.677 134.218 L 270.091 138.513" style="fill:#214f80;fill-opacity:1;fill-rule:nonzero;stroke:none" id="path762"/>
    <path d="M 260.466 132.943 L 260.466 130.359 L 262.677 131.667 L 262.677 134.218 L 260.466 132.943" style="fill:#214f80;fill-opacity:1;fill-rule:nonzero;stroke:none" id="path764"/>
    <path d="M 208.316 165.621 L 206.093 164.312 L 260.466 132.943 L 262.677 134.218 L 208.316 165.621" style="fill:#3476b3;fill-opacity:1;fill-rule:nonzero;stroke:none" id="path766"/>
    <path d="M 206.093 164.312 L 206.093 161.757 L 260.466 130.359 L 260.466 132.943 L 206.093 164.312" style="fill:#18334f;fill-opacity:1;fill-rule:nonzero;stroke:none" id="path768"/>
    <path d="M 209.647 69.648 L 199.397 75.566 L 209.647 69.648" style="fill:#333232;fill-opacity:1;fill-rule:nonzero;stroke:none" id="path966"/>
    <path d="M 213.281 71.743 L 203.026 77.664 L 213.281 71.743" style="fill:#333232;fill-opacity:1;fill-rule:nonzero;stroke:none" id="path972"/>
    <path d="M 180.771 52.976 L 170.52 58.894 L 180.771 52.976" style="fill:#333232;fill-opacity:1;fill-rule:nonzero;stroke:none" id="path984"/>
  </g>
</svg>