<?xml version="1.0" encoding="utf-8"?>
<svg viewBox="0 0 496 496" xmlns="http://www.w3.org/2000/svg">
  <path style="fill: rgb(227, 138, 55);" d="M416,462.4c0,19.2-12.8,33.6-32.8,33.6H112.8c-20,0-32.8-14.4-32.8-33.6V52.8 C80,33.6,92.8,16,112.8,16h269.6c20.8,0,33.6,17.6,33.6,36.8V462.4z"/>
  <path style="fill: rgb(64, 70, 107);" d="M320,36c0,3.2-4.8,4-8,4H184c-3.2,0-8-0.8-8-4V4.8c0-2.4,4.8-4.8,8-4.8h128c3.2,0,8,2.4,8,4.8V36z"/>
  <rect x="128" y="72" style="fill:#EAEAEA;" width="240" height="376"/>
  <polyline style="fill:#DDDDDD;" points="128,72 368,72 368,448 "/>
  <rect x="160" y="104" style="fill:#A8A8A8;" width="56" height="56"/>
  <g>
    <rect x="152" y="184" style="fill:#C4C4C4;" width="192" height="16"/>
    <rect x="152" y="232" style="fill:#C4C4C4;" width="192" height="16"/>
    <rect x="152" y="280" style="fill:#C4C4C4;" width="192" height="16"/>
    <rect x="152" y="328" style="fill:#C4C4C4;" width="192" height="16"/>
    <rect x="152" y="376" style="fill:#C4C4C4;" width="88" height="16"/>
  </g>
  <polygon style="fill:#F15249;" points="344,376 320,376 320,360 296,360 296,376 272,376 272,400 296,400 296,424 320,424 320,400 &#10;&#9;344,400 "/>
  <rect x="248" y="112" style="fill: rgb(62, 165, 43);" width="96" height="32"/>
</svg>